<?xml version="1.0" encoding="utf-8" standalone="no"?>
<!DOCTYPE svg PUBLIC "-//W3C//DTD SVG 1.1//EN"
  "http://www.w3.org/Graphics/SVG/1.1/DTD/svg11.dtd">
<svg xmlns:xlink="http://www.w3.org/1999/xlink" width="460.8pt" height="345.6pt" viewBox="0 0 460.8 345.6" xmlns="http://www.w3.org/2000/svg" version="1.1">
 <metadata>
  <rdf:RDF xmlns:dc="http://purl.org/dc/elements/1.1/" xmlns:cc="http://creativecommons.org/ns#" xmlns:rdf="http://www.w3.org/1999/02/22-rdf-syntax-ns#">
   <cc:Work>
    <dc:type rdf:resource="http://purl.org/dc/dcmitype/StillImage"/>
    <dc:date>2025-05-06T22:53:32.090200</dc:date>
    <dc:format>image/svg+xml</dc:format>
    <dc:creator>
     <cc:Agent>
      <dc:title>Matplotlib v3.10.1, https://matplotlib.org/</dc:title>
     </cc:Agent>
    </dc:creator>
   </cc:Work>
  </rdf:RDF>
 </metadata>
 <defs>
  <style type="text/css">*{stroke-linejoin: round; stroke-linecap: butt}</style>
 </defs>
 <g id="figure_1">
  <g id="patch_1">
   <path d="M 0 345.6 
L 460.8 345.6 
L 460.8 0 
L 0 0 
z
" style="fill: #ffffff"/>
  </g>
  <g id="axes_1">
   <g id="patch_2">
    <path d="M 57.6 307.584 
L 414.72 307.584 
L 414.72 41.472 
L 57.6 41.472 
z
" style="fill: #ffffff"/>
   </g>
   <g id="matplotlib.axis_1">
    <g id="xtick_1">
     <g id="line2d_1">
      <defs>
       <path id="m0d03fbed4c" d="M 0 0 
L 0 3.5 
" style="stroke: #000000; stroke-width: 0.8"/>
      </defs>
      <g>
       <use xlink:href="#m0d03fbed4c" x="73.832727" y="307.584" style="stroke: #000000; stroke-width: 0.8"/>
      </g>
     </g>
     <g id="text_1">
      <!-- 0 -->
      <g transform="translate(70.651477 322.182437) scale(0.1 -0.1)">
       <defs>
        <path id="DejaVuSans-30" d="M 2034 4250 
Q 1547 4250 1301 3770 
Q 1056 3291 1056 2328 
Q 1056 1369 1301 889 
Q 1547 409 2034 409 
Q 2525 409 2770 889 
Q 3016 1369 3016 2328 
Q 3016 3291 2770 3770 
Q 2525 4250 2034 4250 
z
M 2034 4750 
Q 2819 4750 3233 4129 
Q 3647 3509 3647 2328 
Q 3647 1150 3233 529 
Q 2819 -91 2034 -91 
Q 1250 -91 836 529 
Q 422 1150 422 2328 
Q 422 3509 836 4129 
Q 1250 4750 2034 4750 
z
" transform="scale(0.015625)"/>
       </defs>
       <use xlink:href="#DejaVuSans-30"/>
      </g>
     </g>
    </g>
    <g id="xtick_2">
     <g id="line2d_2">
      <g>
       <use xlink:href="#m0d03fbed4c" x="139.419504" y="307.584" style="stroke: #000000; stroke-width: 0.8"/>
      </g>
     </g>
     <g id="text_2">
      <!-- 20 -->
      <g transform="translate(133.057004 322.182437) scale(0.1 -0.1)">
       <defs>
        <path id="DejaVuSans-32" d="M 1228 531 
L 3431 531 
L 3431 0 
L 469 0 
L 469 531 
Q 828 903 1448 1529 
Q 2069 2156 2228 2338 
Q 2531 2678 2651 2914 
Q 2772 3150 2772 3378 
Q 2772 3750 2511 3984 
Q 2250 4219 1831 4219 
Q 1534 4219 1204 4116 
Q 875 4013 500 3803 
L 500 4441 
Q 881 4594 1212 4672 
Q 1544 4750 1819 4750 
Q 2544 4750 2975 4387 
Q 3406 4025 3406 3419 
Q 3406 3131 3298 2873 
Q 3191 2616 2906 2266 
Q 2828 2175 2409 1742 
Q 1991 1309 1228 531 
z
" transform="scale(0.015625)"/>
       </defs>
       <use xlink:href="#DejaVuSans-32"/>
       <use xlink:href="#DejaVuSans-30" transform="translate(63.623047 0)"/>
      </g>
     </g>
    </g>
    <g id="xtick_3">
     <g id="line2d_3">
      <g>
       <use xlink:href="#m0d03fbed4c" x="205.006281" y="307.584" style="stroke: #000000; stroke-width: 0.8"/>
      </g>
     </g>
     <g id="text_3">
      <!-- 40 -->
      <g transform="translate(198.643781 322.182437) scale(0.1 -0.1)">
       <defs>
        <path id="DejaVuSans-34" d="M 2419 4116 
L 825 1625 
L 2419 1625 
L 2419 4116 
z
M 2253 4666 
L 3047 4666 
L 3047 1625 
L 3713 1625 
L 3713 1100 
L 3047 1100 
L 3047 0 
L 2419 0 
L 2419 1100 
L 313 1100 
L 313 1709 
L 2253 4666 
z
" transform="scale(0.015625)"/>
       </defs>
       <use xlink:href="#DejaVuSans-34"/>
       <use xlink:href="#DejaVuSans-30" transform="translate(63.623047 0)"/>
      </g>
     </g>
    </g>
    <g id="xtick_4">
     <g id="line2d_4">
      <g>
       <use xlink:href="#m0d03fbed4c" x="270.593058" y="307.584" style="stroke: #000000; stroke-width: 0.8"/>
      </g>
     </g>
     <g id="text_4">
      <!-- 60 -->
      <g transform="translate(264.230558 322.182437) scale(0.1 -0.1)">
       <defs>
        <path id="DejaVuSans-36" d="M 2113 2584 
Q 1688 2584 1439 2293 
Q 1191 2003 1191 1497 
Q 1191 994 1439 701 
Q 1688 409 2113 409 
Q 2538 409 2786 701 
Q 3034 994 3034 1497 
Q 3034 2003 2786 2293 
Q 2538 2584 2113 2584 
z
M 3366 4563 
L 3366 3988 
Q 3128 4100 2886 4159 
Q 2644 4219 2406 4219 
Q 1781 4219 1451 3797 
Q 1122 3375 1075 2522 
Q 1259 2794 1537 2939 
Q 1816 3084 2150 3084 
Q 2853 3084 3261 2657 
Q 3669 2231 3669 1497 
Q 3669 778 3244 343 
Q 2819 -91 2113 -91 
Q 1303 -91 875 529 
Q 447 1150 447 2328 
Q 447 3434 972 4092 
Q 1497 4750 2381 4750 
Q 2619 4750 2861 4703 
Q 3103 4656 3366 4563 
z
" transform="scale(0.015625)"/>
       </defs>
       <use xlink:href="#DejaVuSans-36"/>
       <use xlink:href="#DejaVuSans-30" transform="translate(63.623047 0)"/>
      </g>
     </g>
    </g>
    <g id="xtick_5">
     <g id="line2d_5">
      <g>
       <use xlink:href="#m0d03fbed4c" x="336.179835" y="307.584" style="stroke: #000000; stroke-width: 0.8"/>
      </g>
     </g>
     <g id="text_5">
      <!-- 80 -->
      <g transform="translate(329.817335 322.182437) scale(0.1 -0.1)">
       <defs>
        <path id="DejaVuSans-38" d="M 2034 2216 
Q 1584 2216 1326 1975 
Q 1069 1734 1069 1313 
Q 1069 891 1326 650 
Q 1584 409 2034 409 
Q 2484 409 2743 651 
Q 3003 894 3003 1313 
Q 3003 1734 2745 1975 
Q 2488 2216 2034 2216 
z
M 1403 2484 
Q 997 2584 770 2862 
Q 544 3141 544 3541 
Q 544 4100 942 4425 
Q 1341 4750 2034 4750 
Q 2731 4750 3128 4425 
Q 3525 4100 3525 3541 
Q 3525 3141 3298 2862 
Q 3072 2584 2669 2484 
Q 3125 2378 3379 2068 
Q 3634 1759 3634 1313 
Q 3634 634 3220 271 
Q 2806 -91 2034 -91 
Q 1263 -91 848 271 
Q 434 634 434 1313 
Q 434 1759 690 2068 
Q 947 2378 1403 2484 
z
M 1172 3481 
Q 1172 3119 1398 2916 
Q 1625 2713 2034 2713 
Q 2441 2713 2670 2916 
Q 2900 3119 2900 3481 
Q 2900 3844 2670 4047 
Q 2441 4250 2034 4250 
Q 1625 4250 1398 4047 
Q 1172 3844 1172 3481 
z
" transform="scale(0.015625)"/>
       </defs>
       <use xlink:href="#DejaVuSans-38"/>
       <use xlink:href="#DejaVuSans-30" transform="translate(63.623047 0)"/>
      </g>
     </g>
    </g>
    <g id="xtick_6">
     <g id="line2d_6">
      <g>
       <use xlink:href="#m0d03fbed4c" x="401.766612" y="307.584" style="stroke: #000000; stroke-width: 0.8"/>
      </g>
     </g>
     <g id="text_6">
      <!-- 100 -->
      <g transform="translate(392.222862 322.182437) scale(0.1 -0.1)">
       <defs>
        <path id="DejaVuSans-31" d="M 794 531 
L 1825 531 
L 1825 4091 
L 703 3866 
L 703 4441 
L 1819 4666 
L 2450 4666 
L 2450 531 
L 3481 531 
L 3481 0 
L 794 0 
L 794 531 
z
" transform="scale(0.015625)"/>
       </defs>
       <use xlink:href="#DejaVuSans-31"/>
       <use xlink:href="#DejaVuSans-30" transform="translate(63.623047 0)"/>
       <use xlink:href="#DejaVuSans-30" transform="translate(127.246094 0)"/>
      </g>
     </g>
    </g>
    <g id="text_7">
     <!-- time -->
     <g transform="translate(224.863906 335.860562) scale(0.1 -0.1)">
      <defs>
       <path id="DejaVuSans-74" d="M 1172 4494 
L 1172 3500 
L 2356 3500 
L 2356 3053 
L 1172 3053 
L 1172 1153 
Q 1172 725 1289 603 
Q 1406 481 1766 481 
L 2356 481 
L 2356 0 
L 1766 0 
Q 1100 0 847 248 
Q 594 497 594 1153 
L 594 3053 
L 172 3053 
L 172 3500 
L 594 3500 
L 594 4494 
L 1172 4494 
z
" transform="scale(0.015625)"/>
       <path id="DejaVuSans-69" d="M 603 3500 
L 1178 3500 
L 1178 0 
L 603 0 
L 603 3500 
z
M 603 4863 
L 1178 4863 
L 1178 4134 
L 603 4134 
L 603 4863 
z
" transform="scale(0.015625)"/>
       <path id="DejaVuSans-6d" d="M 3328 2828 
Q 3544 3216 3844 3400 
Q 4144 3584 4550 3584 
Q 5097 3584 5394 3201 
Q 5691 2819 5691 2113 
L 5691 0 
L 5113 0 
L 5113 2094 
Q 5113 2597 4934 2840 
Q 4756 3084 4391 3084 
Q 3944 3084 3684 2787 
Q 3425 2491 3425 1978 
L 3425 0 
L 2847 0 
L 2847 2094 
Q 2847 2600 2669 2842 
Q 2491 3084 2119 3084 
Q 1678 3084 1418 2786 
Q 1159 2488 1159 1978 
L 1159 0 
L 581 0 
L 581 3500 
L 1159 3500 
L 1159 2956 
Q 1356 3278 1631 3431 
Q 1906 3584 2284 3584 
Q 2666 3584 2933 3390 
Q 3200 3197 3328 2828 
z
" transform="scale(0.015625)"/>
       <path id="DejaVuSans-65" d="M 3597 1894 
L 3597 1613 
L 953 1613 
Q 991 1019 1311 708 
Q 1631 397 2203 397 
Q 2534 397 2845 478 
Q 3156 559 3463 722 
L 3463 178 
Q 3153 47 2828 -22 
Q 2503 -91 2169 -91 
Q 1331 -91 842 396 
Q 353 884 353 1716 
Q 353 2575 817 3079 
Q 1281 3584 2069 3584 
Q 2775 3584 3186 3129 
Q 3597 2675 3597 1894 
z
M 3022 2063 
Q 3016 2534 2758 2815 
Q 2500 3097 2075 3097 
Q 1594 3097 1305 2825 
Q 1016 2553 972 2059 
L 3022 2063 
z
" transform="scale(0.015625)"/>
      </defs>
      <use xlink:href="#DejaVuSans-74"/>
      <use xlink:href="#DejaVuSans-69" transform="translate(39.208984 0)"/>
      <use xlink:href="#DejaVuSans-6d" transform="translate(66.992188 0)"/>
      <use xlink:href="#DejaVuSans-65" transform="translate(164.404297 0)"/>
     </g>
    </g>
   </g>
   <g id="matplotlib.axis_2">
    <g id="ytick_1">
     <g id="line2d_7">
      <defs>
       <path id="md38693ad85" d="M 0 0 
L -3.5 0 
" style="stroke: #000000; stroke-width: 0.8"/>
      </defs>
      <g>
       <use xlink:href="#md38693ad85" x="57.6" y="295.488" style="stroke: #000000; stroke-width: 0.8"/>
      </g>
     </g>
     <g id="text_8">
      <!-- 0.000 -->
      <g transform="translate(21.971875 299.287219) scale(0.1 -0.1)">
       <defs>
        <path id="DejaVuSans-2e" d="M 684 794 
L 1344 794 
L 1344 0 
L 684 0 
L 684 794 
z
" transform="scale(0.015625)"/>
       </defs>
       <use xlink:href="#DejaVuSans-30"/>
       <use xlink:href="#DejaVuSans-2e" transform="translate(63.623047 0)"/>
       <use xlink:href="#DejaVuSans-30" transform="translate(95.410156 0)"/>
       <use xlink:href="#DejaVuSans-30" transform="translate(159.033203 0)"/>
       <use xlink:href="#DejaVuSans-30" transform="translate(222.65625 0)"/>
      </g>
     </g>
    </g>
    <g id="ytick_2">
     <g id="line2d_8">
      <g>
       <use xlink:href="#md38693ad85" x="57.6" y="265.248" style="stroke: #000000; stroke-width: 0.8"/>
      </g>
     </g>
     <g id="text_9">
      <!-- 0.025 -->
      <g transform="translate(21.971875 269.047219) scale(0.1 -0.1)">
       <defs>
        <path id="DejaVuSans-35" d="M 691 4666 
L 3169 4666 
L 3169 4134 
L 1269 4134 
L 1269 2991 
Q 1406 3038 1543 3061 
Q 1681 3084 1819 3084 
Q 2600 3084 3056 2656 
Q 3513 2228 3513 1497 
Q 3513 744 3044 326 
Q 2575 -91 1722 -91 
Q 1428 -91 1123 -41 
Q 819 9 494 109 
L 494 744 
Q 775 591 1075 516 
Q 1375 441 1709 441 
Q 2250 441 2565 725 
Q 2881 1009 2881 1497 
Q 2881 1984 2565 2268 
Q 2250 2553 1709 2553 
Q 1456 2553 1204 2497 
Q 953 2441 691 2322 
L 691 4666 
z
" transform="scale(0.015625)"/>
       </defs>
       <use xlink:href="#DejaVuSans-30"/>
       <use xlink:href="#DejaVuSans-2e" transform="translate(63.623047 0)"/>
       <use xlink:href="#DejaVuSans-30" transform="translate(95.410156 0)"/>
       <use xlink:href="#DejaVuSans-32" transform="translate(159.033203 0)"/>
       <use xlink:href="#DejaVuSans-35" transform="translate(222.65625 0)"/>
      </g>
     </g>
    </g>
    <g id="ytick_3">
     <g id="line2d_9">
      <g>
       <use xlink:href="#md38693ad85" x="57.6" y="235.008" style="stroke: #000000; stroke-width: 0.8"/>
      </g>
     </g>
     <g id="text_10">
      <!-- 0.050 -->
      <g transform="translate(21.971875 238.807219) scale(0.1 -0.1)">
       <use xlink:href="#DejaVuSans-30"/>
       <use xlink:href="#DejaVuSans-2e" transform="translate(63.623047 0)"/>
       <use xlink:href="#DejaVuSans-30" transform="translate(95.410156 0)"/>
       <use xlink:href="#DejaVuSans-35" transform="translate(159.033203 0)"/>
       <use xlink:href="#DejaVuSans-30" transform="translate(222.65625 0)"/>
      </g>
     </g>
    </g>
    <g id="ytick_4">
     <g id="line2d_10">
      <g>
       <use xlink:href="#md38693ad85" x="57.6" y="204.768" style="stroke: #000000; stroke-width: 0.8"/>
      </g>
     </g>
     <g id="text_11">
      <!-- 0.075 -->
      <g transform="translate(21.971875 208.567219) scale(0.1 -0.1)">
       <defs>
        <path id="DejaVuSans-37" d="M 525 4666 
L 3525 4666 
L 3525 4397 
L 1831 0 
L 1172 0 
L 2766 4134 
L 525 4134 
L 525 4666 
z
" transform="scale(0.015625)"/>
       </defs>
       <use xlink:href="#DejaVuSans-30"/>
       <use xlink:href="#DejaVuSans-2e" transform="translate(63.623047 0)"/>
       <use xlink:href="#DejaVuSans-30" transform="translate(95.410156 0)"/>
       <use xlink:href="#DejaVuSans-37" transform="translate(159.033203 0)"/>
       <use xlink:href="#DejaVuSans-35" transform="translate(222.65625 0)"/>
      </g>
     </g>
    </g>
    <g id="ytick_5">
     <g id="line2d_11">
      <g>
       <use xlink:href="#md38693ad85" x="57.6" y="174.528" style="stroke: #000000; stroke-width: 0.8"/>
      </g>
     </g>
     <g id="text_12">
      <!-- 0.100 -->
      <g transform="translate(21.971875 178.327219) scale(0.1 -0.1)">
       <use xlink:href="#DejaVuSans-30"/>
       <use xlink:href="#DejaVuSans-2e" transform="translate(63.623047 0)"/>
       <use xlink:href="#DejaVuSans-31" transform="translate(95.410156 0)"/>
       <use xlink:href="#DejaVuSans-30" transform="translate(159.033203 0)"/>
       <use xlink:href="#DejaVuSans-30" transform="translate(222.65625 0)"/>
      </g>
     </g>
    </g>
    <g id="ytick_6">
     <g id="line2d_12">
      <g>
       <use xlink:href="#md38693ad85" x="57.6" y="144.288" style="stroke: #000000; stroke-width: 0.8"/>
      </g>
     </g>
     <g id="text_13">
      <!-- 0.125 -->
      <g transform="translate(21.971875 148.087219) scale(0.1 -0.1)">
       <use xlink:href="#DejaVuSans-30"/>
       <use xlink:href="#DejaVuSans-2e" transform="translate(63.623047 0)"/>
       <use xlink:href="#DejaVuSans-31" transform="translate(95.410156 0)"/>
       <use xlink:href="#DejaVuSans-32" transform="translate(159.033203 0)"/>
       <use xlink:href="#DejaVuSans-35" transform="translate(222.65625 0)"/>
      </g>
     </g>
    </g>
    <g id="ytick_7">
     <g id="line2d_13">
      <g>
       <use xlink:href="#md38693ad85" x="57.6" y="114.048" style="stroke: #000000; stroke-width: 0.8"/>
      </g>
     </g>
     <g id="text_14">
      <!-- 0.150 -->
      <g transform="translate(21.971875 117.847219) scale(0.1 -0.1)">
       <use xlink:href="#DejaVuSans-30"/>
       <use xlink:href="#DejaVuSans-2e" transform="translate(63.623047 0)"/>
       <use xlink:href="#DejaVuSans-31" transform="translate(95.410156 0)"/>
       <use xlink:href="#DejaVuSans-35" transform="translate(159.033203 0)"/>
       <use xlink:href="#DejaVuSans-30" transform="translate(222.65625 0)"/>
      </g>
     </g>
    </g>
    <g id="ytick_8">
     <g id="line2d_14">
      <g>
       <use xlink:href="#md38693ad85" x="57.6" y="83.808" style="stroke: #000000; stroke-width: 0.8"/>
      </g>
     </g>
     <g id="text_15">
      <!-- 0.175 -->
      <g transform="translate(21.971875 87.607219) scale(0.1 -0.1)">
       <use xlink:href="#DejaVuSans-30"/>
       <use xlink:href="#DejaVuSans-2e" transform="translate(63.623047 0)"/>
       <use xlink:href="#DejaVuSans-31" transform="translate(95.410156 0)"/>
       <use xlink:href="#DejaVuSans-37" transform="translate(159.033203 0)"/>
       <use xlink:href="#DejaVuSans-35" transform="translate(222.65625 0)"/>
      </g>
     </g>
    </g>
    <g id="ytick_9">
     <g id="line2d_15">
      <g>
       <use xlink:href="#md38693ad85" x="57.6" y="53.568" style="stroke: #000000; stroke-width: 0.8"/>
      </g>
     </g>
     <g id="text_16">
      <!-- 0.200 -->
      <g transform="translate(21.971875 57.367219) scale(0.1 -0.1)">
       <use xlink:href="#DejaVuSans-30"/>
       <use xlink:href="#DejaVuSans-2e" transform="translate(63.623047 0)"/>
       <use xlink:href="#DejaVuSans-32" transform="translate(95.410156 0)"/>
       <use xlink:href="#DejaVuSans-30" transform="translate(159.033203 0)"/>
       <use xlink:href="#DejaVuSans-30" transform="translate(222.65625 0)"/>
      </g>
     </g>
    </g>
    <g id="text_17">
     <!-- weight -->
     <g transform="translate(15.892187 191.385812) rotate(-90) scale(0.1 -0.1)">
      <defs>
       <path id="DejaVuSans-77" d="M 269 3500 
L 844 3500 
L 1563 769 
L 2278 3500 
L 2956 3500 
L 3675 769 
L 4391 3500 
L 4966 3500 
L 4050 0 
L 3372 0 
L 2619 2869 
L 1863 0 
L 1184 0 
L 269 3500 
z
" transform="scale(0.015625)"/>
       <path id="DejaVuSans-67" d="M 2906 1791 
Q 2906 2416 2648 2759 
Q 2391 3103 1925 3103 
Q 1463 3103 1205 2759 
Q 947 2416 947 1791 
Q 947 1169 1205 825 
Q 1463 481 1925 481 
Q 2391 481 2648 825 
Q 2906 1169 2906 1791 
z
M 3481 434 
Q 3481 -459 3084 -895 
Q 2688 -1331 1869 -1331 
Q 1566 -1331 1297 -1286 
Q 1028 -1241 775 -1147 
L 775 -588 
Q 1028 -725 1275 -790 
Q 1522 -856 1778 -856 
Q 2344 -856 2625 -561 
Q 2906 -266 2906 331 
L 2906 616 
Q 2728 306 2450 153 
Q 2172 0 1784 0 
Q 1141 0 747 490 
Q 353 981 353 1791 
Q 353 2603 747 3093 
Q 1141 3584 1784 3584 
Q 2172 3584 2450 3431 
Q 2728 3278 2906 2969 
L 2906 3500 
L 3481 3500 
L 3481 434 
z
" transform="scale(0.015625)"/>
       <path id="DejaVuSans-68" d="M 3513 2113 
L 3513 0 
L 2938 0 
L 2938 2094 
Q 2938 2591 2744 2837 
Q 2550 3084 2163 3084 
Q 1697 3084 1428 2787 
Q 1159 2491 1159 1978 
L 1159 0 
L 581 0 
L 581 4863 
L 1159 4863 
L 1159 2956 
Q 1366 3272 1645 3428 
Q 1925 3584 2291 3584 
Q 2894 3584 3203 3211 
Q 3513 2838 3513 2113 
z
" transform="scale(0.015625)"/>
      </defs>
      <use xlink:href="#DejaVuSans-77"/>
      <use xlink:href="#DejaVuSans-65" transform="translate(81.787109 0)"/>
      <use xlink:href="#DejaVuSans-69" transform="translate(143.310547 0)"/>
      <use xlink:href="#DejaVuSans-67" transform="translate(171.09375 0)"/>
      <use xlink:href="#DejaVuSans-68" transform="translate(234.570312 0)"/>
      <use xlink:href="#DejaVuSans-74" transform="translate(297.949219 0)"/>
     </g>
    </g>
   </g>
   <g id="line2d_16">
    <path d="M 73.832727 271.296 
L 77.112066 271.77984 
L 80.391405 272.254003 
L 83.670744 272.718683 
L 86.950083 273.17407 
L 90.229421 273.620348 
L 93.50876 274.057701 
L 96.788099 274.486307 
L 100.067438 274.906341 
L 103.346777 275.317974 
L 106.626116 275.721375 
L 109.905455 276.116707 
L 113.184793 276.504133 
L 116.464132 276.88381 
L 119.743471 277.255894 
L 123.02281 277.620536 
L 126.302149 277.977886 
L 129.581488 278.328088 
L 132.860826 278.671286 
L 136.140165 279.00762 
L 139.419504 279.337228 
L 142.698843 279.660243 
L 145.978182 279.976799 
L 149.257521 280.287023 
L 152.53686 280.591042 
L 155.816198 280.888981 
L 159.095537 281.180962 
L 162.374876 281.467102 
L 165.654215 281.74752 
L 168.933554 282.02233 
L 172.212893 282.291643 
L 175.492231 282.555571 
L 178.77157 282.814219 
L 182.050909 283.067695 
L 185.330248 283.316101 
L 188.609587 283.559539 
L 191.888926 283.798108 
L 195.168264 284.031906 
L 198.447603 284.261028 
L 201.726942 284.485567 
L 205.006281 284.705616 
L 208.28562 284.921264 
L 211.564959 285.132598 
L 214.844298 285.339706 
L 218.123636 285.542672 
L 221.402975 285.741579 
L 224.682314 285.936507 
L 227.961653 286.127537 
L 231.240992 286.314746 
L 234.520331 286.498211 
L 237.799669 286.678007 
L 241.079008 286.854207 
L 244.358347 287.026883 
L 247.637686 287.196105 
L 250.917025 287.361943 
L 254.196364 287.524464 
L 257.475702 287.683735 
L 260.755041 287.83982 
L 264.03438 287.992784 
L 267.313719 288.142688 
L 270.593058 288.289594 
L 273.872397 288.433563 
L 277.151736 288.574651 
L 280.431074 288.712918 
L 283.710413 288.84842 
L 286.989752 288.981212 
L 290.269091 289.111347 
L 293.54843 289.23888 
L 296.827769 289.363863 
L 300.107107 289.486345 
L 303.386446 289.606379 
L 306.665785 289.724011 
L 309.945124 289.839291 
L 313.224463 289.952265 
L 316.503802 290.06298 
L 319.78314 290.17148 
L 323.062479 290.27781 
L 326.341818 290.382014 
L 329.621157 290.484134 
L 332.900496 290.584211 
L 336.179835 290.682287 
L 339.459174 290.778401 
L 342.738512 290.872593 
L 346.017851 290.964901 
L 349.29719 291.055363 
L 352.576529 291.144016 
L 355.855868 291.230896 
L 359.135207 291.316038 
L 362.414545 291.399477 
L 365.693884 291.481248 
L 368.973223 291.561383 
L 372.252562 291.639915 
L 375.531901 291.716877 
L 378.81124 291.792299 
L 382.090579 291.866213 
L 385.369917 291.938649 
L 388.649256 292.009636 
L 391.928595 292.079203 
L 395.207934 292.147379 
L 398.487273 292.214192 
" clip-path="url(#p6af49740a3)" style="fill: none; stroke: #1f77b4; stroke-width: 1.5; stroke-linecap: square"/>
   </g>
   <g id="line2d_17">
    <path d="M 73.832727 235.008 
L 77.112066 238.032 
L 80.391405 240.9048 
L 83.670744 243.63396 
L 86.950083 246.226662 
L 90.229421 248.689729 
L 93.50876 251.029643 
L 96.788099 253.25256 
L 100.067438 255.364332 
L 103.346777 257.370516 
L 106.626116 259.27639 
L 109.905455 261.08697 
L 113.184793 262.807022 
L 116.464132 264.441071 
L 119.743471 265.993417 
L 123.02281 267.468146 
L 126.302149 268.869139 
L 129.581488 270.200082 
L 132.860826 271.464478 
L 136.140165 272.665654 
L 139.419504 273.806771 
L 142.698843 274.890833 
L 145.978182 275.920691 
L 149.257521 276.899057 
L 152.53686 277.828504 
L 155.816198 278.711479 
L 159.095537 279.550305 
L 162.374876 280.34719 
L 165.654215 281.10423 
L 168.933554 281.823419 
L 172.212893 282.506648 
L 175.492231 283.155715 
L 178.77157 283.772329 
L 182.050909 284.358113 
L 185.330248 284.914607 
L 188.609587 285.443277 
L 191.888926 285.945513 
L 195.168264 286.422637 
L 198.447603 286.875906 
L 201.726942 287.30651 
L 205.006281 287.715585 
L 208.28562 288.104206 
L 211.564959 288.473395 
L 214.844298 288.824126 
L 218.123636 289.157319 
L 221.402975 289.473853 
L 224.682314 289.774561 
L 227.961653 290.060233 
L 231.240992 290.331621 
L 234.520331 290.58944 
L 237.799669 290.834368 
L 241.079008 291.06705 
L 244.358347 291.288097 
L 247.637686 291.498092 
L 250.917025 291.697588 
L 254.196364 291.887108 
L 257.475702 292.067153 
L 260.755041 292.238195 
L 264.03438 292.400685 
L 267.313719 292.555051 
L 270.593058 292.701699 
L 273.872397 292.841014 
L 277.151736 292.973363 
L 280.431074 293.099095 
L 283.710413 293.21854 
L 286.989752 293.332013 
L 290.269091 293.439812 
L 293.54843 293.542222 
L 296.827769 293.639511 
L 300.107107 293.731935 
L 303.386446 293.819738 
L 306.665785 293.903152 
L 309.945124 293.982394 
L 313.224463 294.057674 
L 316.503802 294.129191 
L 319.78314 294.197131 
L 323.062479 294.261674 
L 326.341818 294.322991 
L 329.621157 294.381241 
L 332.900496 294.436579 
L 336.179835 294.48915 
L 339.459174 294.539093 
L 342.738512 294.586538 
L 346.017851 294.631611 
L 349.29719 294.674431 
L 352.576529 294.715109 
L 355.855868 294.753754 
L 359.135207 294.790466 
L 362.414545 294.825343 
L 365.693884 294.858476 
L 368.973223 294.889952 
L 372.252562 294.919854 
L 375.531901 294.948261 
L 378.81124 294.975248 
L 382.090579 295.000886 
L 385.369917 295.025242 
L 388.649256 295.04838 
L 391.928595 295.070361 
L 395.207934 295.091243 
L 398.487273 295.11108 
" clip-path="url(#p6af49740a3)" style="fill: none; stroke: #ff7f0e; stroke-width: 1.5; stroke-linecap: square"/>
   </g>
   <g id="line2d_18">
    <path d="M 73.832727 174.528 
L 77.112066 186.624 
L 80.391405 197.5104 
L 83.670744 207.30816 
L 86.950083 216.126144 
L 90.229421 224.06233 
L 93.50876 231.204897 
L 96.788099 237.633207 
L 100.067438 243.418686 
L 103.346777 248.625618 
L 106.626116 253.311856 
L 109.905455 257.52947 
L 113.184793 261.325323 
L 116.464132 264.741591 
L 119.743471 267.816232 
L 123.02281 270.583409 
L 126.302149 273.073868 
L 129.581488 275.315281 
L 132.860826 277.332553 
L 136.140165 279.148098 
L 139.419504 280.782088 
L 142.698843 282.252679 
L 145.978182 283.576211 
L 149.257521 284.76739 
L 152.53686 285.839451 
L 155.816198 286.804306 
L 159.095537 287.672675 
L 162.374876 288.454208 
L 165.654215 289.157587 
L 168.933554 289.790628 
L 172.212893 290.360366 
L 175.492231 290.873129 
L 178.77157 291.334616 
L 182.050909 291.749955 
L 185.330248 292.123759 
L 188.609587 292.460183 
L 191.888926 292.762965 
L 195.168264 293.035468 
L 198.447603 293.280722 
L 201.726942 293.501449 
L 205.006281 293.700104 
L 208.28562 293.878894 
L 211.564959 294.039805 
L 214.844298 294.184624 
L 218.123636 294.314962 
L 221.402975 294.432266 
L 224.682314 294.537839 
L 227.961653 294.632855 
L 231.240992 294.71837 
L 234.520331 294.795333 
L 237.799669 294.864599 
L 241.079008 294.926939 
L 244.358347 294.983046 
L 247.637686 295.033541 
L 250.917025 295.078987 
L 254.196364 295.119888 
L 257.475702 295.156699 
L 260.755041 295.189829 
L 264.03438 295.219647 
L 267.313719 295.246482 
L 270.593058 295.270634 
L 273.872397 295.29237 
L 277.151736 295.311933 
L 280.431074 295.32954 
L 283.710413 295.345386 
L 286.989752 295.359647 
L 290.269091 295.372483 
L 293.54843 295.384034 
L 296.827769 295.394431 
L 300.107107 295.403788 
L 303.386446 295.412209 
L 306.665785 295.419788 
L 309.945124 295.426609 
L 313.224463 295.432748 
L 316.503802 295.438274 
L 319.78314 295.443246 
L 323.062479 295.447722 
L 326.341818 295.451749 
L 329.621157 295.455375 
L 332.900496 295.458637 
L 336.179835 295.461573 
L 339.459174 295.464216 
L 342.738512 295.466594 
L 346.017851 295.468735 
L 349.29719 295.470662 
L 352.576529 295.472395 
L 355.855868 295.473956 
L 359.135207 295.47536 
L 362.414545 295.476624 
L 365.693884 295.477762 
L 368.973223 295.478786 
L 372.252562 295.479707 
L 375.531901 295.480536 
L 378.81124 295.481283 
L 382.090579 295.481954 
L 385.369917 295.482559 
L 388.649256 295.483103 
L 391.928595 295.483593 
L 395.207934 295.484034 
L 398.487273 295.48443 
" clip-path="url(#p6af49740a3)" style="fill: none; stroke: #2ca02c; stroke-width: 1.5; stroke-linecap: square"/>
   </g>
   <g id="line2d_19">
    <path d="M 73.832727 53.568 
L 77.112066 101.952 
L 80.391405 140.6592 
L 83.670744 171.62496 
L 86.950083 196.397568 
L 90.229421 216.215654 
L 93.50876 232.070124 
L 96.788099 244.753699 
L 100.067438 254.900559 
L 103.346777 263.018047 
L 106.626116 269.512038 
L 109.905455 274.70723 
L 113.184793 278.863384 
L 116.464132 282.188307 
L 119.743471 284.848246 
L 123.02281 286.976197 
L 126.302149 288.678557 
L 129.581488 290.040446 
L 132.860826 291.129957 
L 136.140165 292.001565 
L 139.419504 292.698852 
L 142.698843 293.256682 
L 145.978182 293.702946 
L 149.257521 294.059956 
L 152.53686 294.345565 
L 155.816198 294.574052 
L 159.095537 294.756842 
L 162.374876 294.903073 
L 165.654215 295.020059 
L 168.933554 295.113647 
L 172.212893 295.188518 
L 175.492231 295.248414 
L 178.77157 295.296331 
L 182.050909 295.334665 
L 185.330248 295.365332 
L 188.609587 295.389866 
L 191.888926 295.409493 
L 195.168264 295.425194 
L 198.447603 295.437755 
L 201.726942 295.447804 
L 205.006281 295.455843 
L 208.28562 295.462275 
L 211.564959 295.46742 
L 214.844298 295.471536 
L 218.123636 295.474829 
L 221.402975 295.477463 
L 224.682314 295.47957 
L 227.961653 295.481256 
L 231.240992 295.482605 
L 234.520331 295.483684 
L 237.799669 295.484547 
L 241.079008 295.485238 
L 244.358347 295.48579 
L 247.637686 295.486232 
L 250.917025 295.486586 
L 254.196364 295.486869 
L 257.475702 295.487095 
L 260.755041 295.487276 
L 264.03438 295.487421 
L 267.313719 295.487537 
L 270.593058 295.487629 
L 273.872397 295.487703 
L 277.151736 295.487763 
L 280.431074 295.48781 
L 283.710413 295.487848 
L 286.989752 295.487879 
L 290.269091 295.487903 
L 293.54843 295.487922 
L 296.827769 295.487938 
L 300.107107 295.48795 
L 303.386446 295.48796 
L 306.665785 295.487968 
L 309.945124 295.487975 
L 313.224463 295.48798 
L 316.503802 295.487984 
L 319.78314 295.487987 
L 323.062479 295.48799 
L 326.341818 295.487992 
L 329.621157 295.487993 
L 332.900496 295.487995 
L 336.179835 295.487996 
L 339.459174 295.487997 
L 342.738512 295.487997 
L 346.017851 295.487998 
L 349.29719 295.487998 
L 352.576529 295.487999 
L 355.855868 295.487999 
L 359.135207 295.487999 
L 362.414545 295.487999 
L 365.693884 295.487999 
L 368.973223 295.488 
L 372.252562 295.488 
L 375.531901 295.488 
L 378.81124 295.488 
L 382.090579 295.488 
L 385.369917 295.488 
L 388.649256 295.488 
L 391.928595 295.488 
L 395.207934 295.488 
L 398.487273 295.488 
" clip-path="url(#p6af49740a3)" style="fill: none; stroke: #d62728; stroke-width: 1.5; stroke-linecap: square"/>
   </g>
   <g id="patch_3">
    <path d="M 57.6 307.584 
L 57.6 41.472 
" style="fill: none; stroke: #000000; stroke-width: 0.8; stroke-linejoin: miter; stroke-linecap: square"/>
   </g>
   <g id="patch_4">
    <path d="M 414.72 307.584 
L 414.72 41.472 
" style="fill: none; stroke: #000000; stroke-width: 0.8; stroke-linejoin: miter; stroke-linecap: square"/>
   </g>
   <g id="patch_5">
    <path d="M 57.6 307.584 
L 414.72 307.584 
" style="fill: none; stroke: #000000; stroke-width: 0.8; stroke-linejoin: miter; stroke-linecap: square"/>
   </g>
   <g id="patch_6">
    <path d="M 57.6 41.472 
L 414.72 41.472 
" style="fill: none; stroke: #000000; stroke-width: 0.8; stroke-linejoin: miter; stroke-linecap: square"/>
   </g>
   <g id="legend_1">
    <g id="patch_7">
     <path d="M 323.845 108.1845 
L 407.72 108.1845 
Q 409.72 108.1845 409.72 106.1845 
L 409.72 48.472 
Q 409.72 46.472 407.72 46.472 
L 323.845 46.472 
Q 321.845 46.472 321.845 48.472 
L 321.845 106.1845 
Q 321.845 108.1845 323.845 108.1845 
z
" style="fill: #ffffff; opacity: 0.8; stroke: #cccccc; stroke-linejoin: miter"/>
    </g>
    <g id="line2d_20">
     <path d="M 325.845 54.570438 
L 335.845 54.570438 
L 345.845 54.570438 
" style="fill: none; stroke: #1f77b4; stroke-width: 1.5; stroke-linecap: square"/>
    </g>
    <g id="text_18">
     <!-- Beta: 0.98 -->
     <g transform="translate(353.845 58.070438) scale(0.1 -0.1)">
      <defs>
       <path id="DejaVuSans-42" d="M 1259 2228 
L 1259 519 
L 2272 519 
Q 2781 519 3026 730 
Q 3272 941 3272 1375 
Q 3272 1813 3026 2020 
Q 2781 2228 2272 2228 
L 1259 2228 
z
M 1259 4147 
L 1259 2741 
L 2194 2741 
Q 2656 2741 2882 2914 
Q 3109 3088 3109 3444 
Q 3109 3797 2882 3972 
Q 2656 4147 2194 4147 
L 1259 4147 
z
M 628 4666 
L 2241 4666 
Q 2963 4666 3353 4366 
Q 3744 4066 3744 3513 
Q 3744 3084 3544 2831 
Q 3344 2578 2956 2516 
Q 3422 2416 3680 2098 
Q 3938 1781 3938 1306 
Q 3938 681 3513 340 
Q 3088 0 2303 0 
L 628 0 
L 628 4666 
z
" transform="scale(0.015625)"/>
       <path id="DejaVuSans-61" d="M 2194 1759 
Q 1497 1759 1228 1600 
Q 959 1441 959 1056 
Q 959 750 1161 570 
Q 1363 391 1709 391 
Q 2188 391 2477 730 
Q 2766 1069 2766 1631 
L 2766 1759 
L 2194 1759 
z
M 3341 1997 
L 3341 0 
L 2766 0 
L 2766 531 
Q 2569 213 2275 61 
Q 1981 -91 1556 -91 
Q 1019 -91 701 211 
Q 384 513 384 1019 
Q 384 1609 779 1909 
Q 1175 2209 1959 2209 
L 2766 2209 
L 2766 2266 
Q 2766 2663 2505 2880 
Q 2244 3097 1772 3097 
Q 1472 3097 1187 3025 
Q 903 2953 641 2809 
L 641 3341 
Q 956 3463 1253 3523 
Q 1550 3584 1831 3584 
Q 2591 3584 2966 3190 
Q 3341 2797 3341 1997 
z
" transform="scale(0.015625)"/>
       <path id="DejaVuSans-3a" d="M 750 794 
L 1409 794 
L 1409 0 
L 750 0 
L 750 794 
z
M 750 3309 
L 1409 3309 
L 1409 2516 
L 750 2516 
L 750 3309 
z
" transform="scale(0.015625)"/>
       <path id="DejaVuSans-20" transform="scale(0.015625)"/>
       <path id="DejaVuSans-39" d="M 703 97 
L 703 672 
Q 941 559 1184 500 
Q 1428 441 1663 441 
Q 2288 441 2617 861 
Q 2947 1281 2994 2138 
Q 2813 1869 2534 1725 
Q 2256 1581 1919 1581 
Q 1219 1581 811 2004 
Q 403 2428 403 3163 
Q 403 3881 828 4315 
Q 1253 4750 1959 4750 
Q 2769 4750 3195 4129 
Q 3622 3509 3622 2328 
Q 3622 1225 3098 567 
Q 2575 -91 1691 -91 
Q 1453 -91 1209 -44 
Q 966 3 703 97 
z
M 1959 2075 
Q 2384 2075 2632 2365 
Q 2881 2656 2881 3163 
Q 2881 3666 2632 3958 
Q 2384 4250 1959 4250 
Q 1534 4250 1286 3958 
Q 1038 3666 1038 3163 
Q 1038 2656 1286 2365 
Q 1534 2075 1959 2075 
z
" transform="scale(0.015625)"/>
      </defs>
      <use xlink:href="#DejaVuSans-42"/>
      <use xlink:href="#DejaVuSans-65" transform="translate(68.603516 0)"/>
      <use xlink:href="#DejaVuSans-74" transform="translate(130.126953 0)"/>
      <use xlink:href="#DejaVuSans-61" transform="translate(169.335938 0)"/>
      <use xlink:href="#DejaVuSans-3a" transform="translate(230.615234 0)"/>
      <use xlink:href="#DejaVuSans-20" transform="translate(264.306641 0)"/>
      <use xlink:href="#DejaVuSans-30" transform="translate(296.09375 0)"/>
      <use xlink:href="#DejaVuSans-2e" transform="translate(359.716797 0)"/>
      <use xlink:href="#DejaVuSans-39" transform="translate(391.503906 0)"/>
      <use xlink:href="#DejaVuSans-38" transform="translate(455.126953 0)"/>
     </g>
    </g>
    <g id="line2d_21">
     <path d="M 325.845 69.248563 
L 335.845 69.248563 
L 345.845 69.248563 
" style="fill: none; stroke: #ff7f0e; stroke-width: 1.5; stroke-linecap: square"/>
    </g>
    <g id="text_19">
     <!-- Beta: 0.95 -->
     <g transform="translate(353.845 72.748563) scale(0.1 -0.1)">
      <use xlink:href="#DejaVuSans-42"/>
      <use xlink:href="#DejaVuSans-65" transform="translate(68.603516 0)"/>
      <use xlink:href="#DejaVuSans-74" transform="translate(130.126953 0)"/>
      <use xlink:href="#DejaVuSans-61" transform="translate(169.335938 0)"/>
      <use xlink:href="#DejaVuSans-3a" transform="translate(230.615234 0)"/>
      <use xlink:href="#DejaVuSans-20" transform="translate(264.306641 0)"/>
      <use xlink:href="#DejaVuSans-30" transform="translate(296.09375 0)"/>
      <use xlink:href="#DejaVuSans-2e" transform="translate(359.716797 0)"/>
      <use xlink:href="#DejaVuSans-39" transform="translate(391.503906 0)"/>
      <use xlink:href="#DejaVuSans-35" transform="translate(455.126953 0)"/>
     </g>
    </g>
    <g id="line2d_22">
     <path d="M 325.845 83.926688 
L 335.845 83.926688 
L 345.845 83.926688 
" style="fill: none; stroke: #2ca02c; stroke-width: 1.5; stroke-linecap: square"/>
    </g>
    <g id="text_20">
     <!-- Beta: 0.9 -->
     <g transform="translate(353.845 87.426688) scale(0.1 -0.1)">
      <use xlink:href="#DejaVuSans-42"/>
      <use xlink:href="#DejaVuSans-65" transform="translate(68.603516 0)"/>
      <use xlink:href="#DejaVuSans-74" transform="translate(130.126953 0)"/>
      <use xlink:href="#DejaVuSans-61" transform="translate(169.335938 0)"/>
      <use xlink:href="#DejaVuSans-3a" transform="translate(230.615234 0)"/>
      <use xlink:href="#DejaVuSans-20" transform="translate(264.306641 0)"/>
      <use xlink:href="#DejaVuSans-30" transform="translate(296.09375 0)"/>
      <use xlink:href="#DejaVuSans-2e" transform="translate(359.716797 0)"/>
      <use xlink:href="#DejaVuSans-39" transform="translate(391.503906 0)"/>
     </g>
    </g>
    <g id="line2d_23">
     <path d="M 325.845 98.604813 
L 335.845 98.604813 
L 345.845 98.604813 
" style="fill: none; stroke: #d62728; stroke-width: 1.5; stroke-linecap: square"/>
    </g>
    <g id="text_21">
     <!-- Beta: 0.8 -->
     <g transform="translate(353.845 102.104813) scale(0.1 -0.1)">
      <use xlink:href="#DejaVuSans-42"/>
      <use xlink:href="#DejaVuSans-65" transform="translate(68.603516 0)"/>
      <use xlink:href="#DejaVuSans-74" transform="translate(130.126953 0)"/>
      <use xlink:href="#DejaVuSans-61" transform="translate(169.335938 0)"/>
      <use xlink:href="#DejaVuSans-3a" transform="translate(230.615234 0)"/>
      <use xlink:href="#DejaVuSans-20" transform="translate(264.306641 0)"/>
      <use xlink:href="#DejaVuSans-30" transform="translate(296.09375 0)"/>
      <use xlink:href="#DejaVuSans-2e" transform="translate(359.716797 0)"/>
      <use xlink:href="#DejaVuSans-38" transform="translate(391.503906 0)"/>
     </g>
    </g>
   </g>
  </g>
 </g>
 <defs>
  <clipPath id="p6af49740a3">
   <rect x="57.6" y="41.472" width="357.12" height="266.112"/>
  </clipPath>
 </defs>
</svg>
