<?xml version="1.0" encoding="utf-8" standalone="no"?>
<!DOCTYPE svg PUBLIC "-//W3C//DTD SVG 1.1//EN"
  "http://www.w3.org/Graphics/SVG/1.1/DTD/svg11.dtd">
<svg xmlns:xlink="http://www.w3.org/1999/xlink" width="460.8pt" height="345.6pt" viewBox="0 0 460.8 345.6" xmlns="http://www.w3.org/2000/svg" version="1.1">
 <metadata>
  <rdf:RDF xmlns:dc="http://purl.org/dc/elements/1.1/" xmlns:cc="http://creativecommons.org/ns#" xmlns:rdf="http://www.w3.org/1999/02/22-rdf-syntax-ns#">
   <cc:Work>
    <dc:type rdf:resource="http://purl.org/dc/dcmitype/StillImage"/>
    <dc:date>2025-05-08T08:45:40.079044</dc:date>
    <dc:format>image/svg+xml</dc:format>
    <dc:creator>
     <cc:Agent>
      <dc:title>Matplotlib v3.10.1, https://matplotlib.org/</dc:title>
     </cc:Agent>
    </dc:creator>
   </cc:Work>
  </rdf:RDF>
 </metadata>
 <defs>
  <style type="text/css">*{stroke-linejoin: round; stroke-linecap: butt}</style>
 </defs>
 <g id="figure_1">
  <g id="patch_1">
   <path d="M 0 345.6 
L 460.8 345.6 
L 460.8 0 
L 0 0 
z
" style="fill: #ffffff"/>
  </g>
  <g id="axes_1">
   <g id="patch_2">
    <path d="M 57.6 307.584 
L 414.72 307.584 
L 414.72 41.472 
L 57.6 41.472 
z
" style="fill: #ffffff"/>
   </g>
   <g id="matplotlib.axis_1">
    <g id="xtick_1">
     <g id="line2d_1">
      <defs>
       <path id="m6557b1269a" d="M 0 0 
L 0 3.5 
" style="stroke: #000000; stroke-width: 0.8"/>
      </defs>
      <g>
       <use xlink:href="#m6557b1269a" x="73.832727" y="307.584" style="stroke: #000000; stroke-width: 0.8"/>
      </g>
     </g>
     <g id="text_1">
      <!-- 0 -->
      <g transform="translate(70.651477 322.182437) scale(0.1 -0.1)">
       <defs>
        <path id="DejaVuSans-30" d="M 2034 4250 
Q 1547 4250 1301 3770 
Q 1056 3291 1056 2328 
Q 1056 1369 1301 889 
Q 1547 409 2034 409 
Q 2525 409 2770 889 
Q 3016 1369 3016 2328 
Q 3016 3291 2770 3770 
Q 2525 4250 2034 4250 
z
M 2034 4750 
Q 2819 4750 3233 4129 
Q 3647 3509 3647 2328 
Q 3647 1150 3233 529 
Q 2819 -91 2034 -91 
Q 1250 -91 836 529 
Q 422 1150 422 2328 
Q 422 3509 836 4129 
Q 1250 4750 2034 4750 
z
" transform="scale(0.015625)"/>
       </defs>
       <use xlink:href="#DejaVuSans-30"/>
      </g>
     </g>
    </g>
    <g id="xtick_2">
     <g id="line2d_2">
      <g>
       <use xlink:href="#m6557b1269a" x="114.414545" y="307.584" style="stroke: #000000; stroke-width: 0.8"/>
      </g>
     </g>
     <g id="text_2">
      <!-- 50 -->
      <g transform="translate(108.052045 322.182437) scale(0.1 -0.1)">
       <defs>
        <path id="DejaVuSans-35" d="M 691 4666 
L 3169 4666 
L 3169 4134 
L 1269 4134 
L 1269 2991 
Q 1406 3038 1543 3061 
Q 1681 3084 1819 3084 
Q 2600 3084 3056 2656 
Q 3513 2228 3513 1497 
Q 3513 744 3044 326 
Q 2575 -91 1722 -91 
Q 1428 -91 1123 -41 
Q 819 9 494 109 
L 494 744 
Q 775 591 1075 516 
Q 1375 441 1709 441 
Q 2250 441 2565 725 
Q 2881 1009 2881 1497 
Q 2881 1984 2565 2268 
Q 2250 2553 1709 2553 
Q 1456 2553 1204 2497 
Q 953 2441 691 2322 
L 691 4666 
z
" transform="scale(0.015625)"/>
       </defs>
       <use xlink:href="#DejaVuSans-35"/>
       <use xlink:href="#DejaVuSans-30" transform="translate(63.623047 0)"/>
      </g>
     </g>
    </g>
    <g id="xtick_3">
     <g id="line2d_3">
      <g>
       <use xlink:href="#m6557b1269a" x="154.996364" y="307.584" style="stroke: #000000; stroke-width: 0.8"/>
      </g>
     </g>
     <g id="text_3">
      <!-- 100 -->
      <g transform="translate(145.452614 322.182437) scale(0.1 -0.1)">
       <defs>
        <path id="DejaVuSans-31" d="M 794 531 
L 1825 531 
L 1825 4091 
L 703 3866 
L 703 4441 
L 1819 4666 
L 2450 4666 
L 2450 531 
L 3481 531 
L 3481 0 
L 794 0 
L 794 531 
z
" transform="scale(0.015625)"/>
       </defs>
       <use xlink:href="#DejaVuSans-31"/>
       <use xlink:href="#DejaVuSans-30" transform="translate(63.623047 0)"/>
       <use xlink:href="#DejaVuSans-30" transform="translate(127.246094 0)"/>
      </g>
     </g>
    </g>
    <g id="xtick_4">
     <g id="line2d_4">
      <g>
       <use xlink:href="#m6557b1269a" x="195.578182" y="307.584" style="stroke: #000000; stroke-width: 0.8"/>
      </g>
     </g>
     <g id="text_4">
      <!-- 150 -->
      <g transform="translate(186.034432 322.182437) scale(0.1 -0.1)">
       <use xlink:href="#DejaVuSans-31"/>
       <use xlink:href="#DejaVuSans-35" transform="translate(63.623047 0)"/>
       <use xlink:href="#DejaVuSans-30" transform="translate(127.246094 0)"/>
      </g>
     </g>
    </g>
    <g id="xtick_5">
     <g id="line2d_5">
      <g>
       <use xlink:href="#m6557b1269a" x="236.16" y="307.584" style="stroke: #000000; stroke-width: 0.8"/>
      </g>
     </g>
     <g id="text_5">
      <!-- 200 -->
      <g transform="translate(226.61625 322.182437) scale(0.1 -0.1)">
       <defs>
        <path id="DejaVuSans-32" d="M 1228 531 
L 3431 531 
L 3431 0 
L 469 0 
L 469 531 
Q 828 903 1448 1529 
Q 2069 2156 2228 2338 
Q 2531 2678 2651 2914 
Q 2772 3150 2772 3378 
Q 2772 3750 2511 3984 
Q 2250 4219 1831 4219 
Q 1534 4219 1204 4116 
Q 875 4013 500 3803 
L 500 4441 
Q 881 4594 1212 4672 
Q 1544 4750 1819 4750 
Q 2544 4750 2975 4387 
Q 3406 4025 3406 3419 
Q 3406 3131 3298 2873 
Q 3191 2616 2906 2266 
Q 2828 2175 2409 1742 
Q 1991 1309 1228 531 
z
" transform="scale(0.015625)"/>
       </defs>
       <use xlink:href="#DejaVuSans-32"/>
       <use xlink:href="#DejaVuSans-30" transform="translate(63.623047 0)"/>
       <use xlink:href="#DejaVuSans-30" transform="translate(127.246094 0)"/>
      </g>
     </g>
    </g>
    <g id="xtick_6">
     <g id="line2d_6">
      <g>
       <use xlink:href="#m6557b1269a" x="276.741818" y="307.584" style="stroke: #000000; stroke-width: 0.8"/>
      </g>
     </g>
     <g id="text_6">
      <!-- 250 -->
      <g transform="translate(267.198068 322.182437) scale(0.1 -0.1)">
       <use xlink:href="#DejaVuSans-32"/>
       <use xlink:href="#DejaVuSans-35" transform="translate(63.623047 0)"/>
       <use xlink:href="#DejaVuSans-30" transform="translate(127.246094 0)"/>
      </g>
     </g>
    </g>
    <g id="xtick_7">
     <g id="line2d_7">
      <g>
       <use xlink:href="#m6557b1269a" x="317.323636" y="307.584" style="stroke: #000000; stroke-width: 0.8"/>
      </g>
     </g>
     <g id="text_7">
      <!-- 300 -->
      <g transform="translate(307.779886 322.182437) scale(0.1 -0.1)">
       <defs>
        <path id="DejaVuSans-33" d="M 2597 2516 
Q 3050 2419 3304 2112 
Q 3559 1806 3559 1356 
Q 3559 666 3084 287 
Q 2609 -91 1734 -91 
Q 1441 -91 1130 -33 
Q 819 25 488 141 
L 488 750 
Q 750 597 1062 519 
Q 1375 441 1716 441 
Q 2309 441 2620 675 
Q 2931 909 2931 1356 
Q 2931 1769 2642 2001 
Q 2353 2234 1838 2234 
L 1294 2234 
L 1294 2753 
L 1863 2753 
Q 2328 2753 2575 2939 
Q 2822 3125 2822 3475 
Q 2822 3834 2567 4026 
Q 2313 4219 1838 4219 
Q 1578 4219 1281 4162 
Q 984 4106 628 3988 
L 628 4550 
Q 988 4650 1302 4700 
Q 1616 4750 1894 4750 
Q 2613 4750 3031 4423 
Q 3450 4097 3450 3541 
Q 3450 3153 3228 2886 
Q 3006 2619 2597 2516 
z
" transform="scale(0.015625)"/>
       </defs>
       <use xlink:href="#DejaVuSans-33"/>
       <use xlink:href="#DejaVuSans-30" transform="translate(63.623047 0)"/>
       <use xlink:href="#DejaVuSans-30" transform="translate(127.246094 0)"/>
      </g>
     </g>
    </g>
    <g id="xtick_8">
     <g id="line2d_8">
      <g>
       <use xlink:href="#m6557b1269a" x="357.905455" y="307.584" style="stroke: #000000; stroke-width: 0.8"/>
      </g>
     </g>
     <g id="text_8">
      <!-- 350 -->
      <g transform="translate(348.361705 322.182437) scale(0.1 -0.1)">
       <use xlink:href="#DejaVuSans-33"/>
       <use xlink:href="#DejaVuSans-35" transform="translate(63.623047 0)"/>
       <use xlink:href="#DejaVuSans-30" transform="translate(127.246094 0)"/>
      </g>
     </g>
    </g>
    <g id="xtick_9">
     <g id="line2d_9">
      <g>
       <use xlink:href="#m6557b1269a" x="398.487273" y="307.584" style="stroke: #000000; stroke-width: 0.8"/>
      </g>
     </g>
     <g id="text_9">
      <!-- 400 -->
      <g transform="translate(388.943523 322.182437) scale(0.1 -0.1)">
       <defs>
        <path id="DejaVuSans-34" d="M 2419 4116 
L 825 1625 
L 2419 1625 
L 2419 4116 
z
M 2253 4666 
L 3047 4666 
L 3047 1625 
L 3713 1625 
L 3713 1100 
L 3047 1100 
L 3047 0 
L 2419 0 
L 2419 1100 
L 313 1100 
L 313 1709 
L 2253 4666 
z
" transform="scale(0.015625)"/>
       </defs>
       <use xlink:href="#DejaVuSans-34"/>
       <use xlink:href="#DejaVuSans-30" transform="translate(63.623047 0)"/>
       <use xlink:href="#DejaVuSans-30" transform="translate(127.246094 0)"/>
      </g>
     </g>
    </g>
    <g id="text_10">
     <!-- Iteration -->
     <g transform="translate(214.951406 335.860562) scale(0.1 -0.1)">
      <defs>
       <path id="DejaVuSans-49" d="M 628 4666 
L 1259 4666 
L 1259 0 
L 628 0 
L 628 4666 
z
" transform="scale(0.015625)"/>
       <path id="DejaVuSans-74" d="M 1172 4494 
L 1172 3500 
L 2356 3500 
L 2356 3053 
L 1172 3053 
L 1172 1153 
Q 1172 725 1289 603 
Q 1406 481 1766 481 
L 2356 481 
L 2356 0 
L 1766 0 
Q 1100 0 847 248 
Q 594 497 594 1153 
L 594 3053 
L 172 3053 
L 172 3500 
L 594 3500 
L 594 4494 
L 1172 4494 
z
" transform="scale(0.015625)"/>
       <path id="DejaVuSans-65" d="M 3597 1894 
L 3597 1613 
L 953 1613 
Q 991 1019 1311 708 
Q 1631 397 2203 397 
Q 2534 397 2845 478 
Q 3156 559 3463 722 
L 3463 178 
Q 3153 47 2828 -22 
Q 2503 -91 2169 -91 
Q 1331 -91 842 396 
Q 353 884 353 1716 
Q 353 2575 817 3079 
Q 1281 3584 2069 3584 
Q 2775 3584 3186 3129 
Q 3597 2675 3597 1894 
z
M 3022 2063 
Q 3016 2534 2758 2815 
Q 2500 3097 2075 3097 
Q 1594 3097 1305 2825 
Q 1016 2553 972 2059 
L 3022 2063 
z
" transform="scale(0.015625)"/>
       <path id="DejaVuSans-72" d="M 2631 2963 
Q 2534 3019 2420 3045 
Q 2306 3072 2169 3072 
Q 1681 3072 1420 2755 
Q 1159 2438 1159 1844 
L 1159 0 
L 581 0 
L 581 3500 
L 1159 3500 
L 1159 2956 
Q 1341 3275 1631 3429 
Q 1922 3584 2338 3584 
Q 2397 3584 2469 3576 
Q 2541 3569 2628 3553 
L 2631 2963 
z
" transform="scale(0.015625)"/>
       <path id="DejaVuSans-61" d="M 2194 1759 
Q 1497 1759 1228 1600 
Q 959 1441 959 1056 
Q 959 750 1161 570 
Q 1363 391 1709 391 
Q 2188 391 2477 730 
Q 2766 1069 2766 1631 
L 2766 1759 
L 2194 1759 
z
M 3341 1997 
L 3341 0 
L 2766 0 
L 2766 531 
Q 2569 213 2275 61 
Q 1981 -91 1556 -91 
Q 1019 -91 701 211 
Q 384 513 384 1019 
Q 384 1609 779 1909 
Q 1175 2209 1959 2209 
L 2766 2209 
L 2766 2266 
Q 2766 2663 2505 2880 
Q 2244 3097 1772 3097 
Q 1472 3097 1187 3025 
Q 903 2953 641 2809 
L 641 3341 
Q 956 3463 1253 3523 
Q 1550 3584 1831 3584 
Q 2591 3584 2966 3190 
Q 3341 2797 3341 1997 
z
" transform="scale(0.015625)"/>
       <path id="DejaVuSans-69" d="M 603 3500 
L 1178 3500 
L 1178 0 
L 603 0 
L 603 3500 
z
M 603 4863 
L 1178 4863 
L 1178 4134 
L 603 4134 
L 603 4863 
z
" transform="scale(0.015625)"/>
       <path id="DejaVuSans-6f" d="M 1959 3097 
Q 1497 3097 1228 2736 
Q 959 2375 959 1747 
Q 959 1119 1226 758 
Q 1494 397 1959 397 
Q 2419 397 2687 759 
Q 2956 1122 2956 1747 
Q 2956 2369 2687 2733 
Q 2419 3097 1959 3097 
z
M 1959 3584 
Q 2709 3584 3137 3096 
Q 3566 2609 3566 1747 
Q 3566 888 3137 398 
Q 2709 -91 1959 -91 
Q 1206 -91 779 398 
Q 353 888 353 1747 
Q 353 2609 779 3096 
Q 1206 3584 1959 3584 
z
" transform="scale(0.015625)"/>
       <path id="DejaVuSans-6e" d="M 3513 2113 
L 3513 0 
L 2938 0 
L 2938 2094 
Q 2938 2591 2744 2837 
Q 2550 3084 2163 3084 
Q 1697 3084 1428 2787 
Q 1159 2491 1159 1978 
L 1159 0 
L 581 0 
L 581 3500 
L 1159 3500 
L 1159 2956 
Q 1366 3272 1645 3428 
Q 1925 3584 2291 3584 
Q 2894 3584 3203 3211 
Q 3513 2838 3513 2113 
z
" transform="scale(0.015625)"/>
      </defs>
      <use xlink:href="#DejaVuSans-49"/>
      <use xlink:href="#DejaVuSans-74" transform="translate(29.492188 0)"/>
      <use xlink:href="#DejaVuSans-65" transform="translate(68.701172 0)"/>
      <use xlink:href="#DejaVuSans-72" transform="translate(130.224609 0)"/>
      <use xlink:href="#DejaVuSans-61" transform="translate(171.337891 0)"/>
      <use xlink:href="#DejaVuSans-74" transform="translate(232.617188 0)"/>
      <use xlink:href="#DejaVuSans-69" transform="translate(271.826172 0)"/>
      <use xlink:href="#DejaVuSans-6f" transform="translate(299.609375 0)"/>
      <use xlink:href="#DejaVuSans-6e" transform="translate(360.791016 0)"/>
     </g>
    </g>
   </g>
   <g id="matplotlib.axis_2">
    <g id="ytick_1">
     <g id="line2d_10">
      <defs>
       <path id="mf3fce63092" d="M 0 0 
L -3.5 0 
" style="stroke: #000000; stroke-width: 0.8"/>
      </defs>
      <g>
       <use xlink:href="#mf3fce63092" x="57.6" y="269.756175" style="stroke: #000000; stroke-width: 0.8"/>
      </g>
     </g>
     <g id="text_11">
      <!-- 0.4 -->
      <g transform="translate(34.696875 273.555394) scale(0.1 -0.1)">
       <defs>
        <path id="DejaVuSans-2e" d="M 684 794 
L 1344 794 
L 1344 0 
L 684 0 
L 684 794 
z
" transform="scale(0.015625)"/>
       </defs>
       <use xlink:href="#DejaVuSans-30"/>
       <use xlink:href="#DejaVuSans-2e" transform="translate(63.623047 0)"/>
       <use xlink:href="#DejaVuSans-34" transform="translate(95.410156 0)"/>
      </g>
     </g>
    </g>
    <g id="ytick_2">
     <g id="line2d_11">
      <g>
       <use xlink:href="#mf3fce63092" x="57.6" y="213.07088" style="stroke: #000000; stroke-width: 0.8"/>
      </g>
     </g>
     <g id="text_12">
      <!-- 0.6 -->
      <g transform="translate(34.696875 216.870099) scale(0.1 -0.1)">
       <defs>
        <path id="DejaVuSans-36" d="M 2113 2584 
Q 1688 2584 1439 2293 
Q 1191 2003 1191 1497 
Q 1191 994 1439 701 
Q 1688 409 2113 409 
Q 2538 409 2786 701 
Q 3034 994 3034 1497 
Q 3034 2003 2786 2293 
Q 2538 2584 2113 2584 
z
M 3366 4563 
L 3366 3988 
Q 3128 4100 2886 4159 
Q 2644 4219 2406 4219 
Q 1781 4219 1451 3797 
Q 1122 3375 1075 2522 
Q 1259 2794 1537 2939 
Q 1816 3084 2150 3084 
Q 2853 3084 3261 2657 
Q 3669 2231 3669 1497 
Q 3669 778 3244 343 
Q 2819 -91 2113 -91 
Q 1303 -91 875 529 
Q 447 1150 447 2328 
Q 447 3434 972 4092 
Q 1497 4750 2381 4750 
Q 2619 4750 2861 4703 
Q 3103 4656 3366 4563 
z
" transform="scale(0.015625)"/>
       </defs>
       <use xlink:href="#DejaVuSans-30"/>
       <use xlink:href="#DejaVuSans-2e" transform="translate(63.623047 0)"/>
       <use xlink:href="#DejaVuSans-36" transform="translate(95.410156 0)"/>
      </g>
     </g>
    </g>
    <g id="ytick_3">
     <g id="line2d_12">
      <g>
       <use xlink:href="#mf3fce63092" x="57.6" y="156.385585" style="stroke: #000000; stroke-width: 0.8"/>
      </g>
     </g>
     <g id="text_13">
      <!-- 0.8 -->
      <g transform="translate(34.696875 160.184804) scale(0.1 -0.1)">
       <defs>
        <path id="DejaVuSans-38" d="M 2034 2216 
Q 1584 2216 1326 1975 
Q 1069 1734 1069 1313 
Q 1069 891 1326 650 
Q 1584 409 2034 409 
Q 2484 409 2743 651 
Q 3003 894 3003 1313 
Q 3003 1734 2745 1975 
Q 2488 2216 2034 2216 
z
M 1403 2484 
Q 997 2584 770 2862 
Q 544 3141 544 3541 
Q 544 4100 942 4425 
Q 1341 4750 2034 4750 
Q 2731 4750 3128 4425 
Q 3525 4100 3525 3541 
Q 3525 3141 3298 2862 
Q 3072 2584 2669 2484 
Q 3125 2378 3379 2068 
Q 3634 1759 3634 1313 
Q 3634 634 3220 271 
Q 2806 -91 2034 -91 
Q 1263 -91 848 271 
Q 434 634 434 1313 
Q 434 1759 690 2068 
Q 947 2378 1403 2484 
z
M 1172 3481 
Q 1172 3119 1398 2916 
Q 1625 2713 2034 2713 
Q 2441 2713 2670 2916 
Q 2900 3119 2900 3481 
Q 2900 3844 2670 4047 
Q 2441 4250 2034 4250 
Q 1625 4250 1398 4047 
Q 1172 3844 1172 3481 
z
" transform="scale(0.015625)"/>
       </defs>
       <use xlink:href="#DejaVuSans-30"/>
       <use xlink:href="#DejaVuSans-2e" transform="translate(63.623047 0)"/>
       <use xlink:href="#DejaVuSans-38" transform="translate(95.410156 0)"/>
      </g>
     </g>
    </g>
    <g id="ytick_4">
     <g id="line2d_13">
      <g>
       <use xlink:href="#mf3fce63092" x="57.6" y="99.70029" style="stroke: #000000; stroke-width: 0.8"/>
      </g>
     </g>
     <g id="text_14">
      <!-- 1.0 -->
      <g transform="translate(34.696875 103.499508) scale(0.1 -0.1)">
       <use xlink:href="#DejaVuSans-31"/>
       <use xlink:href="#DejaVuSans-2e" transform="translate(63.623047 0)"/>
       <use xlink:href="#DejaVuSans-30" transform="translate(95.410156 0)"/>
      </g>
     </g>
    </g>
    <g id="ytick_5">
     <g id="line2d_14">
      <g>
       <use xlink:href="#mf3fce63092" x="57.6" y="43.014994" style="stroke: #000000; stroke-width: 0.8"/>
      </g>
     </g>
     <g id="text_15">
      <!-- 1.2 -->
      <g transform="translate(34.696875 46.814213) scale(0.1 -0.1)">
       <use xlink:href="#DejaVuSans-31"/>
       <use xlink:href="#DejaVuSans-2e" transform="translate(63.623047 0)"/>
       <use xlink:href="#DejaVuSans-32" transform="translate(95.410156 0)"/>
      </g>
     </g>
    </g>
    <g id="text_16">
     <!-- loss value -->
     <g transform="translate(28.617187 199.432687) rotate(-90) scale(0.1 -0.1)">
      <defs>
       <path id="DejaVuSans-6c" d="M 603 4863 
L 1178 4863 
L 1178 0 
L 603 0 
L 603 4863 
z
" transform="scale(0.015625)"/>
       <path id="DejaVuSans-73" d="M 2834 3397 
L 2834 2853 
Q 2591 2978 2328 3040 
Q 2066 3103 1784 3103 
Q 1356 3103 1142 2972 
Q 928 2841 928 2578 
Q 928 2378 1081 2264 
Q 1234 2150 1697 2047 
L 1894 2003 
Q 2506 1872 2764 1633 
Q 3022 1394 3022 966 
Q 3022 478 2636 193 
Q 2250 -91 1575 -91 
Q 1294 -91 989 -36 
Q 684 19 347 128 
L 347 722 
Q 666 556 975 473 
Q 1284 391 1588 391 
Q 1994 391 2212 530 
Q 2431 669 2431 922 
Q 2431 1156 2273 1281 
Q 2116 1406 1581 1522 
L 1381 1569 
Q 847 1681 609 1914 
Q 372 2147 372 2553 
Q 372 3047 722 3315 
Q 1072 3584 1716 3584 
Q 2034 3584 2315 3537 
Q 2597 3491 2834 3397 
z
" transform="scale(0.015625)"/>
       <path id="DejaVuSans-20" transform="scale(0.015625)"/>
       <path id="DejaVuSans-76" d="M 191 3500 
L 800 3500 
L 1894 563 
L 2988 3500 
L 3597 3500 
L 2284 0 
L 1503 0 
L 191 3500 
z
" transform="scale(0.015625)"/>
       <path id="DejaVuSans-75" d="M 544 1381 
L 544 3500 
L 1119 3500 
L 1119 1403 
Q 1119 906 1312 657 
Q 1506 409 1894 409 
Q 2359 409 2629 706 
Q 2900 1003 2900 1516 
L 2900 3500 
L 3475 3500 
L 3475 0 
L 2900 0 
L 2900 538 
Q 2691 219 2414 64 
Q 2138 -91 1772 -91 
Q 1169 -91 856 284 
Q 544 659 544 1381 
z
M 1991 3584 
L 1991 3584 
z
" transform="scale(0.015625)"/>
      </defs>
      <use xlink:href="#DejaVuSans-6c"/>
      <use xlink:href="#DejaVuSans-6f" transform="translate(27.783203 0)"/>
      <use xlink:href="#DejaVuSans-73" transform="translate(88.964844 0)"/>
      <use xlink:href="#DejaVuSans-73" transform="translate(141.064453 0)"/>
      <use xlink:href="#DejaVuSans-20" transform="translate(193.164062 0)"/>
      <use xlink:href="#DejaVuSans-76" transform="translate(224.951172 0)"/>
      <use xlink:href="#DejaVuSans-61" transform="translate(284.130859 0)"/>
      <use xlink:href="#DejaVuSans-6c" transform="translate(345.410156 0)"/>
      <use xlink:href="#DejaVuSans-75" transform="translate(373.193359 0)"/>
      <use xlink:href="#DejaVuSans-65" transform="translate(436.572266 0)"/>
     </g>
    </g>
   </g>
   <g id="line2d_15">
    <path d="M 73.832727 157.058079 
L 74.644364 175.084748 
L 75.456 171.864519 
L 76.267636 186.73115 
L 77.079273 194.031792 
L 77.890909 150.380758 
L 78.702545 231.672986 
L 79.514182 99.181523 
L 80.325818 175.812065 
L 81.137455 170.899442 
L 81.949091 181.062271 
L 82.760727 201.528974 
L 83.572364 185.038469 
L 84.384 198.305789 
L 85.195636 224.303334 
L 86.007273 190.757268 
L 86.818909 194.159051 
L 87.630545 75.945412 
L 88.442182 178.118793 
L 89.253818 197.918099 
L 90.065455 232.89346 
L 90.877091 182.664302 
L 91.688727 192.660004 
L 92.500364 151.422058 
L 93.312 195.504419 
L 94.123636 197.420078 
L 94.935273 141.982019 
L 95.746909 208.330429 
L 96.558545 180.382729 
L 97.370182 238.322923 
L 98.181818 226.710105 
L 98.993455 191.834129 
L 99.805091 196.28735 
L 100.616727 194.113963 
L 101.428364 206.692551 
L 102.24 201.627936 
L 103.051636 128.241021 
L 103.863273 228.223918 
L 104.674909 105.83222 
L 105.486545 253.631447 
L 106.298182 159.268902 
L 107.109818 185.241445 
L 107.921455 218.997666 
L 108.733091 237.309328 
L 109.544727 213.287229 
L 110.356364 196.043221 
L 111.168 213.326861 
L 111.979636 198.383145 
L 112.791273 145.329169 
L 113.602909 165.073943 
L 114.414545 141.277457 
L 115.226182 183.045707 
L 116.037818 270.128262 
L 116.849455 185.413218 
L 117.661091 214.570276 
L 118.472727 207.924207 
L 119.284364 226.748436 
L 120.096 226.1649 
L 120.907636 233.470357 
L 121.719273 211.813724 
L 122.530909 229.416077 
L 123.342545 232.601691 
L 124.154182 185.91303 
L 124.965818 123.67186 
L 125.777455 220.948261 
L 126.589091 260.702912 
L 127.400727 222.444961 
L 128.212364 245.66525 
L 129.024 159.456843 
L 129.835636 220.484432 
L 130.647273 249.063689 
L 131.458909 138.436134 
L 132.270545 208.504804 
L 133.082182 267.698533 
L 133.893818 109.561012 
L 134.705455 207.325011 
L 135.517091 103.010189 
L 136.328727 187.717868 
L 137.140364 197.284119 
L 137.952 233.644546 
L 138.763636 184.446384 
L 139.575273 230.31831 
L 140.386909 241.158942 
L 141.198545 213.029214 
L 142.010182 239.540204 
L 142.821818 248.1908 
L 143.633455 228.371314 
L 144.445091 214.867298 
L 145.256727 179.399998 
L 146.068364 193.617495 
L 146.88 234.486334 
L 147.691636 235.209039 
L 148.503273 171.959562 
L 149.314909 229.694449 
L 150.126545 202.818829 
L 150.938182 210.470789 
L 151.749818 177.40624 
L 152.561455 202.333106 
L 153.373091 203.505568 
L 154.184727 172.626806 
L 154.996364 237.100541 
L 155.808 253.682871 
L 156.619636 215.44205 
L 157.431273 236.284279 
L 158.242909 244.456662 
L 159.054545 236.268737 
L 159.866182 217.56751 
L 160.677818 189.841672 
L 161.489455 240.153726 
L 162.301091 145.359104 
L 163.112727 137.370929 
L 163.924364 210.381271 
L 164.736 222.147144 
L 165.547636 187.500144 
L 166.359273 222.866606 
L 167.170909 197.698534 
L 167.982545 168.493482 
L 168.794182 230.556138 
L 169.605818 231.697397 
L 170.417455 131.92028 
L 171.229091 207.303015 
L 172.040727 216.234576 
L 172.852364 194.535085 
L 173.664 242.632447 
L 174.475636 243.906076 
L 175.287273 230.616954 
L 176.098909 271.364092 
L 176.910545 239.602794 
L 177.722182 256.274001 
L 178.533818 263.985663 
L 179.345455 254.888791 
L 180.157091 262.091189 
L 180.968727 218.080786 
L 181.780364 132.145708 
L 182.592 257.142135 
L 183.403636 227.803775 
L 184.215273 218.913181 
L 185.026909 276.482132 
L 185.838545 244.827187 
L 186.650182 228.668387 
L 187.461818 227.297341 
L 188.273455 223.44923 
L 189.085091 213.332166 
L 189.896727 119.899416 
L 190.708364 249.012501 
L 191.52 256.353621 
L 192.331636 236.58267 
L 193.143273 210.117258 
L 193.954909 243.630297 
L 194.766545 180.643903 
L 195.578182 245.218661 
L 196.389818 243.258496 
L 197.201455 267.779259 
L 198.013091 200.579439 
L 198.824727 223.588822 
L 199.636364 260.978859 
L 200.448 256.620319 
L 201.259636 227.824436 
L 202.071273 209.159969 
L 203.694545 266.83252 
L 204.506182 243.100719 
L 205.317818 202.669795 
L 206.129455 180.523266 
L 206.941091 262.929176 
L 207.752727 238.500778 
L 208.564364 260.122163 
L 209.376 228.567211 
L 210.187636 241.94684 
L 210.999273 233.748627 
L 211.810909 248.755095 
L 212.622545 260.525868 
L 213.434182 185.0371 
L 214.245818 231.90191 
L 215.057455 209.594809 
L 215.869091 196.738914 
L 216.680727 245.506949 
L 217.492364 223.998946 
L 218.304 233.652148 
L 219.115636 229.578137 
L 219.927273 213.754369 
L 220.738909 262.297915 
L 221.550545 256.129494 
L 222.362182 192.525464 
L 223.173818 239.657073 
L 223.985455 193.212828 
L 224.797091 274.213482 
L 225.608727 261.799167 
L 226.420364 262.895211 
L 227.232 136.894497 
L 228.043636 258.128438 
L 228.855273 156.388825 
L 229.666909 198.905493 
L 230.478545 200.080742 
L 231.290182 153.007804 
L 232.101818 260.833963 
L 232.913455 212.123687 
L 233.725091 240.80634 
L 234.536727 206.569718 
L 235.348364 271.631027 
L 236.16 259.369902 
L 236.971636 230.986416 
L 237.783273 269.453746 
L 238.594909 255.30378 
L 240.218182 273.870814 
L 241.029818 212.459919 
L 241.841455 120.094553 
L 242.653091 198.759178 
L 243.464727 255.349241 
L 244.276364 226.65912 
L 245.088 214.06847 
L 245.899636 153.124369 
L 246.711273 226.37367 
L 247.522909 245.027241 
L 248.334545 233.92704 
L 249.146182 210.07396 
L 249.957818 248.199086 
L 250.769455 251.085693 
L 251.581091 238.605434 
L 252.392727 256.367287 
L 253.204364 249.379936 
L 254.016 269.28563 
L 254.827636 261.807901 
L 255.639273 243.620753 
L 256.450909 218.030241 
L 257.262545 208.088277 
L 258.074182 188.275709 
L 258.885818 216.577008 
L 259.697455 231.359527 
L 260.509091 183.729321 
L 261.320727 257.717638 
L 262.132364 244.103097 
L 262.944 279.32789 
L 263.755636 265.849307 
L 264.567273 246.527936 
L 266.190545 250.867521 
L 267.002182 230.199414 
L 267.813818 170.746674 
L 268.625455 257.204337 
L 269.437091 181.775094 
L 270.248727 206.831652 
L 271.060364 262.706992 
L 271.872 252.284923 
L 272.683636 252.273553 
L 273.495273 256.605191 
L 274.306909 208.007797 
L 275.118545 245.784029 
L 275.930182 261.072314 
L 276.741818 211.863594 
L 277.553455 229.647232 
L 278.365091 261.929653 
L 279.176727 178.785783 
L 279.988364 218.047253 
L 280.8 248.087851 
L 281.611636 190.394716 
L 282.423273 276.187399 
L 283.234909 283.697191 
L 284.046545 237.973548 
L 284.858182 242.586024 
L 285.669818 241.636227 
L 286.481455 260.064514 
L 287.293091 258.213751 
L 288.104727 226.094302 
L 288.916364 220.247264 
L 289.728 239.112628 
L 290.539636 192.079491 
L 292.162909 248.267269 
L 292.974545 210.422846 
L 293.786182 262.092295 
L 294.597818 240.093518 
L 295.409455 236.994331 
L 297.032727 279.519412 
L 297.844364 242.423356 
L 299.467636 258.67459 
L 300.279273 245.098193 
L 301.090909 208.416671 
L 301.902545 253.286701 
L 302.714182 178.937251 
L 303.525818 246.782327 
L 304.337455 218.276802 
L 305.149091 229.953613 
L 305.960727 217.957396 
L 306.772364 172.254793 
L 307.584 200.899926 
L 308.395636 265.357089 
L 309.207273 210.84564 
L 310.018909 262.964196 
L 310.830545 208.699097 
L 311.642182 237.968514 
L 312.453818 209.846641 
L 313.265455 199.93615 
L 314.077091 257.459716 
L 314.888727 246.441821 
L 315.700364 258.856491 
L 316.512 277.116729 
L 317.323636 192.426434 
L 318.135273 250.699532 
L 318.946909 213.501878 
L 319.758545 139.63652 
L 320.570182 269.791397 
L 321.381818 227.423654 
L 322.193455 243.80773 
L 323.005091 274.985626 
L 323.816727 230.049078 
L 324.628364 248.339463 
L 325.44 233.874636 
L 326.251636 231.160926 
L 327.063273 212.725992 
L 327.874909 231.304808 
L 329.498182 287.834122 
L 330.309818 265.796701 
L 331.121455 216.132759 
L 331.933091 254.530361 
L 332.744727 255.981203 
L 333.556364 269.233006 
L 334.368 263.380917 
L 335.179636 266.569377 
L 336.802909 216.385942 
L 337.614545 169.220934 
L 338.426182 252.137611 
L 339.237818 269.198704 
L 340.049455 213.292212 
L 340.861091 203.467609 
L 341.672727 220.916281 
L 342.484364 245.665267 
L 343.296 239.729158 
L 344.107636 223.027686 
L 344.919273 247.187518 
L 345.730909 184.625219 
L 346.542545 245.667632 
L 347.354182 201.302516 
L 348.165818 224.577077 
L 348.977455 210.953167 
L 349.789091 246.421489 
L 350.600727 238.248389 
L 351.412364 219.998895 
L 352.224 260.240848 
L 353.035636 269.380639 
L 353.847273 254.311167 
L 354.658909 261.827742 
L 355.470545 234.202894 
L 356.282182 223.546166 
L 357.093818 254.852858 
L 357.905455 247.482344 
L 358.717091 258.792 
L 359.528727 191.300091 
L 360.340364 263.073801 
L 361.152 236.506108 
L 361.963636 238.902743 
L 362.775273 247.002044 
L 363.586909 201.256971 
L 364.398545 175.89834 
L 365.210182 244.027245 
L 366.021818 236.536432 
L 366.833455 271.462894 
L 367.645091 245.478382 
L 368.456727 213.598273 
L 369.268364 224.484669 
L 370.08 250.031536 
L 370.891636 261.216298 
L 371.703273 163.696512 
L 372.514909 257.856866 
L 373.326545 249.870499 
L 374.138182 249.466819 
L 374.949818 226.988493 
L 375.761455 193.49647 
L 376.573091 250.345241 
L 377.384727 231.404345 
L 378.196364 236.105731 
L 379.008 188.115322 
L 379.819636 191.725791 
L 380.631273 261.102478 
L 381.442909 213.453444 
L 382.254545 249.074644 
L 383.066182 225.863891 
L 383.877818 225.977348 
L 384.689455 295.488 
L 385.501091 204.32303 
L 386.312727 237.136862 
L 387.124364 222.721896 
L 387.936 219.530218 
L 389.559273 280.185026 
L 390.370909 271.277926 
L 391.182545 246.480448 
L 391.994182 206.414466 
L 392.805818 248.492518 
L 393.617455 261.668267 
L 394.429091 241.16249 
L 395.240727 176.446265 
L 396.052364 241.964037 
L 396.864 223.086476 
L 397.675636 53.568 
L 397.675636 53.568 
" clip-path="url(#p20a8256486)" style="fill: none; stroke: #1f77b4; stroke-width: 1.5; stroke-linecap: square"/>
   </g>
   <g id="line2d_16">
    <path d="M 86.818909 169.835678 
L 99.805091 206.650023 
L 112.791273 126.775933 
L 125.777455 219.971272 
L 138.763636 174.0913 
L 151.749818 203.585438 
L 164.736 194.41532 
L 177.722182 218.759912 
L 190.708364 228.489841 
L 203.694545 220.614808 
L 216.680727 218.668338 
L 229.666909 217.897519 
L 242.653091 219.133208 
L 255.639273 223.526203 
L 268.625455 225.608159 
L 281.611636 220.91323 
L 294.597818 217.55525 
L 307.584 219.591322 
L 320.570182 226.108538 
L 333.556364 226.541154 
L 346.542545 223.034993 
L 359.528727 222.048765 
L 372.514909 222.391109 
L 385.501091 226.231618 
L 398.487273 226.561663 
" clip-path="url(#p20a8256486)" style="fill: none; stroke: #ff7f0e; stroke-width: 1.5; stroke-linecap: square"/>
   </g>
   <g id="patch_3">
    <path d="M 57.6 307.584 
L 57.6 41.472 
" style="fill: none; stroke: #000000; stroke-width: 0.8; stroke-linejoin: miter; stroke-linecap: square"/>
   </g>
   <g id="patch_4">
    <path d="M 414.72 307.584 
L 414.72 41.472 
" style="fill: none; stroke: #000000; stroke-width: 0.8; stroke-linejoin: miter; stroke-linecap: square"/>
   </g>
   <g id="patch_5">
    <path d="M 57.6 307.584 
L 414.72 307.584 
" style="fill: none; stroke: #000000; stroke-width: 0.8; stroke-linejoin: miter; stroke-linecap: square"/>
   </g>
   <g id="patch_6">
    <path d="M 57.6 41.472 
L 414.72 41.472 
" style="fill: none; stroke: #000000; stroke-width: 0.8; stroke-linejoin: miter; stroke-linecap: square"/>
   </g>
   <g id="legend_1">
    <g id="patch_7">
     <path d="M 351.621563 78.82825 
L 407.72 78.82825 
Q 409.72 78.82825 409.72 76.82825 
L 409.72 48.472 
Q 409.72 46.472 407.72 46.472 
L 351.621563 46.472 
Q 349.621563 46.472 349.621563 48.472 
L 349.621563 76.82825 
Q 349.621563 78.82825 351.621563 78.82825 
z
" style="fill: #ffffff; opacity: 0.8; stroke: #cccccc; stroke-linejoin: miter"/>
    </g>
    <g id="line2d_17">
     <path d="M 353.621563 54.570437 
L 363.621563 54.570437 
L 373.621563 54.570437 
" style="fill: none; stroke: #1f77b4; stroke-width: 1.5; stroke-linecap: square"/>
    </g>
    <g id="text_17">
     <!-- Train -->
     <g transform="translate(381.621563 58.070437) scale(0.1 -0.1)">
      <defs>
       <path id="DejaVuSans-54" d="M -19 4666 
L 3928 4666 
L 3928 4134 
L 2272 4134 
L 2272 0 
L 1638 0 
L 1638 4134 
L -19 4134 
L -19 4666 
z
" transform="scale(0.015625)"/>
      </defs>
      <use xlink:href="#DejaVuSans-54"/>
      <use xlink:href="#DejaVuSans-72" transform="translate(46.333984 0)"/>
      <use xlink:href="#DejaVuSans-61" transform="translate(87.447266 0)"/>
      <use xlink:href="#DejaVuSans-69" transform="translate(148.726562 0)"/>
      <use xlink:href="#DejaVuSans-6e" transform="translate(176.509766 0)"/>
     </g>
    </g>
    <g id="line2d_18">
     <path d="M 353.621563 69.248562 
L 363.621563 69.248562 
L 373.621563 69.248562 
" style="fill: none; stroke: #ff7f0e; stroke-width: 1.5; stroke-linecap: square"/>
    </g>
    <g id="text_18">
     <!-- Valid -->
     <g transform="translate(381.621563 72.748562) scale(0.1 -0.1)">
      <defs>
       <path id="DejaVuSans-56" d="M 1831 0 
L 50 4666 
L 709 4666 
L 2188 738 
L 3669 4666 
L 4325 4666 
L 2547 0 
L 1831 0 
z
" transform="scale(0.015625)"/>
       <path id="DejaVuSans-64" d="M 2906 2969 
L 2906 4863 
L 3481 4863 
L 3481 0 
L 2906 0 
L 2906 525 
Q 2725 213 2448 61 
Q 2172 -91 1784 -91 
Q 1150 -91 751 415 
Q 353 922 353 1747 
Q 353 2572 751 3078 
Q 1150 3584 1784 3584 
Q 2172 3584 2448 3432 
Q 2725 3281 2906 2969 
z
M 947 1747 
Q 947 1113 1208 752 
Q 1469 391 1925 391 
Q 2381 391 2643 752 
Q 2906 1113 2906 1747 
Q 2906 2381 2643 2742 
Q 2381 3103 1925 3103 
Q 1469 3103 1208 2742 
Q 947 2381 947 1747 
z
" transform="scale(0.015625)"/>
      </defs>
      <use xlink:href="#DejaVuSans-56"/>
      <use xlink:href="#DejaVuSans-61" transform="translate(60.658203 0)"/>
      <use xlink:href="#DejaVuSans-6c" transform="translate(121.9375 0)"/>
      <use xlink:href="#DejaVuSans-69" transform="translate(149.720703 0)"/>
      <use xlink:href="#DejaVuSans-64" transform="translate(177.503906 0)"/>
     </g>
    </g>
   </g>
  </g>
 </g>
 <defs>
  <clipPath id="p20a8256486">
   <rect x="57.6" y="41.472" width="357.12" height="266.112"/>
  </clipPath>
 </defs>
</svg>
