<?xml version="1.0" encoding="utf-8" standalone="no"?>
<!DOCTYPE svg PUBLIC "-//W3C//DTD SVG 1.1//EN"
  "http://www.w3.org/Graphics/SVG/1.1/DTD/svg11.dtd">
<svg xmlns:xlink="http://www.w3.org/1999/xlink" width="460.8pt" height="345.6pt" viewBox="0 0 460.8 345.6" xmlns="http://www.w3.org/2000/svg" version="1.1">
 <metadata>
  <rdf:RDF xmlns:dc="http://purl.org/dc/elements/1.1/" xmlns:cc="http://creativecommons.org/ns#" xmlns:rdf="http://www.w3.org/1999/02/22-rdf-syntax-ns#">
   <cc:Work>
    <dc:type rdf:resource="http://purl.org/dc/dcmitype/StillImage"/>
    <dc:date>2025-05-08T08:54:28.075697</dc:date>
    <dc:format>image/svg+xml</dc:format>
    <dc:creator>
     <cc:Agent>
      <dc:title>Matplotlib v3.10.1, https://matplotlib.org/</dc:title>
     </cc:Agent>
    </dc:creator>
   </cc:Work>
  </rdf:RDF>
 </metadata>
 <defs>
  <style type="text/css">*{stroke-linejoin: round; stroke-linecap: butt}</style>
 </defs>
 <g id="figure_1">
  <g id="patch_1">
   <path d="M 0 345.6 
L 460.8 345.6 
L 460.8 0 
L 0 0 
z
" style="fill: #ffffff"/>
  </g>
  <g id="axes_1">
   <g id="patch_2">
    <path d="M 57.6 307.584 
L 414.72 307.584 
L 414.72 41.472 
L 57.6 41.472 
z
" style="fill: #ffffff"/>
   </g>
   <g id="matplotlib.axis_1">
    <g id="xtick_1">
     <g id="line2d_1">
      <defs>
       <path id="m29f25e85f1" d="M 0 0 
L 0 3.5 
" style="stroke: #000000; stroke-width: 0.8"/>
      </defs>
      <g>
       <use xlink:href="#m29f25e85f1" x="73.832727" y="307.584" style="stroke: #000000; stroke-width: 0.8"/>
      </g>
     </g>
     <g id="text_1">
      <!-- 0 -->
      <g transform="translate(70.651477 322.182437) scale(0.1 -0.1)">
       <defs>
        <path id="DejaVuSans-30" d="M 2034 4250 
Q 1547 4250 1301 3770 
Q 1056 3291 1056 2328 
Q 1056 1369 1301 889 
Q 1547 409 2034 409 
Q 2525 409 2770 889 
Q 3016 1369 3016 2328 
Q 3016 3291 2770 3770 
Q 2525 4250 2034 4250 
z
M 2034 4750 
Q 2819 4750 3233 4129 
Q 3647 3509 3647 2328 
Q 3647 1150 3233 529 
Q 2819 -91 2034 -91 
Q 1250 -91 836 529 
Q 422 1150 422 2328 
Q 422 3509 836 4129 
Q 1250 4750 2034 4750 
z
" transform="scale(0.015625)"/>
       </defs>
       <use xlink:href="#DejaVuSans-30"/>
      </g>
     </g>
    </g>
    <g id="xtick_2">
     <g id="line2d_2">
      <g>
       <use xlink:href="#m29f25e85f1" x="114.414545" y="307.584" style="stroke: #000000; stroke-width: 0.8"/>
      </g>
     </g>
     <g id="text_2">
      <!-- 50 -->
      <g transform="translate(108.052045 322.182437) scale(0.1 -0.1)">
       <defs>
        <path id="DejaVuSans-35" d="M 691 4666 
L 3169 4666 
L 3169 4134 
L 1269 4134 
L 1269 2991 
Q 1406 3038 1543 3061 
Q 1681 3084 1819 3084 
Q 2600 3084 3056 2656 
Q 3513 2228 3513 1497 
Q 3513 744 3044 326 
Q 2575 -91 1722 -91 
Q 1428 -91 1123 -41 
Q 819 9 494 109 
L 494 744 
Q 775 591 1075 516 
Q 1375 441 1709 441 
Q 2250 441 2565 725 
Q 2881 1009 2881 1497 
Q 2881 1984 2565 2268 
Q 2250 2553 1709 2553 
Q 1456 2553 1204 2497 
Q 953 2441 691 2322 
L 691 4666 
z
" transform="scale(0.015625)"/>
       </defs>
       <use xlink:href="#DejaVuSans-35"/>
       <use xlink:href="#DejaVuSans-30" transform="translate(63.623047 0)"/>
      </g>
     </g>
    </g>
    <g id="xtick_3">
     <g id="line2d_3">
      <g>
       <use xlink:href="#m29f25e85f1" x="154.996364" y="307.584" style="stroke: #000000; stroke-width: 0.8"/>
      </g>
     </g>
     <g id="text_3">
      <!-- 100 -->
      <g transform="translate(145.452614 322.182437) scale(0.1 -0.1)">
       <defs>
        <path id="DejaVuSans-31" d="M 794 531 
L 1825 531 
L 1825 4091 
L 703 3866 
L 703 4441 
L 1819 4666 
L 2450 4666 
L 2450 531 
L 3481 531 
L 3481 0 
L 794 0 
L 794 531 
z
" transform="scale(0.015625)"/>
       </defs>
       <use xlink:href="#DejaVuSans-31"/>
       <use xlink:href="#DejaVuSans-30" transform="translate(63.623047 0)"/>
       <use xlink:href="#DejaVuSans-30" transform="translate(127.246094 0)"/>
      </g>
     </g>
    </g>
    <g id="xtick_4">
     <g id="line2d_4">
      <g>
       <use xlink:href="#m29f25e85f1" x="195.578182" y="307.584" style="stroke: #000000; stroke-width: 0.8"/>
      </g>
     </g>
     <g id="text_4">
      <!-- 150 -->
      <g transform="translate(186.034432 322.182437) scale(0.1 -0.1)">
       <use xlink:href="#DejaVuSans-31"/>
       <use xlink:href="#DejaVuSans-35" transform="translate(63.623047 0)"/>
       <use xlink:href="#DejaVuSans-30" transform="translate(127.246094 0)"/>
      </g>
     </g>
    </g>
    <g id="xtick_5">
     <g id="line2d_5">
      <g>
       <use xlink:href="#m29f25e85f1" x="236.16" y="307.584" style="stroke: #000000; stroke-width: 0.8"/>
      </g>
     </g>
     <g id="text_5">
      <!-- 200 -->
      <g transform="translate(226.61625 322.182437) scale(0.1 -0.1)">
       <defs>
        <path id="DejaVuSans-32" d="M 1228 531 
L 3431 531 
L 3431 0 
L 469 0 
L 469 531 
Q 828 903 1448 1529 
Q 2069 2156 2228 2338 
Q 2531 2678 2651 2914 
Q 2772 3150 2772 3378 
Q 2772 3750 2511 3984 
Q 2250 4219 1831 4219 
Q 1534 4219 1204 4116 
Q 875 4013 500 3803 
L 500 4441 
Q 881 4594 1212 4672 
Q 1544 4750 1819 4750 
Q 2544 4750 2975 4387 
Q 3406 4025 3406 3419 
Q 3406 3131 3298 2873 
Q 3191 2616 2906 2266 
Q 2828 2175 2409 1742 
Q 1991 1309 1228 531 
z
" transform="scale(0.015625)"/>
       </defs>
       <use xlink:href="#DejaVuSans-32"/>
       <use xlink:href="#DejaVuSans-30" transform="translate(63.623047 0)"/>
       <use xlink:href="#DejaVuSans-30" transform="translate(127.246094 0)"/>
      </g>
     </g>
    </g>
    <g id="xtick_6">
     <g id="line2d_6">
      <g>
       <use xlink:href="#m29f25e85f1" x="276.741818" y="307.584" style="stroke: #000000; stroke-width: 0.8"/>
      </g>
     </g>
     <g id="text_6">
      <!-- 250 -->
      <g transform="translate(267.198068 322.182437) scale(0.1 -0.1)">
       <use xlink:href="#DejaVuSans-32"/>
       <use xlink:href="#DejaVuSans-35" transform="translate(63.623047 0)"/>
       <use xlink:href="#DejaVuSans-30" transform="translate(127.246094 0)"/>
      </g>
     </g>
    </g>
    <g id="xtick_7">
     <g id="line2d_7">
      <g>
       <use xlink:href="#m29f25e85f1" x="317.323636" y="307.584" style="stroke: #000000; stroke-width: 0.8"/>
      </g>
     </g>
     <g id="text_7">
      <!-- 300 -->
      <g transform="translate(307.779886 322.182437) scale(0.1 -0.1)">
       <defs>
        <path id="DejaVuSans-33" d="M 2597 2516 
Q 3050 2419 3304 2112 
Q 3559 1806 3559 1356 
Q 3559 666 3084 287 
Q 2609 -91 1734 -91 
Q 1441 -91 1130 -33 
Q 819 25 488 141 
L 488 750 
Q 750 597 1062 519 
Q 1375 441 1716 441 
Q 2309 441 2620 675 
Q 2931 909 2931 1356 
Q 2931 1769 2642 2001 
Q 2353 2234 1838 2234 
L 1294 2234 
L 1294 2753 
L 1863 2753 
Q 2328 2753 2575 2939 
Q 2822 3125 2822 3475 
Q 2822 3834 2567 4026 
Q 2313 4219 1838 4219 
Q 1578 4219 1281 4162 
Q 984 4106 628 3988 
L 628 4550 
Q 988 4650 1302 4700 
Q 1616 4750 1894 4750 
Q 2613 4750 3031 4423 
Q 3450 4097 3450 3541 
Q 3450 3153 3228 2886 
Q 3006 2619 2597 2516 
z
" transform="scale(0.015625)"/>
       </defs>
       <use xlink:href="#DejaVuSans-33"/>
       <use xlink:href="#DejaVuSans-30" transform="translate(63.623047 0)"/>
       <use xlink:href="#DejaVuSans-30" transform="translate(127.246094 0)"/>
      </g>
     </g>
    </g>
    <g id="xtick_8">
     <g id="line2d_8">
      <g>
       <use xlink:href="#m29f25e85f1" x="357.905455" y="307.584" style="stroke: #000000; stroke-width: 0.8"/>
      </g>
     </g>
     <g id="text_8">
      <!-- 350 -->
      <g transform="translate(348.361705 322.182437) scale(0.1 -0.1)">
       <use xlink:href="#DejaVuSans-33"/>
       <use xlink:href="#DejaVuSans-35" transform="translate(63.623047 0)"/>
       <use xlink:href="#DejaVuSans-30" transform="translate(127.246094 0)"/>
      </g>
     </g>
    </g>
    <g id="xtick_9">
     <g id="line2d_9">
      <g>
       <use xlink:href="#m29f25e85f1" x="398.487273" y="307.584" style="stroke: #000000; stroke-width: 0.8"/>
      </g>
     </g>
     <g id="text_9">
      <!-- 400 -->
      <g transform="translate(388.943523 322.182437) scale(0.1 -0.1)">
       <defs>
        <path id="DejaVuSans-34" d="M 2419 4116 
L 825 1625 
L 2419 1625 
L 2419 4116 
z
M 2253 4666 
L 3047 4666 
L 3047 1625 
L 3713 1625 
L 3713 1100 
L 3047 1100 
L 3047 0 
L 2419 0 
L 2419 1100 
L 313 1100 
L 313 1709 
L 2253 4666 
z
" transform="scale(0.015625)"/>
       </defs>
       <use xlink:href="#DejaVuSans-34"/>
       <use xlink:href="#DejaVuSans-30" transform="translate(63.623047 0)"/>
       <use xlink:href="#DejaVuSans-30" transform="translate(127.246094 0)"/>
      </g>
     </g>
    </g>
    <g id="text_10">
     <!-- Iteration -->
     <g transform="translate(214.951406 335.860562) scale(0.1 -0.1)">
      <defs>
       <path id="DejaVuSans-49" d="M 628 4666 
L 1259 4666 
L 1259 0 
L 628 0 
L 628 4666 
z
" transform="scale(0.015625)"/>
       <path id="DejaVuSans-74" d="M 1172 4494 
L 1172 3500 
L 2356 3500 
L 2356 3053 
L 1172 3053 
L 1172 1153 
Q 1172 725 1289 603 
Q 1406 481 1766 481 
L 2356 481 
L 2356 0 
L 1766 0 
Q 1100 0 847 248 
Q 594 497 594 1153 
L 594 3053 
L 172 3053 
L 172 3500 
L 594 3500 
L 594 4494 
L 1172 4494 
z
" transform="scale(0.015625)"/>
       <path id="DejaVuSans-65" d="M 3597 1894 
L 3597 1613 
L 953 1613 
Q 991 1019 1311 708 
Q 1631 397 2203 397 
Q 2534 397 2845 478 
Q 3156 559 3463 722 
L 3463 178 
Q 3153 47 2828 -22 
Q 2503 -91 2169 -91 
Q 1331 -91 842 396 
Q 353 884 353 1716 
Q 353 2575 817 3079 
Q 1281 3584 2069 3584 
Q 2775 3584 3186 3129 
Q 3597 2675 3597 1894 
z
M 3022 2063 
Q 3016 2534 2758 2815 
Q 2500 3097 2075 3097 
Q 1594 3097 1305 2825 
Q 1016 2553 972 2059 
L 3022 2063 
z
" transform="scale(0.015625)"/>
       <path id="DejaVuSans-72" d="M 2631 2963 
Q 2534 3019 2420 3045 
Q 2306 3072 2169 3072 
Q 1681 3072 1420 2755 
Q 1159 2438 1159 1844 
L 1159 0 
L 581 0 
L 581 3500 
L 1159 3500 
L 1159 2956 
Q 1341 3275 1631 3429 
Q 1922 3584 2338 3584 
Q 2397 3584 2469 3576 
Q 2541 3569 2628 3553 
L 2631 2963 
z
" transform="scale(0.015625)"/>
       <path id="DejaVuSans-61" d="M 2194 1759 
Q 1497 1759 1228 1600 
Q 959 1441 959 1056 
Q 959 750 1161 570 
Q 1363 391 1709 391 
Q 2188 391 2477 730 
Q 2766 1069 2766 1631 
L 2766 1759 
L 2194 1759 
z
M 3341 1997 
L 3341 0 
L 2766 0 
L 2766 531 
Q 2569 213 2275 61 
Q 1981 -91 1556 -91 
Q 1019 -91 701 211 
Q 384 513 384 1019 
Q 384 1609 779 1909 
Q 1175 2209 1959 2209 
L 2766 2209 
L 2766 2266 
Q 2766 2663 2505 2880 
Q 2244 3097 1772 3097 
Q 1472 3097 1187 3025 
Q 903 2953 641 2809 
L 641 3341 
Q 956 3463 1253 3523 
Q 1550 3584 1831 3584 
Q 2591 3584 2966 3190 
Q 3341 2797 3341 1997 
z
" transform="scale(0.015625)"/>
       <path id="DejaVuSans-69" d="M 603 3500 
L 1178 3500 
L 1178 0 
L 603 0 
L 603 3500 
z
M 603 4863 
L 1178 4863 
L 1178 4134 
L 603 4134 
L 603 4863 
z
" transform="scale(0.015625)"/>
       <path id="DejaVuSans-6f" d="M 1959 3097 
Q 1497 3097 1228 2736 
Q 959 2375 959 1747 
Q 959 1119 1226 758 
Q 1494 397 1959 397 
Q 2419 397 2687 759 
Q 2956 1122 2956 1747 
Q 2956 2369 2687 2733 
Q 2419 3097 1959 3097 
z
M 1959 3584 
Q 2709 3584 3137 3096 
Q 3566 2609 3566 1747 
Q 3566 888 3137 398 
Q 2709 -91 1959 -91 
Q 1206 -91 779 398 
Q 353 888 353 1747 
Q 353 2609 779 3096 
Q 1206 3584 1959 3584 
z
" transform="scale(0.015625)"/>
       <path id="DejaVuSans-6e" d="M 3513 2113 
L 3513 0 
L 2938 0 
L 2938 2094 
Q 2938 2591 2744 2837 
Q 2550 3084 2163 3084 
Q 1697 3084 1428 2787 
Q 1159 2491 1159 1978 
L 1159 0 
L 581 0 
L 581 3500 
L 1159 3500 
L 1159 2956 
Q 1366 3272 1645 3428 
Q 1925 3584 2291 3584 
Q 2894 3584 3203 3211 
Q 3513 2838 3513 2113 
z
" transform="scale(0.015625)"/>
      </defs>
      <use xlink:href="#DejaVuSans-49"/>
      <use xlink:href="#DejaVuSans-74" transform="translate(29.492188 0)"/>
      <use xlink:href="#DejaVuSans-65" transform="translate(68.701172 0)"/>
      <use xlink:href="#DejaVuSans-72" transform="translate(130.224609 0)"/>
      <use xlink:href="#DejaVuSans-61" transform="translate(171.337891 0)"/>
      <use xlink:href="#DejaVuSans-74" transform="translate(232.617188 0)"/>
      <use xlink:href="#DejaVuSans-69" transform="translate(271.826172 0)"/>
      <use xlink:href="#DejaVuSans-6f" transform="translate(299.609375 0)"/>
      <use xlink:href="#DejaVuSans-6e" transform="translate(360.791016 0)"/>
     </g>
    </g>
   </g>
   <g id="matplotlib.axis_2">
    <g id="ytick_1">
     <g id="line2d_10">
      <defs>
       <path id="m5bd646f9fd" d="M 0 0 
L -3.5 0 
" style="stroke: #000000; stroke-width: 0.8"/>
      </defs>
      <g>
       <use xlink:href="#m5bd646f9fd" x="57.6" y="305.429614" style="stroke: #000000; stroke-width: 0.8"/>
      </g>
     </g>
     <g id="text_11">
      <!-- 0.0 -->
      <g transform="translate(34.696875 309.228833) scale(0.1 -0.1)">
       <defs>
        <path id="DejaVuSans-2e" d="M 684 794 
L 1344 794 
L 1344 0 
L 684 0 
L 684 794 
z
" transform="scale(0.015625)"/>
       </defs>
       <use xlink:href="#DejaVuSans-30"/>
       <use xlink:href="#DejaVuSans-2e" transform="translate(63.623047 0)"/>
       <use xlink:href="#DejaVuSans-30" transform="translate(95.410156 0)"/>
      </g>
     </g>
    </g>
    <g id="ytick_2">
     <g id="line2d_11">
      <g>
       <use xlink:href="#m5bd646f9fd" x="57.6" y="264.122393" style="stroke: #000000; stroke-width: 0.8"/>
      </g>
     </g>
     <g id="text_12">
      <!-- 0.2 -->
      <g transform="translate(34.696875 267.921611) scale(0.1 -0.1)">
       <use xlink:href="#DejaVuSans-30"/>
       <use xlink:href="#DejaVuSans-2e" transform="translate(63.623047 0)"/>
       <use xlink:href="#DejaVuSans-32" transform="translate(95.410156 0)"/>
      </g>
     </g>
    </g>
    <g id="ytick_3">
     <g id="line2d_12">
      <g>
       <use xlink:href="#m5bd646f9fd" x="57.6" y="222.815171" style="stroke: #000000; stroke-width: 0.8"/>
      </g>
     </g>
     <g id="text_13">
      <!-- 0.4 -->
      <g transform="translate(34.696875 226.61439) scale(0.1 -0.1)">
       <use xlink:href="#DejaVuSans-30"/>
       <use xlink:href="#DejaVuSans-2e" transform="translate(63.623047 0)"/>
       <use xlink:href="#DejaVuSans-34" transform="translate(95.410156 0)"/>
      </g>
     </g>
    </g>
    <g id="ytick_4">
     <g id="line2d_13">
      <g>
       <use xlink:href="#m5bd646f9fd" x="57.6" y="181.507949" style="stroke: #000000; stroke-width: 0.8"/>
      </g>
     </g>
     <g id="text_14">
      <!-- 0.6 -->
      <g transform="translate(34.696875 185.307168) scale(0.1 -0.1)">
       <defs>
        <path id="DejaVuSans-36" d="M 2113 2584 
Q 1688 2584 1439 2293 
Q 1191 2003 1191 1497 
Q 1191 994 1439 701 
Q 1688 409 2113 409 
Q 2538 409 2786 701 
Q 3034 994 3034 1497 
Q 3034 2003 2786 2293 
Q 2538 2584 2113 2584 
z
M 3366 4563 
L 3366 3988 
Q 3128 4100 2886 4159 
Q 2644 4219 2406 4219 
Q 1781 4219 1451 3797 
Q 1122 3375 1075 2522 
Q 1259 2794 1537 2939 
Q 1816 3084 2150 3084 
Q 2853 3084 3261 2657 
Q 3669 2231 3669 1497 
Q 3669 778 3244 343 
Q 2819 -91 2113 -91 
Q 1303 -91 875 529 
Q 447 1150 447 2328 
Q 447 3434 972 4092 
Q 1497 4750 2381 4750 
Q 2619 4750 2861 4703 
Q 3103 4656 3366 4563 
z
" transform="scale(0.015625)"/>
       </defs>
       <use xlink:href="#DejaVuSans-30"/>
       <use xlink:href="#DejaVuSans-2e" transform="translate(63.623047 0)"/>
       <use xlink:href="#DejaVuSans-36" transform="translate(95.410156 0)"/>
      </g>
     </g>
    </g>
    <g id="ytick_5">
     <g id="line2d_14">
      <g>
       <use xlink:href="#m5bd646f9fd" x="57.6" y="140.200727" style="stroke: #000000; stroke-width: 0.8"/>
      </g>
     </g>
     <g id="text_15">
      <!-- 0.8 -->
      <g transform="translate(34.696875 143.999946) scale(0.1 -0.1)">
       <defs>
        <path id="DejaVuSans-38" d="M 2034 2216 
Q 1584 2216 1326 1975 
Q 1069 1734 1069 1313 
Q 1069 891 1326 650 
Q 1584 409 2034 409 
Q 2484 409 2743 651 
Q 3003 894 3003 1313 
Q 3003 1734 2745 1975 
Q 2488 2216 2034 2216 
z
M 1403 2484 
Q 997 2584 770 2862 
Q 544 3141 544 3541 
Q 544 4100 942 4425 
Q 1341 4750 2034 4750 
Q 2731 4750 3128 4425 
Q 3525 4100 3525 3541 
Q 3525 3141 3298 2862 
Q 3072 2584 2669 2484 
Q 3125 2378 3379 2068 
Q 3634 1759 3634 1313 
Q 3634 634 3220 271 
Q 2806 -91 2034 -91 
Q 1263 -91 848 271 
Q 434 634 434 1313 
Q 434 1759 690 2068 
Q 947 2378 1403 2484 
z
M 1172 3481 
Q 1172 3119 1398 2916 
Q 1625 2713 2034 2713 
Q 2441 2713 2670 2916 
Q 2900 3119 2900 3481 
Q 2900 3844 2670 4047 
Q 2441 4250 2034 4250 
Q 1625 4250 1398 4047 
Q 1172 3844 1172 3481 
z
" transform="scale(0.015625)"/>
       </defs>
       <use xlink:href="#DejaVuSans-30"/>
       <use xlink:href="#DejaVuSans-2e" transform="translate(63.623047 0)"/>
       <use xlink:href="#DejaVuSans-38" transform="translate(95.410156 0)"/>
      </g>
     </g>
    </g>
    <g id="ytick_6">
     <g id="line2d_15">
      <g>
       <use xlink:href="#m5bd646f9fd" x="57.6" y="98.893506" style="stroke: #000000; stroke-width: 0.8"/>
      </g>
     </g>
     <g id="text_16">
      <!-- 1.0 -->
      <g transform="translate(34.696875 102.692724) scale(0.1 -0.1)">
       <use xlink:href="#DejaVuSans-31"/>
       <use xlink:href="#DejaVuSans-2e" transform="translate(63.623047 0)"/>
       <use xlink:href="#DejaVuSans-30" transform="translate(95.410156 0)"/>
      </g>
     </g>
    </g>
    <g id="ytick_7">
     <g id="line2d_16">
      <g>
       <use xlink:href="#m5bd646f9fd" x="57.6" y="57.586284" style="stroke: #000000; stroke-width: 0.8"/>
      </g>
     </g>
     <g id="text_17">
      <!-- 1.2 -->
      <g transform="translate(34.696875 61.385503) scale(0.1 -0.1)">
       <use xlink:href="#DejaVuSans-31"/>
       <use xlink:href="#DejaVuSans-2e" transform="translate(63.623047 0)"/>
       <use xlink:href="#DejaVuSans-32" transform="translate(95.410156 0)"/>
      </g>
     </g>
    </g>
    <g id="text_18">
     <!-- loss value -->
     <g transform="translate(28.617187 199.432687) rotate(-90) scale(0.1 -0.1)">
      <defs>
       <path id="DejaVuSans-6c" d="M 603 4863 
L 1178 4863 
L 1178 0 
L 603 0 
L 603 4863 
z
" transform="scale(0.015625)"/>
       <path id="DejaVuSans-73" d="M 2834 3397 
L 2834 2853 
Q 2591 2978 2328 3040 
Q 2066 3103 1784 3103 
Q 1356 3103 1142 2972 
Q 928 2841 928 2578 
Q 928 2378 1081 2264 
Q 1234 2150 1697 2047 
L 1894 2003 
Q 2506 1872 2764 1633 
Q 3022 1394 3022 966 
Q 3022 478 2636 193 
Q 2250 -91 1575 -91 
Q 1294 -91 989 -36 
Q 684 19 347 128 
L 347 722 
Q 666 556 975 473 
Q 1284 391 1588 391 
Q 1994 391 2212 530 
Q 2431 669 2431 922 
Q 2431 1156 2273 1281 
Q 2116 1406 1581 1522 
L 1381 1569 
Q 847 1681 609 1914 
Q 372 2147 372 2553 
Q 372 3047 722 3315 
Q 1072 3584 1716 3584 
Q 2034 3584 2315 3537 
Q 2597 3491 2834 3397 
z
" transform="scale(0.015625)"/>
       <path id="DejaVuSans-20" transform="scale(0.015625)"/>
       <path id="DejaVuSans-76" d="M 191 3500 
L 800 3500 
L 1894 563 
L 2988 3500 
L 3597 3500 
L 2284 0 
L 1503 0 
L 191 3500 
z
" transform="scale(0.015625)"/>
       <path id="DejaVuSans-75" d="M 544 1381 
L 544 3500 
L 1119 3500 
L 1119 1403 
Q 1119 906 1312 657 
Q 1506 409 1894 409 
Q 2359 409 2629 706 
Q 2900 1003 2900 1516 
L 2900 3500 
L 3475 3500 
L 3475 0 
L 2900 0 
L 2900 538 
Q 2691 219 2414 64 
Q 2138 -91 1772 -91 
Q 1169 -91 856 284 
Q 544 659 544 1381 
z
M 1991 3584 
L 1991 3584 
z
" transform="scale(0.015625)"/>
      </defs>
      <use xlink:href="#DejaVuSans-6c"/>
      <use xlink:href="#DejaVuSans-6f" transform="translate(27.783203 0)"/>
      <use xlink:href="#DejaVuSans-73" transform="translate(88.964844 0)"/>
      <use xlink:href="#DejaVuSans-73" transform="translate(141.064453 0)"/>
      <use xlink:href="#DejaVuSans-20" transform="translate(193.164062 0)"/>
      <use xlink:href="#DejaVuSans-76" transform="translate(224.951172 0)"/>
      <use xlink:href="#DejaVuSans-61" transform="translate(284.130859 0)"/>
      <use xlink:href="#DejaVuSans-6c" transform="translate(345.410156 0)"/>
      <use xlink:href="#DejaVuSans-75" transform="translate(373.193359 0)"/>
      <use xlink:href="#DejaVuSans-65" transform="translate(436.572266 0)"/>
     </g>
    </g>
   </g>
   <g id="line2d_17">
    <path d="M 73.832727 136.495692 
L 74.644364 159.406945 
L 75.456 170.315473 
L 76.267636 170.465711 
L 77.079273 176.54442 
L 77.890909 129.680014 
L 78.702545 218.609425 
L 79.514182 98.923888 
L 80.325818 169.984727 
L 81.137455 171.931659 
L 81.949091 175.209837 
L 82.760727 189.061342 
L 83.572364 176.081421 
L 84.384 178.005296 
L 85.195636 215.213952 
L 86.007273 194.674713 
L 86.818909 215.144194 
L 87.630545 96.048276 
L 88.442182 191.641022 
L 89.253818 232.491995 
L 90.065455 237.616159 
L 90.877091 165.379992 
L 91.688727 232.45041 
L 92.500364 201.209108 
L 93.312 247.68271 
L 94.123636 239.018572 
L 95.746909 229.975449 
L 96.558545 234.79065 
L 97.370182 257.968232 
L 98.181818 223.979762 
L 98.993455 146.817095 
L 99.805091 217.872272 
L 100.616727 206.445119 
L 101.428364 250.298534 
L 102.24 276.04347 
L 103.051636 251.617907 
L 103.863273 253.957052 
L 104.674909 131.986992 
L 105.486545 250.145059 
L 106.298182 208.923422 
L 107.109818 258.165172 
L 107.921455 240.294206 
L 108.733091 272.523103 
L 109.544727 214.213126 
L 110.356364 252.974131 
L 111.168 246.253374 
L 111.979636 260.886476 
L 113.602909 224.678261 
L 114.414545 152.971711 
L 115.226182 184.967026 
L 116.037818 276.943713 
L 116.849455 234.862919 
L 117.661091 276.716482 
L 118.472727 255.618297 
L 119.284364 260.523399 
L 120.096 264.322616 
L 120.907636 258.878742 
L 121.719273 251.329152 
L 122.530909 228.087478 
L 123.342545 233.466378 
L 124.154182 234.053448 
L 124.965818 166.465398 
L 125.777455 268.251048 
L 126.589091 223.395992 
L 127.400727 240.124038 
L 128.212364 271.99601 
L 129.024 227.673273 
L 129.835636 252.821081 
L 130.647273 266.077606 
L 131.458909 233.895362 
L 133.082182 255.628902 
L 133.893818 276.687636 
L 135.517091 245.492929 
L 136.328727 264.487679 
L 137.140364 256.996696 
L 137.952 265.640183 
L 138.763636 239.834993 
L 139.575273 285.291817 
L 140.386909 286.363757 
L 142.010182 240.351315 
L 142.821818 269.552275 
L 143.633455 266.710271 
L 144.445091 246.986926 
L 145.256727 248.212093 
L 146.068364 271.265225 
L 146.88 279.931606 
L 147.691636 229.323719 
L 148.503273 263.565169 
L 149.314909 263.103906 
L 150.126545 265.922989 
L 150.938182 53.568 
L 151.749818 262.67069 
L 152.561455 234.271855 
L 153.373091 284.709659 
L 154.184727 179.380245 
L 154.996364 260.983673 
L 155.808 234.354391 
L 156.619636 268.731961 
L 157.431273 282.098311 
L 158.242909 230.499532 
L 159.054545 272.528108 
L 159.866182 259.901007 
L 160.677818 268.184331 
L 161.489455 256.20874 
L 162.301091 265.428014 
L 163.112727 237.152761 
L 163.924364 271.424713 
L 164.736 253.796757 
L 165.547636 259.433817 
L 166.359273 248.747323 
L 167.170909 271.367703 
L 167.982545 257.107613 
L 168.794182 265.205366 
L 169.605818 288.614091 
L 170.417455 234.32098 
L 171.229091 280.769209 
L 172.040727 230.332233 
L 172.852364 258.21054 
L 173.664 258.261554 
L 174.475636 273.323816 
L 175.287273 280.153377 
L 176.098909 255.686005 
L 176.910545 288.826717 
L 177.722182 274.045477 
L 178.533818 253.816312 
L 179.345455 262.588225 
L 180.157091 281.64247 
L 180.968727 238.004888 
L 181.780364 262.962006 
L 182.592 277.562233 
L 183.403636 274.350928 
L 184.215273 256.802734 
L 185.026909 288.159038 
L 185.838545 239.737648 
L 186.650182 283.292376 
L 187.461818 230.892619 
L 188.273455 278.605598 
L 189.085091 287.077796 
L 189.896727 140.306546 
L 190.708364 289.151968 
L 191.52 254.64589 
L 192.331636 279.879816 
L 193.143273 268.734857 
L 193.954909 281.546204 
L 194.766545 253.935459 
L 195.578182 279.992746 
L 196.389818 283.58521 
L 197.201455 283.608748 
L 198.013091 239.329425 
L 198.824727 277.903259 
L 199.636364 274.702756 
L 200.448 262.731169 
L 201.259636 281.634171 
L 202.071273 269.777496 
L 202.882909 290.506278 
L 203.694545 288.390332 
L 204.506182 262.456013 
L 205.317818 256.047801 
L 206.129455 269.480899 
L 206.941091 286.216093 
L 207.752727 232.225768 
L 208.564364 289.116451 
L 209.376 209.268603 
L 210.187636 262.441699 
L 210.999273 261.343377 
L 211.810909 256.567388 
L 212.622545 281.944212 
L 213.434182 224.520052 
L 214.245818 281.32559 
L 215.057455 226.30102 
L 215.869091 205.71028 
L 216.680727 263.146104 
L 217.492364 254.472059 
L 218.304 268.552831 
L 219.115636 277.341764 
L 219.927273 291.494279 
L 220.738909 271.201653 
L 221.550545 260.044027 
L 222.362182 230.018444 
L 223.173818 247.142691 
L 223.985455 223.181697 
L 224.797091 274.764789 
L 225.608727 271.472386 
L 226.420364 280.780631 
L 227.232 234.495044 
L 228.043636 269.058347 
L 228.855273 72.422164 
L 229.666909 266.348634 
L 230.478545 217.825732 
L 231.290182 217.785495 
L 232.101818 281.865107 
L 232.913455 260.393261 
L 233.725091 286.902926 
L 234.536727 256.758121 
L 235.348364 292.562917 
L 236.16 260.195997 
L 236.971636 240.875909 
L 237.783273 284.334203 
L 238.594909 268.843304 
L 239.406545 260.151553 
L 240.218182 278.518639 
L 241.029818 262.715408 
L 241.841455 262.331834 
L 242.653091 258.607301 
L 243.464727 284.738628 
L 244.276364 277.911851 
L 245.088 260.724925 
L 245.899636 190.594296 
L 246.711273 276.169877 
L 247.522909 281.70893 
L 248.334545 255.230263 
L 249.146182 268.709682 
L 249.957818 270.752975 
L 250.769455 252.50579 
L 251.581091 252.716725 
L 252.392727 276.892184 
L 253.204364 282.786175 
L 254.016 275.014065 
L 254.827636 288.64339 
L 255.639273 265.303952 
L 256.450909 278.429179 
L 257.262545 275.035054 
L 258.074182 262.738884 
L 258.885818 269.861214 
L 259.697455 257.388835 
L 260.509091 261.857042 
L 261.320727 274.08957 
L 262.132364 231.602173 
L 262.944 279.941281 
L 263.755636 267.501307 
L 264.567273 281.517605 
L 265.378909 249.335766 
L 266.190545 233.153032 
L 267.002182 247.556226 
L 267.813818 152.616085 
L 268.625455 268.340487 
L 269.437091 218.323969 
L 270.248727 285.37231 
L 271.060364 249.78838 
L 271.872 283.786715 
L 272.683636 261.104882 
L 273.495273 283.27126 
L 274.306909 219.872089 
L 275.118545 289.251359 
L 275.930182 283.307087 
L 276.741818 268.499788 
L 277.553455 275.639879 
L 278.365091 280.695095 
L 279.176727 272.06987 
L 279.988364 217.604869 
L 280.8 291.794066 
L 281.611636 241.339676 
L 282.423273 286.530577 
L 283.234909 289.197545 
L 284.046545 232.661714 
L 284.858182 287.507921 
L 285.669818 276.827661 
L 286.481455 277.076368 
L 288.104727 257.9821 
L 288.916364 263.646184 
L 289.728 255.686045 
L 290.539636 269.507668 
L 291.351273 288.526804 
L 292.162909 236.625464 
L 292.974545 245.036898 
L 293.786182 226.347289 
L 294.597818 225.704847 
L 295.409455 247.267003 
L 296.221091 262.732563 
L 297.032727 291.4852 
L 297.844364 278.357793 
L 298.656 286.134993 
L 299.467636 266.20241 
L 300.279273 284.782069 
L 301.090909 260.999597 
L 301.902545 253.271486 
L 302.714182 291.337817 
L 303.525818 282.44448 
L 304.337455 253.286855 
L 305.149091 255.143154 
L 305.960727 261.406512 
L 306.772364 146.525878 
L 307.584 276.411471 
L 308.395636 265.163126 
L 309.207273 280.815564 
L 310.018909 292.759125 
L 310.830545 255.215377 
L 311.642182 243.92585 
L 312.453818 280.076499 
L 313.265455 199.349396 
L 314.077091 269.65268 
L 314.888727 267.981008 
L 315.700364 270.792052 
L 316.512 260.656644 
L 317.323636 260.752436 
L 318.135273 264.961027 
L 318.946909 267.508995 
L 319.758545 149.890008 
L 320.570182 241.858946 
L 321.381818 268.484031 
L 322.193455 264.064871 
L 323.816727 282.942039 
L 324.628364 257.077923 
L 325.44 248.80546 
L 326.251636 277.789786 
L 327.063273 284.177034 
L 327.874909 272.260542 
L 328.686545 267.464622 
L 329.498182 280.086185 
L 330.309818 266.028564 
L 331.121455 200.246992 
L 331.933091 269.963893 
L 332.744727 272.040707 
L 333.556364 245.418998 
L 334.368 263.786217 
L 335.179636 264.40004 
L 335.991273 282.171467 
L 336.802909 253.169967 
L 337.614545 273.498047 
L 338.426182 286.121599 
L 339.237818 291.543508 
L 340.049455 270.908189 
L 340.861091 286.015999 
L 341.672727 261.853909 
L 342.484364 280.04718 
L 343.296 253.915652 
L 344.107636 253.321491 
L 344.919273 282.690153 
L 345.730909 95.011484 
L 346.542545 277.665949 
L 347.354182 260.709977 
L 348.165818 272.072145 
L 348.977455 240.287546 
L 349.789091 288.977454 
L 350.600727 261.440353 
L 351.412364 276.110713 
L 352.224 276.440274 
L 353.035636 259.806428 
L 353.847273 287.213694 
L 354.658909 264.106585 
L 355.470545 291.078145 
L 356.282182 266.879931 
L 357.093818 264.441416 
L 357.905455 288.526217 
L 358.717091 271.474069 
L 359.528727 228.699532 
L 360.340364 276.622165 
L 361.152 214.610792 
L 361.963636 282.576993 
L 362.775273 276.81821 
L 363.586909 275.389012 
L 364.398545 285.561565 
L 365.210182 275.677275 
L 366.021818 272.859611 
L 366.833455 287.071449 
L 367.645091 244.18927 
L 368.456727 269.670992 
L 369.268364 245.483634 
L 370.08 278.94559 
L 370.891636 276.252357 
L 371.703273 169.346304 
L 372.514909 278.040949 
L 373.326545 255.67683 
L 374.138182 264.910806 
L 374.949818 266.600476 
L 375.761455 228.870027 
L 376.573091 243.688725 
L 377.384727 245.166066 
L 378.196364 280.942262 
L 379.008 246.951854 
L 379.819636 263.59789 
L 380.631273 262.083002 
L 381.442909 275.372771 
L 383.066182 258.708392 
L 383.877818 257.427019 
L 384.689455 295.488 
L 385.501091 223.843682 
L 386.312727 276.763548 
L 387.936 229.79041 
L 388.747636 280.916638 
L 389.559273 272.206754 
L 390.370909 294.685272 
L 391.182545 241.574031 
L 391.994182 264.730017 
L 392.805818 266.6643 
L 393.617455 263.538283 
L 394.429091 264.232199 
L 395.240727 271.764791 
L 396.052364 274.298433 
L 396.864 252.482216 
L 397.675636 90.048871 
L 397.675636 90.048871 
" clip-path="url(#p028a4caa9a)" style="fill: none; stroke: #1f77b4; stroke-width: 1.5; stroke-linecap: square"/>
   </g>
   <g id="line2d_18">
    <path d="M 86.818909 176.435902 
L 99.805091 239.490077 
L 112.791273 228.530604 
L 125.777455 258.13782 
L 138.763636 238.853136 
L 151.749818 264.217476 
L 164.736 264.500773 
L 177.722182 261.988373 
L 190.708364 264.972696 
L 203.694545 263.017857 
L 216.680727 266.529886 
L 229.666909 265.491293 
L 242.653091 264.756325 
L 255.639273 264.371857 
L 268.625455 265.612342 
L 281.611636 264.664809 
L 294.597818 264.104056 
L 307.584 266.139735 
L 320.570182 265.41659 
L 333.556364 265.719382 
L 346.542545 263.090726 
L 359.528727 262.825248 
L 372.514909 263.714128 
L 385.501091 264.504269 
L 398.487273 265.469419 
" clip-path="url(#p028a4caa9a)" style="fill: none; stroke: #ff7f0e; stroke-width: 1.5; stroke-linecap: square"/>
   </g>
   <g id="patch_3">
    <path d="M 57.6 307.584 
L 57.6 41.472 
" style="fill: none; stroke: #000000; stroke-width: 0.8; stroke-linejoin: miter; stroke-linecap: square"/>
   </g>
   <g id="patch_4">
    <path d="M 414.72 307.584 
L 414.72 41.472 
" style="fill: none; stroke: #000000; stroke-width: 0.8; stroke-linejoin: miter; stroke-linecap: square"/>
   </g>
   <g id="patch_5">
    <path d="M 57.6 307.584 
L 414.72 307.584 
" style="fill: none; stroke: #000000; stroke-width: 0.8; stroke-linejoin: miter; stroke-linecap: square"/>
   </g>
   <g id="patch_6">
    <path d="M 57.6 41.472 
L 414.72 41.472 
" style="fill: none; stroke: #000000; stroke-width: 0.8; stroke-linejoin: miter; stroke-linecap: square"/>
   </g>
   <g id="legend_1">
    <g id="patch_7">
     <path d="M 351.621563 78.82825 
L 407.72 78.82825 
Q 409.72 78.82825 409.72 76.82825 
L 409.72 48.472 
Q 409.72 46.472 407.72 46.472 
L 351.621563 46.472 
Q 349.621563 46.472 349.621563 48.472 
L 349.621563 76.82825 
Q 349.621563 78.82825 351.621563 78.82825 
z
" style="fill: #ffffff; opacity: 0.8; stroke: #cccccc; stroke-linejoin: miter"/>
    </g>
    <g id="line2d_19">
     <path d="M 353.621563 54.570437 
L 363.621563 54.570437 
L 373.621563 54.570437 
" style="fill: none; stroke: #1f77b4; stroke-width: 1.5; stroke-linecap: square"/>
    </g>
    <g id="text_19">
     <!-- Train -->
     <g transform="translate(381.621563 58.070437) scale(0.1 -0.1)">
      <defs>
       <path id="DejaVuSans-54" d="M -19 4666 
L 3928 4666 
L 3928 4134 
L 2272 4134 
L 2272 0 
L 1638 0 
L 1638 4134 
L -19 4134 
L -19 4666 
z
" transform="scale(0.015625)"/>
      </defs>
      <use xlink:href="#DejaVuSans-54"/>
      <use xlink:href="#DejaVuSans-72" transform="translate(46.333984 0)"/>
      <use xlink:href="#DejaVuSans-61" transform="translate(87.447266 0)"/>
      <use xlink:href="#DejaVuSans-69" transform="translate(148.726562 0)"/>
      <use xlink:href="#DejaVuSans-6e" transform="translate(176.509766 0)"/>
     </g>
    </g>
    <g id="line2d_20">
     <path d="M 353.621563 69.248562 
L 363.621563 69.248562 
L 373.621563 69.248562 
" style="fill: none; stroke: #ff7f0e; stroke-width: 1.5; stroke-linecap: square"/>
    </g>
    <g id="text_20">
     <!-- Valid -->
     <g transform="translate(381.621563 72.748562) scale(0.1 -0.1)">
      <defs>
       <path id="DejaVuSans-56" d="M 1831 0 
L 50 4666 
L 709 4666 
L 2188 738 
L 3669 4666 
L 4325 4666 
L 2547 0 
L 1831 0 
z
" transform="scale(0.015625)"/>
       <path id="DejaVuSans-64" d="M 2906 2969 
L 2906 4863 
L 3481 4863 
L 3481 0 
L 2906 0 
L 2906 525 
Q 2725 213 2448 61 
Q 2172 -91 1784 -91 
Q 1150 -91 751 415 
Q 353 922 353 1747 
Q 353 2572 751 3078 
Q 1150 3584 1784 3584 
Q 2172 3584 2448 3432 
Q 2725 3281 2906 2969 
z
M 947 1747 
Q 947 1113 1208 752 
Q 1469 391 1925 391 
Q 2381 391 2643 752 
Q 2906 1113 2906 1747 
Q 2906 2381 2643 2742 
Q 2381 3103 1925 3103 
Q 1469 3103 1208 2742 
Q 947 2381 947 1747 
z
" transform="scale(0.015625)"/>
      </defs>
      <use xlink:href="#DejaVuSans-56"/>
      <use xlink:href="#DejaVuSans-61" transform="translate(60.658203 0)"/>
      <use xlink:href="#DejaVuSans-6c" transform="translate(121.9375 0)"/>
      <use xlink:href="#DejaVuSans-69" transform="translate(149.720703 0)"/>
      <use xlink:href="#DejaVuSans-64" transform="translate(177.503906 0)"/>
     </g>
    </g>
   </g>
  </g>
 </g>
 <defs>
  <clipPath id="p028a4caa9a">
   <rect x="57.6" y="41.472" width="357.12" height="266.112"/>
  </clipPath>
 </defs>
</svg>
