<?xml version="1.0" encoding="utf-8" standalone="no"?>
<!DOCTYPE svg PUBLIC "-//W3C//DTD SVG 1.1//EN"
  "http://www.w3.org/Graphics/SVG/1.1/DTD/svg11.dtd">
<svg xmlns:xlink="http://www.w3.org/1999/xlink" width="460.8pt" height="345.6pt" viewBox="0 0 460.8 345.6" xmlns="http://www.w3.org/2000/svg" version="1.1">
 <metadata>
  <rdf:RDF xmlns:dc="http://purl.org/dc/elements/1.1/" xmlns:cc="http://creativecommons.org/ns#" xmlns:rdf="http://www.w3.org/1999/02/22-rdf-syntax-ns#">
   <cc:Work>
    <dc:type rdf:resource="http://purl.org/dc/dcmitype/StillImage"/>
    <dc:date>2025-05-08T08:51:09.107661</dc:date>
    <dc:format>image/svg+xml</dc:format>
    <dc:creator>
     <cc:Agent>
      <dc:title>Matplotlib v3.10.1, https://matplotlib.org/</dc:title>
     </cc:Agent>
    </dc:creator>
   </cc:Work>
  </rdf:RDF>
 </metadata>
 <defs>
  <style type="text/css">*{stroke-linejoin: round; stroke-linecap: butt}</style>
 </defs>
 <g id="figure_1">
  <g id="patch_1">
   <path d="M 0 345.6 
L 460.8 345.6 
L 460.8 0 
L 0 0 
z
" style="fill: #ffffff"/>
  </g>
  <g id="axes_1">
   <g id="patch_2">
    <path d="M 57.6 307.584 
L 414.72 307.584 
L 414.72 41.472 
L 57.6 41.472 
z
" style="fill: #ffffff"/>
   </g>
   <g id="matplotlib.axis_1">
    <g id="xtick_1">
     <g id="line2d_1">
      <defs>
       <path id="mdc3f779a9a" d="M 0 0 
L 0 3.5 
" style="stroke: #000000; stroke-width: 0.8"/>
      </defs>
      <g>
       <use xlink:href="#mdc3f779a9a" x="73.832727" y="307.584" style="stroke: #000000; stroke-width: 0.8"/>
      </g>
     </g>
     <g id="text_1">
      <!-- 0 -->
      <g transform="translate(70.651477 322.182437) scale(0.1 -0.1)">
       <defs>
        <path id="DejaVuSans-30" d="M 2034 4250 
Q 1547 4250 1301 3770 
Q 1056 3291 1056 2328 
Q 1056 1369 1301 889 
Q 1547 409 2034 409 
Q 2525 409 2770 889 
Q 3016 1369 3016 2328 
Q 3016 3291 2770 3770 
Q 2525 4250 2034 4250 
z
M 2034 4750 
Q 2819 4750 3233 4129 
Q 3647 3509 3647 2328 
Q 3647 1150 3233 529 
Q 2819 -91 2034 -91 
Q 1250 -91 836 529 
Q 422 1150 422 2328 
Q 422 3509 836 4129 
Q 1250 4750 2034 4750 
z
" transform="scale(0.015625)"/>
       </defs>
       <use xlink:href="#DejaVuSans-30"/>
      </g>
     </g>
    </g>
    <g id="xtick_2">
     <g id="line2d_2">
      <g>
       <use xlink:href="#mdc3f779a9a" x="114.414545" y="307.584" style="stroke: #000000; stroke-width: 0.8"/>
      </g>
     </g>
     <g id="text_2">
      <!-- 50 -->
      <g transform="translate(108.052045 322.182437) scale(0.1 -0.1)">
       <defs>
        <path id="DejaVuSans-35" d="M 691 4666 
L 3169 4666 
L 3169 4134 
L 1269 4134 
L 1269 2991 
Q 1406 3038 1543 3061 
Q 1681 3084 1819 3084 
Q 2600 3084 3056 2656 
Q 3513 2228 3513 1497 
Q 3513 744 3044 326 
Q 2575 -91 1722 -91 
Q 1428 -91 1123 -41 
Q 819 9 494 109 
L 494 744 
Q 775 591 1075 516 
Q 1375 441 1709 441 
Q 2250 441 2565 725 
Q 2881 1009 2881 1497 
Q 2881 1984 2565 2268 
Q 2250 2553 1709 2553 
Q 1456 2553 1204 2497 
Q 953 2441 691 2322 
L 691 4666 
z
" transform="scale(0.015625)"/>
       </defs>
       <use xlink:href="#DejaVuSans-35"/>
       <use xlink:href="#DejaVuSans-30" transform="translate(63.623047 0)"/>
      </g>
     </g>
    </g>
    <g id="xtick_3">
     <g id="line2d_3">
      <g>
       <use xlink:href="#mdc3f779a9a" x="154.996364" y="307.584" style="stroke: #000000; stroke-width: 0.8"/>
      </g>
     </g>
     <g id="text_3">
      <!-- 100 -->
      <g transform="translate(145.452614 322.182437) scale(0.1 -0.1)">
       <defs>
        <path id="DejaVuSans-31" d="M 794 531 
L 1825 531 
L 1825 4091 
L 703 3866 
L 703 4441 
L 1819 4666 
L 2450 4666 
L 2450 531 
L 3481 531 
L 3481 0 
L 794 0 
L 794 531 
z
" transform="scale(0.015625)"/>
       </defs>
       <use xlink:href="#DejaVuSans-31"/>
       <use xlink:href="#DejaVuSans-30" transform="translate(63.623047 0)"/>
       <use xlink:href="#DejaVuSans-30" transform="translate(127.246094 0)"/>
      </g>
     </g>
    </g>
    <g id="xtick_4">
     <g id="line2d_4">
      <g>
       <use xlink:href="#mdc3f779a9a" x="195.578182" y="307.584" style="stroke: #000000; stroke-width: 0.8"/>
      </g>
     </g>
     <g id="text_4">
      <!-- 150 -->
      <g transform="translate(186.034432 322.182437) scale(0.1 -0.1)">
       <use xlink:href="#DejaVuSans-31"/>
       <use xlink:href="#DejaVuSans-35" transform="translate(63.623047 0)"/>
       <use xlink:href="#DejaVuSans-30" transform="translate(127.246094 0)"/>
      </g>
     </g>
    </g>
    <g id="xtick_5">
     <g id="line2d_5">
      <g>
       <use xlink:href="#mdc3f779a9a" x="236.16" y="307.584" style="stroke: #000000; stroke-width: 0.8"/>
      </g>
     </g>
     <g id="text_5">
      <!-- 200 -->
      <g transform="translate(226.61625 322.182437) scale(0.1 -0.1)">
       <defs>
        <path id="DejaVuSans-32" d="M 1228 531 
L 3431 531 
L 3431 0 
L 469 0 
L 469 531 
Q 828 903 1448 1529 
Q 2069 2156 2228 2338 
Q 2531 2678 2651 2914 
Q 2772 3150 2772 3378 
Q 2772 3750 2511 3984 
Q 2250 4219 1831 4219 
Q 1534 4219 1204 4116 
Q 875 4013 500 3803 
L 500 4441 
Q 881 4594 1212 4672 
Q 1544 4750 1819 4750 
Q 2544 4750 2975 4387 
Q 3406 4025 3406 3419 
Q 3406 3131 3298 2873 
Q 3191 2616 2906 2266 
Q 2828 2175 2409 1742 
Q 1991 1309 1228 531 
z
" transform="scale(0.015625)"/>
       </defs>
       <use xlink:href="#DejaVuSans-32"/>
       <use xlink:href="#DejaVuSans-30" transform="translate(63.623047 0)"/>
       <use xlink:href="#DejaVuSans-30" transform="translate(127.246094 0)"/>
      </g>
     </g>
    </g>
    <g id="xtick_6">
     <g id="line2d_6">
      <g>
       <use xlink:href="#mdc3f779a9a" x="276.741818" y="307.584" style="stroke: #000000; stroke-width: 0.8"/>
      </g>
     </g>
     <g id="text_6">
      <!-- 250 -->
      <g transform="translate(267.198068 322.182437) scale(0.1 -0.1)">
       <use xlink:href="#DejaVuSans-32"/>
       <use xlink:href="#DejaVuSans-35" transform="translate(63.623047 0)"/>
       <use xlink:href="#DejaVuSans-30" transform="translate(127.246094 0)"/>
      </g>
     </g>
    </g>
    <g id="xtick_7">
     <g id="line2d_7">
      <g>
       <use xlink:href="#mdc3f779a9a" x="317.323636" y="307.584" style="stroke: #000000; stroke-width: 0.8"/>
      </g>
     </g>
     <g id="text_7">
      <!-- 300 -->
      <g transform="translate(307.779886 322.182437) scale(0.1 -0.1)">
       <defs>
        <path id="DejaVuSans-33" d="M 2597 2516 
Q 3050 2419 3304 2112 
Q 3559 1806 3559 1356 
Q 3559 666 3084 287 
Q 2609 -91 1734 -91 
Q 1441 -91 1130 -33 
Q 819 25 488 141 
L 488 750 
Q 750 597 1062 519 
Q 1375 441 1716 441 
Q 2309 441 2620 675 
Q 2931 909 2931 1356 
Q 2931 1769 2642 2001 
Q 2353 2234 1838 2234 
L 1294 2234 
L 1294 2753 
L 1863 2753 
Q 2328 2753 2575 2939 
Q 2822 3125 2822 3475 
Q 2822 3834 2567 4026 
Q 2313 4219 1838 4219 
Q 1578 4219 1281 4162 
Q 984 4106 628 3988 
L 628 4550 
Q 988 4650 1302 4700 
Q 1616 4750 1894 4750 
Q 2613 4750 3031 4423 
Q 3450 4097 3450 3541 
Q 3450 3153 3228 2886 
Q 3006 2619 2597 2516 
z
" transform="scale(0.015625)"/>
       </defs>
       <use xlink:href="#DejaVuSans-33"/>
       <use xlink:href="#DejaVuSans-30" transform="translate(63.623047 0)"/>
       <use xlink:href="#DejaVuSans-30" transform="translate(127.246094 0)"/>
      </g>
     </g>
    </g>
    <g id="xtick_8">
     <g id="line2d_8">
      <g>
       <use xlink:href="#mdc3f779a9a" x="357.905455" y="307.584" style="stroke: #000000; stroke-width: 0.8"/>
      </g>
     </g>
     <g id="text_8">
      <!-- 350 -->
      <g transform="translate(348.361705 322.182437) scale(0.1 -0.1)">
       <use xlink:href="#DejaVuSans-33"/>
       <use xlink:href="#DejaVuSans-35" transform="translate(63.623047 0)"/>
       <use xlink:href="#DejaVuSans-30" transform="translate(127.246094 0)"/>
      </g>
     </g>
    </g>
    <g id="xtick_9">
     <g id="line2d_9">
      <g>
       <use xlink:href="#mdc3f779a9a" x="398.487273" y="307.584" style="stroke: #000000; stroke-width: 0.8"/>
      </g>
     </g>
     <g id="text_9">
      <!-- 400 -->
      <g transform="translate(388.943523 322.182437) scale(0.1 -0.1)">
       <defs>
        <path id="DejaVuSans-34" d="M 2419 4116 
L 825 1625 
L 2419 1625 
L 2419 4116 
z
M 2253 4666 
L 3047 4666 
L 3047 1625 
L 3713 1625 
L 3713 1100 
L 3047 1100 
L 3047 0 
L 2419 0 
L 2419 1100 
L 313 1100 
L 313 1709 
L 2253 4666 
z
" transform="scale(0.015625)"/>
       </defs>
       <use xlink:href="#DejaVuSans-34"/>
       <use xlink:href="#DejaVuSans-30" transform="translate(63.623047 0)"/>
       <use xlink:href="#DejaVuSans-30" transform="translate(127.246094 0)"/>
      </g>
     </g>
    </g>
    <g id="text_10">
     <!-- Iteration -->
     <g transform="translate(214.951406 335.860562) scale(0.1 -0.1)">
      <defs>
       <path id="DejaVuSans-49" d="M 628 4666 
L 1259 4666 
L 1259 0 
L 628 0 
L 628 4666 
z
" transform="scale(0.015625)"/>
       <path id="DejaVuSans-74" d="M 1172 4494 
L 1172 3500 
L 2356 3500 
L 2356 3053 
L 1172 3053 
L 1172 1153 
Q 1172 725 1289 603 
Q 1406 481 1766 481 
L 2356 481 
L 2356 0 
L 1766 0 
Q 1100 0 847 248 
Q 594 497 594 1153 
L 594 3053 
L 172 3053 
L 172 3500 
L 594 3500 
L 594 4494 
L 1172 4494 
z
" transform="scale(0.015625)"/>
       <path id="DejaVuSans-65" d="M 3597 1894 
L 3597 1613 
L 953 1613 
Q 991 1019 1311 708 
Q 1631 397 2203 397 
Q 2534 397 2845 478 
Q 3156 559 3463 722 
L 3463 178 
Q 3153 47 2828 -22 
Q 2503 -91 2169 -91 
Q 1331 -91 842 396 
Q 353 884 353 1716 
Q 353 2575 817 3079 
Q 1281 3584 2069 3584 
Q 2775 3584 3186 3129 
Q 3597 2675 3597 1894 
z
M 3022 2063 
Q 3016 2534 2758 2815 
Q 2500 3097 2075 3097 
Q 1594 3097 1305 2825 
Q 1016 2553 972 2059 
L 3022 2063 
z
" transform="scale(0.015625)"/>
       <path id="DejaVuSans-72" d="M 2631 2963 
Q 2534 3019 2420 3045 
Q 2306 3072 2169 3072 
Q 1681 3072 1420 2755 
Q 1159 2438 1159 1844 
L 1159 0 
L 581 0 
L 581 3500 
L 1159 3500 
L 1159 2956 
Q 1341 3275 1631 3429 
Q 1922 3584 2338 3584 
Q 2397 3584 2469 3576 
Q 2541 3569 2628 3553 
L 2631 2963 
z
" transform="scale(0.015625)"/>
       <path id="DejaVuSans-61" d="M 2194 1759 
Q 1497 1759 1228 1600 
Q 959 1441 959 1056 
Q 959 750 1161 570 
Q 1363 391 1709 391 
Q 2188 391 2477 730 
Q 2766 1069 2766 1631 
L 2766 1759 
L 2194 1759 
z
M 3341 1997 
L 3341 0 
L 2766 0 
L 2766 531 
Q 2569 213 2275 61 
Q 1981 -91 1556 -91 
Q 1019 -91 701 211 
Q 384 513 384 1019 
Q 384 1609 779 1909 
Q 1175 2209 1959 2209 
L 2766 2209 
L 2766 2266 
Q 2766 2663 2505 2880 
Q 2244 3097 1772 3097 
Q 1472 3097 1187 3025 
Q 903 2953 641 2809 
L 641 3341 
Q 956 3463 1253 3523 
Q 1550 3584 1831 3584 
Q 2591 3584 2966 3190 
Q 3341 2797 3341 1997 
z
" transform="scale(0.015625)"/>
       <path id="DejaVuSans-69" d="M 603 3500 
L 1178 3500 
L 1178 0 
L 603 0 
L 603 3500 
z
M 603 4863 
L 1178 4863 
L 1178 4134 
L 603 4134 
L 603 4863 
z
" transform="scale(0.015625)"/>
       <path id="DejaVuSans-6f" d="M 1959 3097 
Q 1497 3097 1228 2736 
Q 959 2375 959 1747 
Q 959 1119 1226 758 
Q 1494 397 1959 397 
Q 2419 397 2687 759 
Q 2956 1122 2956 1747 
Q 2956 2369 2687 2733 
Q 2419 3097 1959 3097 
z
M 1959 3584 
Q 2709 3584 3137 3096 
Q 3566 2609 3566 1747 
Q 3566 888 3137 398 
Q 2709 -91 1959 -91 
Q 1206 -91 779 398 
Q 353 888 353 1747 
Q 353 2609 779 3096 
Q 1206 3584 1959 3584 
z
" transform="scale(0.015625)"/>
       <path id="DejaVuSans-6e" d="M 3513 2113 
L 3513 0 
L 2938 0 
L 2938 2094 
Q 2938 2591 2744 2837 
Q 2550 3084 2163 3084 
Q 1697 3084 1428 2787 
Q 1159 2491 1159 1978 
L 1159 0 
L 581 0 
L 581 3500 
L 1159 3500 
L 1159 2956 
Q 1366 3272 1645 3428 
Q 1925 3584 2291 3584 
Q 2894 3584 3203 3211 
Q 3513 2838 3513 2113 
z
" transform="scale(0.015625)"/>
      </defs>
      <use xlink:href="#DejaVuSans-49"/>
      <use xlink:href="#DejaVuSans-74" transform="translate(29.492188 0)"/>
      <use xlink:href="#DejaVuSans-65" transform="translate(68.701172 0)"/>
      <use xlink:href="#DejaVuSans-72" transform="translate(130.224609 0)"/>
      <use xlink:href="#DejaVuSans-61" transform="translate(171.337891 0)"/>
      <use xlink:href="#DejaVuSans-74" transform="translate(232.617188 0)"/>
      <use xlink:href="#DejaVuSans-69" transform="translate(271.826172 0)"/>
      <use xlink:href="#DejaVuSans-6f" transform="translate(299.609375 0)"/>
      <use xlink:href="#DejaVuSans-6e" transform="translate(360.791016 0)"/>
     </g>
    </g>
   </g>
   <g id="matplotlib.axis_2">
    <g id="ytick_1">
     <g id="line2d_10">
      <defs>
       <path id="m618cd315e7" d="M 0 0 
L -3.5 0 
" style="stroke: #000000; stroke-width: 0.8"/>
      </defs>
      <g>
       <use xlink:href="#m618cd315e7" x="57.6" y="297.458589" style="stroke: #000000; stroke-width: 0.8"/>
      </g>
     </g>
     <g id="text_11">
      <!-- 0.00 -->
      <g transform="translate(28.334375 301.257808) scale(0.1 -0.1)">
       <defs>
        <path id="DejaVuSans-2e" d="M 684 794 
L 1344 794 
L 1344 0 
L 684 0 
L 684 794 
z
" transform="scale(0.015625)"/>
       </defs>
       <use xlink:href="#DejaVuSans-30"/>
       <use xlink:href="#DejaVuSans-2e" transform="translate(63.623047 0)"/>
       <use xlink:href="#DejaVuSans-30" transform="translate(95.410156 0)"/>
       <use xlink:href="#DejaVuSans-30" transform="translate(159.033203 0)"/>
      </g>
     </g>
    </g>
    <g id="ytick_2">
     <g id="line2d_11">
      <g>
       <use xlink:href="#m618cd315e7" x="57.6" y="261.320608" style="stroke: #000000; stroke-width: 0.8"/>
      </g>
     </g>
     <g id="text_12">
      <!-- 0.25 -->
      <g transform="translate(28.334375 265.119826) scale(0.1 -0.1)">
       <use xlink:href="#DejaVuSans-30"/>
       <use xlink:href="#DejaVuSans-2e" transform="translate(63.623047 0)"/>
       <use xlink:href="#DejaVuSans-32" transform="translate(95.410156 0)"/>
       <use xlink:href="#DejaVuSans-35" transform="translate(159.033203 0)"/>
      </g>
     </g>
    </g>
    <g id="ytick_3">
     <g id="line2d_12">
      <g>
       <use xlink:href="#m618cd315e7" x="57.6" y="225.182626" style="stroke: #000000; stroke-width: 0.8"/>
      </g>
     </g>
     <g id="text_13">
      <!-- 0.50 -->
      <g transform="translate(28.334375 228.981844) scale(0.1 -0.1)">
       <use xlink:href="#DejaVuSans-30"/>
       <use xlink:href="#DejaVuSans-2e" transform="translate(63.623047 0)"/>
       <use xlink:href="#DejaVuSans-35" transform="translate(95.410156 0)"/>
       <use xlink:href="#DejaVuSans-30" transform="translate(159.033203 0)"/>
      </g>
     </g>
    </g>
    <g id="ytick_4">
     <g id="line2d_13">
      <g>
       <use xlink:href="#m618cd315e7" x="57.6" y="189.044644" style="stroke: #000000; stroke-width: 0.8"/>
      </g>
     </g>
     <g id="text_14">
      <!-- 0.75 -->
      <g transform="translate(28.334375 192.843863) scale(0.1 -0.1)">
       <defs>
        <path id="DejaVuSans-37" d="M 525 4666 
L 3525 4666 
L 3525 4397 
L 1831 0 
L 1172 0 
L 2766 4134 
L 525 4134 
L 525 4666 
z
" transform="scale(0.015625)"/>
       </defs>
       <use xlink:href="#DejaVuSans-30"/>
       <use xlink:href="#DejaVuSans-2e" transform="translate(63.623047 0)"/>
       <use xlink:href="#DejaVuSans-37" transform="translate(95.410156 0)"/>
       <use xlink:href="#DejaVuSans-35" transform="translate(159.033203 0)"/>
      </g>
     </g>
    </g>
    <g id="ytick_5">
     <g id="line2d_14">
      <g>
       <use xlink:href="#m618cd315e7" x="57.6" y="152.906662" style="stroke: #000000; stroke-width: 0.8"/>
      </g>
     </g>
     <g id="text_15">
      <!-- 1.00 -->
      <g transform="translate(28.334375 156.705881) scale(0.1 -0.1)">
       <use xlink:href="#DejaVuSans-31"/>
       <use xlink:href="#DejaVuSans-2e" transform="translate(63.623047 0)"/>
       <use xlink:href="#DejaVuSans-30" transform="translate(95.410156 0)"/>
       <use xlink:href="#DejaVuSans-30" transform="translate(159.033203 0)"/>
      </g>
     </g>
    </g>
    <g id="ytick_6">
     <g id="line2d_15">
      <g>
       <use xlink:href="#m618cd315e7" x="57.6" y="116.76868" style="stroke: #000000; stroke-width: 0.8"/>
      </g>
     </g>
     <g id="text_16">
      <!-- 1.25 -->
      <g transform="translate(28.334375 120.567899) scale(0.1 -0.1)">
       <use xlink:href="#DejaVuSans-31"/>
       <use xlink:href="#DejaVuSans-2e" transform="translate(63.623047 0)"/>
       <use xlink:href="#DejaVuSans-32" transform="translate(95.410156 0)"/>
       <use xlink:href="#DejaVuSans-35" transform="translate(159.033203 0)"/>
      </g>
     </g>
    </g>
    <g id="ytick_7">
     <g id="line2d_16">
      <g>
       <use xlink:href="#m618cd315e7" x="57.6" y="80.630698" style="stroke: #000000; stroke-width: 0.8"/>
      </g>
     </g>
     <g id="text_17">
      <!-- 1.50 -->
      <g transform="translate(28.334375 84.429917) scale(0.1 -0.1)">
       <use xlink:href="#DejaVuSans-31"/>
       <use xlink:href="#DejaVuSans-2e" transform="translate(63.623047 0)"/>
       <use xlink:href="#DejaVuSans-35" transform="translate(95.410156 0)"/>
       <use xlink:href="#DejaVuSans-30" transform="translate(159.033203 0)"/>
      </g>
     </g>
    </g>
    <g id="ytick_8">
     <g id="line2d_17">
      <g>
       <use xlink:href="#m618cd315e7" x="57.6" y="44.492717" style="stroke: #000000; stroke-width: 0.8"/>
      </g>
     </g>
     <g id="text_18">
      <!-- 1.75 -->
      <g transform="translate(28.334375 48.291935) scale(0.1 -0.1)">
       <use xlink:href="#DejaVuSans-31"/>
       <use xlink:href="#DejaVuSans-2e" transform="translate(63.623047 0)"/>
       <use xlink:href="#DejaVuSans-37" transform="translate(95.410156 0)"/>
       <use xlink:href="#DejaVuSans-35" transform="translate(159.033203 0)"/>
      </g>
     </g>
    </g>
    <g id="text_19">
     <!-- loss value -->
     <g transform="translate(22.254687 199.432687) rotate(-90) scale(0.1 -0.1)">
      <defs>
       <path id="DejaVuSans-6c" d="M 603 4863 
L 1178 4863 
L 1178 0 
L 603 0 
L 603 4863 
z
" transform="scale(0.015625)"/>
       <path id="DejaVuSans-73" d="M 2834 3397 
L 2834 2853 
Q 2591 2978 2328 3040 
Q 2066 3103 1784 3103 
Q 1356 3103 1142 2972 
Q 928 2841 928 2578 
Q 928 2378 1081 2264 
Q 1234 2150 1697 2047 
L 1894 2003 
Q 2506 1872 2764 1633 
Q 3022 1394 3022 966 
Q 3022 478 2636 193 
Q 2250 -91 1575 -91 
Q 1294 -91 989 -36 
Q 684 19 347 128 
L 347 722 
Q 666 556 975 473 
Q 1284 391 1588 391 
Q 1994 391 2212 530 
Q 2431 669 2431 922 
Q 2431 1156 2273 1281 
Q 2116 1406 1581 1522 
L 1381 1569 
Q 847 1681 609 1914 
Q 372 2147 372 2553 
Q 372 3047 722 3315 
Q 1072 3584 1716 3584 
Q 2034 3584 2315 3537 
Q 2597 3491 2834 3397 
z
" transform="scale(0.015625)"/>
       <path id="DejaVuSans-20" transform="scale(0.015625)"/>
       <path id="DejaVuSans-76" d="M 191 3500 
L 800 3500 
L 1894 563 
L 2988 3500 
L 3597 3500 
L 2284 0 
L 1503 0 
L 191 3500 
z
" transform="scale(0.015625)"/>
       <path id="DejaVuSans-75" d="M 544 1381 
L 544 3500 
L 1119 3500 
L 1119 1403 
Q 1119 906 1312 657 
Q 1506 409 1894 409 
Q 2359 409 2629 706 
Q 2900 1003 2900 1516 
L 2900 3500 
L 3475 3500 
L 3475 0 
L 2900 0 
L 2900 538 
Q 2691 219 2414 64 
Q 2138 -91 1772 -91 
Q 1169 -91 856 284 
Q 544 659 544 1381 
z
M 1991 3584 
L 1991 3584 
z
" transform="scale(0.015625)"/>
      </defs>
      <use xlink:href="#DejaVuSans-6c"/>
      <use xlink:href="#DejaVuSans-6f" transform="translate(27.783203 0)"/>
      <use xlink:href="#DejaVuSans-73" transform="translate(88.964844 0)"/>
      <use xlink:href="#DejaVuSans-73" transform="translate(141.064453 0)"/>
      <use xlink:href="#DejaVuSans-20" transform="translate(193.164062 0)"/>
      <use xlink:href="#DejaVuSans-76" transform="translate(224.951172 0)"/>
      <use xlink:href="#DejaVuSans-61" transform="translate(284.130859 0)"/>
      <use xlink:href="#DejaVuSans-6c" transform="translate(345.410156 0)"/>
      <use xlink:href="#DejaVuSans-75" transform="translate(373.193359 0)"/>
      <use xlink:href="#DejaVuSans-65" transform="translate(436.572266 0)"/>
     </g>
    </g>
   </g>
   <g id="line2d_18">
    <path d="M 73.832727 179.223942 
L 74.644364 195.862872 
L 75.456 204.162709 
L 76.267636 205.93435 
L 77.079273 211.141797 
L 77.890909 179.889154 
L 78.702545 242.127 
L 79.514182 158.334195 
L 80.325818 209.377695 
L 81.137455 212.043984 
L 81.949091 219.262535 
L 82.760727 227.566 
L 83.572364 222.032172 
L 84.384 220.413171 
L 85.195636 239.634376 
L 86.007273 227.375682 
L 86.818909 249.02372 
L 87.630545 152.306905 
L 88.442182 231.868159 
L 89.253818 256.510856 
L 90.065455 261.060483 
L 90.877091 223.626927 
L 91.688727 267.257099 
L 92.500364 241.858824 
L 93.312 273.139757 
L 94.123636 262.132817 
L 94.935273 256.088489 
L 95.746909 246.583587 
L 96.558545 269.240126 
L 97.370182 271.030476 
L 98.181818 249.554459 
L 98.993455 215.885292 
L 99.805091 250.658285 
L 100.616727 238.091902 
L 101.428364 276.860463 
L 102.24 285.816256 
L 103.051636 279.475037 
L 103.863273 263.674436 
L 104.674909 213.261971 
L 105.486545 241.147589 
L 106.298182 253.156419 
L 107.109818 273.478455 
L 107.921455 262.624675 
L 108.733091 280.494882 
L 109.544727 232.421089 
L 110.356364 256.159708 
L 111.168 251.496416 
L 111.979636 278.649422 
L 112.791273 286.504187 
L 113.602909 260.151253 
L 114.414545 216.860705 
L 115.226182 227.914193 
L 116.037818 287.549691 
L 116.849455 260.029652 
L 117.661091 289.724768 
L 118.472727 274.37371 
L 119.284364 265.247205 
L 120.096 252.936562 
L 120.907636 257.079493 
L 121.719273 251.462861 
L 122.530909 266.868523 
L 123.342545 275.066934 
L 124.154182 270.095308 
L 124.965818 139.885266 
L 125.777455 279.532602 
L 126.589091 261.683387 
L 127.400727 265.884847 
L 128.212364 279.513158 
L 129.024 246.405685 
L 129.835636 258.497836 
L 130.647273 272.356758 
L 131.458909 196.746999 
L 132.270545 219.186516 
L 133.082182 256.881795 
L 133.893818 288.386404 
L 134.705455 271.063185 
L 135.517091 279.809017 
L 136.328727 283.400039 
L 137.140364 280.16387 
L 137.952 293.290753 
L 138.763636 258.004762 
L 139.575273 289.87838 
L 140.386909 282.976549 
L 141.198545 278.086253 
L 142.010182 228.031137 
L 142.821818 281.957604 
L 143.633455 290.47496 
L 144.445091 237.002094 
L 145.256727 248.379073 
L 146.068364 283.944932 
L 146.88 277.094176 
L 147.691636 279.264116 
L 148.503273 280.721 
L 149.314909 279.775314 
L 150.126545 290.601751 
L 150.938182 53.568 
L 151.749818 288.198788 
L 152.561455 267.895865 
L 153.373091 289.289133 
L 154.184727 250.295083 
L 154.996364 292.282635 
L 155.808 280.880747 
L 156.619636 277.801092 
L 157.431273 283.015479 
L 158.242909 272.963091 
L 159.054545 288.105091 
L 159.866182 280.211299 
L 160.677818 286.909575 
L 161.489455 281.357931 
L 162.301091 280.89549 
L 163.112727 255.771077 
L 163.924364 287.543196 
L 164.736 286.57086 
L 165.547636 273.221476 
L 167.170909 281.705503 
L 168.794182 289.167657 
L 169.605818 292.027016 
L 170.417455 256.585518 
L 171.229091 287.543662 
L 172.040727 241.754381 
L 172.852364 266.258575 
L 173.664 261.20882 
L 174.475636 288.41602 
L 175.287273 292.050303 
L 176.098909 264.346744 
L 176.910545 290.992184 
L 177.722182 293.284861 
L 178.533818 256.682017 
L 179.345455 284.974611 
L 180.157091 290.696124 
L 180.968727 270.392578 
L 181.780364 288.005926 
L 182.592 288.853514 
L 183.403636 288.272165 
L 184.215273 272.792801 
L 185.026909 291.932231 
L 185.838545 248.851659 
L 186.650182 289.023327 
L 187.461818 253.491951 
L 188.273455 288.566027 
L 189.085091 285.103758 
L 189.896727 191.206605 
L 190.708364 293.038122 
L 191.52 288.10504 
L 192.331636 286.581375 
L 193.143273 279.244794 
L 193.954909 291.890251 
L 194.766545 273.719444 
L 195.578182 290.063846 
L 196.389818 288.594267 
L 197.201455 289.06406 
L 198.013091 261.373738 
L 198.824727 285.08568 
L 199.636364 286.658607 
L 200.448 275.180772 
L 201.259636 293.096412 
L 202.071273 283.835231 
L 203.694545 290.435631 
L 204.506182 279.289024 
L 205.317818 271.477895 
L 206.129455 286.264375 
L 206.941091 292.629853 
L 207.752727 272.947374 
L 208.564364 293.27039 
L 209.376 257.879356 
L 210.187636 289.786918 
L 210.999273 275.531134 
L 211.810909 277.389981 
L 212.622545 288.577215 
L 213.434182 251.329382 
L 214.245818 285.23537 
L 215.057455 250.555742 
L 215.869091 195.446953 
L 216.680727 282.934576 
L 217.492364 280.436353 
L 218.304 283.427187 
L 219.115636 282.741093 
L 219.927273 292.81006 
L 220.738909 287.089678 
L 221.550545 283.024557 
L 222.362182 242.779854 
L 223.173818 268.759545 
L 223.985455 250.193785 
L 224.797091 280.001893 
L 225.608727 290.759377 
L 226.420364 282.787756 
L 227.232 272.775707 
L 228.043636 279.970898 
L 228.855273 117.944346 
L 229.666909 278.984803 
L 230.478545 275.381757 
L 231.290182 238.306909 
L 232.101818 291.530957 
L 232.913455 285.881654 
L 233.725091 293.176345 
L 234.536727 287.043119 
L 235.348364 295.128156 
L 236.16 278.423607 
L 236.971636 267.97502 
L 237.783273 292.003541 
L 238.594909 273.312997 
L 239.406545 283.140478 
L 240.218182 286.913943 
L 241.029818 288.353758 
L 241.841455 274.636605 
L 242.653091 282.333554 
L 243.464727 291.093801 
L 244.276364 292.307689 
L 245.088 287.149719 
L 245.899636 213.69208 
L 246.711273 289.067381 
L 247.522909 287.754662 
L 248.334545 280.286918 
L 249.146182 290.605792 
L 249.957818 285.811472 
L 250.769455 273.080508 
L 251.581091 276.218692 
L 252.392727 292.8108 
L 253.204364 293.635022 
L 254.016 284.012633 
L 254.827636 286.02478 
L 255.639273 283.230069 
L 256.450909 285.95022 
L 257.262545 284.284645 
L 258.074182 281.487186 
L 258.885818 289.911947 
L 259.697455 273.973234 
L 261.320727 289.654617 
L 262.132364 256.065213 
L 262.944 293.775737 
L 263.755636 287.820666 
L 264.567273 285.893323 
L 265.378909 279.410348 
L 266.190545 270.748723 
L 267.002182 250.895818 
L 267.813818 209.607966 
L 268.625455 286.056042 
L 269.437091 244.035097 
L 270.248727 292.832204 
L 271.060364 275.180621 
L 271.872 290.66342 
L 272.683636 280.335411 
L 273.495273 291.376942 
L 274.306909 260.021423 
L 275.118545 288.673879 
L 275.930182 288.668243 
L 276.741818 289.236751 
L 277.553455 290.808596 
L 279.176727 286.521008 
L 279.988364 266.659172 
L 280.8 292.285622 
L 281.611636 268.175328 
L 282.423273 289.058479 
L 283.234909 290.838071 
L 284.046545 259.375088 
L 284.858182 284.853235 
L 285.669818 291.82035 
L 286.481455 292.843705 
L 287.293091 287.666238 
L 288.104727 288.489118 
L 288.916364 285.74347 
L 289.728 272.884169 
L 290.539636 292.506999 
L 291.351273 290.667926 
L 292.162909 257.018992 
L 292.974545 260.633028 
L 293.786182 251.589869 
L 294.597818 267.443869 
L 295.409455 268.527321 
L 296.221091 268.479513 
L 297.032727 290.340466 
L 297.844364 291.848192 
L 298.656 289.694547 
L 299.467636 282.115347 
L 300.279273 295.350315 
L 301.090909 289.972489 
L 301.902545 276.59871 
L 302.714182 294.227425 
L 303.525818 293.553521 
L 304.337455 287.549555 
L 305.149091 269.17688 
L 305.960727 272.333202 
L 306.772364 188.468313 
L 307.584 291.830935 
L 308.395636 285.134477 
L 309.207273 292.974268 
L 310.018909 292.492982 
L 310.830545 285.4895 
L 311.642182 281.608504 
L 312.453818 292.585265 
L 313.265455 219.241727 
L 314.077091 280.592967 
L 314.888727 289.289103 
L 316.512 275.50461 
L 317.323636 287.043969 
L 318.135273 289.97575 
L 318.946909 272.81248 
L 319.758545 181.402385 
L 320.570182 277.756108 
L 321.381818 284.812226 
L 322.193455 282.784345 
L 323.005091 290.908329 
L 323.816727 275.255427 
L 324.628364 273.624416 
L 325.44 275.14317 
L 326.251636 288.793339 
L 327.063273 294.064886 
L 327.874909 282.736278 
L 328.686545 282.694029 
L 329.498182 290.301673 
L 330.309818 258.50282 
L 331.121455 235.892328 
L 331.933091 279.346859 
L 332.744727 289.232124 
L 333.556364 281.149233 
L 334.368 274.977668 
L 335.179636 287.21137 
L 335.991273 291.172371 
L 336.802909 267.323381 
L 337.614545 282.287768 
L 338.426182 292.184001 
L 339.237818 293.713966 
L 340.049455 293.302626 
L 340.861091 294.109851 
L 341.672727 287.611839 
L 342.484364 288.210104 
L 343.296 282.934221 
L 344.107636 285.862601 
L 344.919273 289.387815 
L 345.730909 88.781454 
L 346.542545 291.032708 
L 347.354182 284.203345 
L 348.165818 289.676999 
L 348.977455 268.733022 
L 349.789091 290.514348 
L 350.600727 287.143084 
L 351.412364 288.016923 
L 352.224 283.497369 
L 353.847273 293.802312 
L 354.658909 284.975259 
L 355.470545 295.488 
L 356.282182 283.049423 
L 357.905455 293.370544 
L 358.717091 291.212143 
L 359.528727 273.127124 
L 360.340364 292.384822 
L 361.152 240.867329 
L 361.963636 280.820234 
L 362.775273 286.592912 
L 363.586909 286.412478 
L 364.398545 293.374701 
L 365.210182 287.462262 
L 366.021818 285.643154 
L 366.833455 292.35911 
L 367.645091 274.156209 
L 368.456727 283.95906 
L 369.268364 268.164894 
L 370.08 287.46811 
L 370.891636 286.222796 
L 371.703273 271.632342 
L 372.514909 278.567189 
L 373.326545 279.507722 
L 374.138182 291.017886 
L 374.949818 283.108045 
L 375.761455 254.050481 
L 376.573091 266.053074 
L 377.384727 266.406186 
L 378.196364 293.068662 
L 379.008 276.055136 
L 379.819636 267.31774 
L 380.631273 283.210925 
L 381.442909 282.477956 
L 382.254545 278.229573 
L 383.066182 286.848103 
L 383.877818 278.356439 
L 384.689455 294.612299 
L 385.501091 270.38357 
L 386.312727 289.849554 
L 387.936 266.934668 
L 388.747636 291.073124 
L 389.559273 287.349153 
L 390.370909 295.119839 
L 391.182545 261.639907 
L 391.994182 285.488776 
L 392.805818 284.990908 
L 393.617455 269.454784 
L 394.429091 275.644531 
L 395.240727 286.089303 
L 396.052364 289.581973 
L 396.864 276.212597 
L 397.675636 187.988008 
L 397.675636 187.988008 
" clip-path="url(#pb606b36f49)" style="fill: none; stroke: #1f77b4; stroke-width: 1.5; stroke-linecap: square"/>
   </g>
   <g id="line2d_19">
    <path d="M 86.818909 229.764736 
L 99.805091 266.326471 
L 112.791273 266.546544 
L 125.777455 270.124577 
L 138.763636 240.413494 
L 151.749818 267.438013 
L 164.736 263.724126 
L 177.722182 261.574015 
L 190.708364 267.168275 
L 203.694545 265.822732 
L 216.680727 268.977103 
L 229.666909 267.389675 
L 242.653091 266.466339 
L 255.639273 266.946672 
L 268.625455 267.011405 
L 281.611636 266.959437 
L 294.597818 265.207255 
L 307.584 268.719739 
L 320.570182 267.539958 
L 333.556364 267.172526 
L 346.542545 264.836904 
L 359.528727 266.056902 
L 372.514909 267.112901 
L 385.501091 265.948283 
L 398.487273 267.178417 
" clip-path="url(#pb606b36f49)" style="fill: none; stroke: #ff7f0e; stroke-width: 1.5; stroke-linecap: square"/>
   </g>
   <g id="patch_3">
    <path d="M 57.6 307.584 
L 57.6 41.472 
" style="fill: none; stroke: #000000; stroke-width: 0.8; stroke-linejoin: miter; stroke-linecap: square"/>
   </g>
   <g id="patch_4">
    <path d="M 414.72 307.584 
L 414.72 41.472 
" style="fill: none; stroke: #000000; stroke-width: 0.8; stroke-linejoin: miter; stroke-linecap: square"/>
   </g>
   <g id="patch_5">
    <path d="M 57.6 307.584 
L 414.72 307.584 
" style="fill: none; stroke: #000000; stroke-width: 0.8; stroke-linejoin: miter; stroke-linecap: square"/>
   </g>
   <g id="patch_6">
    <path d="M 57.6 41.472 
L 414.72 41.472 
" style="fill: none; stroke: #000000; stroke-width: 0.8; stroke-linejoin: miter; stroke-linecap: square"/>
   </g>
   <g id="legend_1">
    <g id="patch_7">
     <path d="M 351.621563 78.82825 
L 407.72 78.82825 
Q 409.72 78.82825 409.72 76.82825 
L 409.72 48.472 
Q 409.72 46.472 407.72 46.472 
L 351.621563 46.472 
Q 349.621563 46.472 349.621563 48.472 
L 349.621563 76.82825 
Q 349.621563 78.82825 351.621563 78.82825 
z
" style="fill: #ffffff; opacity: 0.8; stroke: #cccccc; stroke-linejoin: miter"/>
    </g>
    <g id="line2d_20">
     <path d="M 353.621563 54.570437 
L 363.621563 54.570437 
L 373.621563 54.570437 
" style="fill: none; stroke: #1f77b4; stroke-width: 1.5; stroke-linecap: square"/>
    </g>
    <g id="text_20">
     <!-- Train -->
     <g transform="translate(381.621563 58.070437) scale(0.1 -0.1)">
      <defs>
       <path id="DejaVuSans-54" d="M -19 4666 
L 3928 4666 
L 3928 4134 
L 2272 4134 
L 2272 0 
L 1638 0 
L 1638 4134 
L -19 4134 
L -19 4666 
z
" transform="scale(0.015625)"/>
      </defs>
      <use xlink:href="#DejaVuSans-54"/>
      <use xlink:href="#DejaVuSans-72" transform="translate(46.333984 0)"/>
      <use xlink:href="#DejaVuSans-61" transform="translate(87.447266 0)"/>
      <use xlink:href="#DejaVuSans-69" transform="translate(148.726562 0)"/>
      <use xlink:href="#DejaVuSans-6e" transform="translate(176.509766 0)"/>
     </g>
    </g>
    <g id="line2d_21">
     <path d="M 353.621563 69.248562 
L 363.621563 69.248562 
L 373.621563 69.248562 
" style="fill: none; stroke: #ff7f0e; stroke-width: 1.5; stroke-linecap: square"/>
    </g>
    <g id="text_21">
     <!-- Valid -->
     <g transform="translate(381.621563 72.748562) scale(0.1 -0.1)">
      <defs>
       <path id="DejaVuSans-56" d="M 1831 0 
L 50 4666 
L 709 4666 
L 2188 738 
L 3669 4666 
L 4325 4666 
L 2547 0 
L 1831 0 
z
" transform="scale(0.015625)"/>
       <path id="DejaVuSans-64" d="M 2906 2969 
L 2906 4863 
L 3481 4863 
L 3481 0 
L 2906 0 
L 2906 525 
Q 2725 213 2448 61 
Q 2172 -91 1784 -91 
Q 1150 -91 751 415 
Q 353 922 353 1747 
Q 353 2572 751 3078 
Q 1150 3584 1784 3584 
Q 2172 3584 2448 3432 
Q 2725 3281 2906 2969 
z
M 947 1747 
Q 947 1113 1208 752 
Q 1469 391 1925 391 
Q 2381 391 2643 752 
Q 2906 1113 2906 1747 
Q 2906 2381 2643 2742 
Q 2381 3103 1925 3103 
Q 1469 3103 1208 2742 
Q 947 2381 947 1747 
z
" transform="scale(0.015625)"/>
      </defs>
      <use xlink:href="#DejaVuSans-56"/>
      <use xlink:href="#DejaVuSans-61" transform="translate(60.658203 0)"/>
      <use xlink:href="#DejaVuSans-6c" transform="translate(121.9375 0)"/>
      <use xlink:href="#DejaVuSans-69" transform="translate(149.720703 0)"/>
      <use xlink:href="#DejaVuSans-64" transform="translate(177.503906 0)"/>
     </g>
    </g>
   </g>
  </g>
 </g>
 <defs>
  <clipPath id="pb606b36f49">
   <rect x="57.6" y="41.472" width="357.12" height="266.112"/>
  </clipPath>
 </defs>
</svg>
