<?xml version="1.0" encoding="utf-8" standalone="no"?>
<!DOCTYPE svg PUBLIC "-//W3C//DTD SVG 1.1//EN"
  "http://www.w3.org/Graphics/SVG/1.1/DTD/svg11.dtd">
<svg xmlns:xlink="http://www.w3.org/1999/xlink" width="460.8pt" height="345.6pt" viewBox="0 0 460.8 345.6" xmlns="http://www.w3.org/2000/svg" version="1.1">
 <metadata>
  <rdf:RDF xmlns:dc="http://purl.org/dc/elements/1.1/" xmlns:cc="http://creativecommons.org/ns#" xmlns:rdf="http://www.w3.org/1999/02/22-rdf-syntax-ns#">
   <cc:Work>
    <dc:type rdf:resource="http://purl.org/dc/dcmitype/StillImage"/>
    <dc:date>2025-05-08T09:00:04.217012</dc:date>
    <dc:format>image/svg+xml</dc:format>
    <dc:creator>
     <cc:Agent>
      <dc:title>Matplotlib v3.10.1, https://matplotlib.org/</dc:title>
     </cc:Agent>
    </dc:creator>
   </cc:Work>
  </rdf:RDF>
 </metadata>
 <defs>
  <style type="text/css">*{stroke-linejoin: round; stroke-linecap: butt}</style>
 </defs>
 <g id="figure_1">
  <g id="patch_1">
   <path d="M 0 345.6 
L 460.8 345.6 
L 460.8 0 
L 0 0 
z
" style="fill: #ffffff"/>
  </g>
  <g id="axes_1">
   <g id="patch_2">
    <path d="M 57.6 307.584 
L 414.72 307.584 
L 414.72 41.472 
L 57.6 41.472 
z
" style="fill: #ffffff"/>
   </g>
   <g id="matplotlib.axis_1">
    <g id="xtick_1">
     <g id="line2d_1">
      <defs>
       <path id="m464230d68f" d="M 0 0 
L 0 3.5 
" style="stroke: #000000; stroke-width: 0.8"/>
      </defs>
      <g>
       <use xlink:href="#m464230d68f" x="73.832727" y="307.584" style="stroke: #000000; stroke-width: 0.8"/>
      </g>
     </g>
     <g id="text_1">
      <!-- 0 -->
      <g transform="translate(70.651477 322.182437) scale(0.1 -0.1)">
       <defs>
        <path id="DejaVuSans-30" d="M 2034 4250 
Q 1547 4250 1301 3770 
Q 1056 3291 1056 2328 
Q 1056 1369 1301 889 
Q 1547 409 2034 409 
Q 2525 409 2770 889 
Q 3016 1369 3016 2328 
Q 3016 3291 2770 3770 
Q 2525 4250 2034 4250 
z
M 2034 4750 
Q 2819 4750 3233 4129 
Q 3647 3509 3647 2328 
Q 3647 1150 3233 529 
Q 2819 -91 2034 -91 
Q 1250 -91 836 529 
Q 422 1150 422 2328 
Q 422 3509 836 4129 
Q 1250 4750 2034 4750 
z
" transform="scale(0.015625)"/>
       </defs>
       <use xlink:href="#DejaVuSans-30"/>
      </g>
     </g>
    </g>
    <g id="xtick_2">
     <g id="line2d_2">
      <g>
       <use xlink:href="#m464230d68f" x="114.414545" y="307.584" style="stroke: #000000; stroke-width: 0.8"/>
      </g>
     </g>
     <g id="text_2">
      <!-- 50 -->
      <g transform="translate(108.052045 322.182437) scale(0.1 -0.1)">
       <defs>
        <path id="DejaVuSans-35" d="M 691 4666 
L 3169 4666 
L 3169 4134 
L 1269 4134 
L 1269 2991 
Q 1406 3038 1543 3061 
Q 1681 3084 1819 3084 
Q 2600 3084 3056 2656 
Q 3513 2228 3513 1497 
Q 3513 744 3044 326 
Q 2575 -91 1722 -91 
Q 1428 -91 1123 -41 
Q 819 9 494 109 
L 494 744 
Q 775 591 1075 516 
Q 1375 441 1709 441 
Q 2250 441 2565 725 
Q 2881 1009 2881 1497 
Q 2881 1984 2565 2268 
Q 2250 2553 1709 2553 
Q 1456 2553 1204 2497 
Q 953 2441 691 2322 
L 691 4666 
z
" transform="scale(0.015625)"/>
       </defs>
       <use xlink:href="#DejaVuSans-35"/>
       <use xlink:href="#DejaVuSans-30" transform="translate(63.623047 0)"/>
      </g>
     </g>
    </g>
    <g id="xtick_3">
     <g id="line2d_3">
      <g>
       <use xlink:href="#m464230d68f" x="154.996364" y="307.584" style="stroke: #000000; stroke-width: 0.8"/>
      </g>
     </g>
     <g id="text_3">
      <!-- 100 -->
      <g transform="translate(145.452614 322.182437) scale(0.1 -0.1)">
       <defs>
        <path id="DejaVuSans-31" d="M 794 531 
L 1825 531 
L 1825 4091 
L 703 3866 
L 703 4441 
L 1819 4666 
L 2450 4666 
L 2450 531 
L 3481 531 
L 3481 0 
L 794 0 
L 794 531 
z
" transform="scale(0.015625)"/>
       </defs>
       <use xlink:href="#DejaVuSans-31"/>
       <use xlink:href="#DejaVuSans-30" transform="translate(63.623047 0)"/>
       <use xlink:href="#DejaVuSans-30" transform="translate(127.246094 0)"/>
      </g>
     </g>
    </g>
    <g id="xtick_4">
     <g id="line2d_4">
      <g>
       <use xlink:href="#m464230d68f" x="195.578182" y="307.584" style="stroke: #000000; stroke-width: 0.8"/>
      </g>
     </g>
     <g id="text_4">
      <!-- 150 -->
      <g transform="translate(186.034432 322.182437) scale(0.1 -0.1)">
       <use xlink:href="#DejaVuSans-31"/>
       <use xlink:href="#DejaVuSans-35" transform="translate(63.623047 0)"/>
       <use xlink:href="#DejaVuSans-30" transform="translate(127.246094 0)"/>
      </g>
     </g>
    </g>
    <g id="xtick_5">
     <g id="line2d_5">
      <g>
       <use xlink:href="#m464230d68f" x="236.16" y="307.584" style="stroke: #000000; stroke-width: 0.8"/>
      </g>
     </g>
     <g id="text_5">
      <!-- 200 -->
      <g transform="translate(226.61625 322.182437) scale(0.1 -0.1)">
       <defs>
        <path id="DejaVuSans-32" d="M 1228 531 
L 3431 531 
L 3431 0 
L 469 0 
L 469 531 
Q 828 903 1448 1529 
Q 2069 2156 2228 2338 
Q 2531 2678 2651 2914 
Q 2772 3150 2772 3378 
Q 2772 3750 2511 3984 
Q 2250 4219 1831 4219 
Q 1534 4219 1204 4116 
Q 875 4013 500 3803 
L 500 4441 
Q 881 4594 1212 4672 
Q 1544 4750 1819 4750 
Q 2544 4750 2975 4387 
Q 3406 4025 3406 3419 
Q 3406 3131 3298 2873 
Q 3191 2616 2906 2266 
Q 2828 2175 2409 1742 
Q 1991 1309 1228 531 
z
" transform="scale(0.015625)"/>
       </defs>
       <use xlink:href="#DejaVuSans-32"/>
       <use xlink:href="#DejaVuSans-30" transform="translate(63.623047 0)"/>
       <use xlink:href="#DejaVuSans-30" transform="translate(127.246094 0)"/>
      </g>
     </g>
    </g>
    <g id="xtick_6">
     <g id="line2d_6">
      <g>
       <use xlink:href="#m464230d68f" x="276.741818" y="307.584" style="stroke: #000000; stroke-width: 0.8"/>
      </g>
     </g>
     <g id="text_6">
      <!-- 250 -->
      <g transform="translate(267.198068 322.182437) scale(0.1 -0.1)">
       <use xlink:href="#DejaVuSans-32"/>
       <use xlink:href="#DejaVuSans-35" transform="translate(63.623047 0)"/>
       <use xlink:href="#DejaVuSans-30" transform="translate(127.246094 0)"/>
      </g>
     </g>
    </g>
    <g id="xtick_7">
     <g id="line2d_7">
      <g>
       <use xlink:href="#m464230d68f" x="317.323636" y="307.584" style="stroke: #000000; stroke-width: 0.8"/>
      </g>
     </g>
     <g id="text_7">
      <!-- 300 -->
      <g transform="translate(307.779886 322.182437) scale(0.1 -0.1)">
       <defs>
        <path id="DejaVuSans-33" d="M 2597 2516 
Q 3050 2419 3304 2112 
Q 3559 1806 3559 1356 
Q 3559 666 3084 287 
Q 2609 -91 1734 -91 
Q 1441 -91 1130 -33 
Q 819 25 488 141 
L 488 750 
Q 750 597 1062 519 
Q 1375 441 1716 441 
Q 2309 441 2620 675 
Q 2931 909 2931 1356 
Q 2931 1769 2642 2001 
Q 2353 2234 1838 2234 
L 1294 2234 
L 1294 2753 
L 1863 2753 
Q 2328 2753 2575 2939 
Q 2822 3125 2822 3475 
Q 2822 3834 2567 4026 
Q 2313 4219 1838 4219 
Q 1578 4219 1281 4162 
Q 984 4106 628 3988 
L 628 4550 
Q 988 4650 1302 4700 
Q 1616 4750 1894 4750 
Q 2613 4750 3031 4423 
Q 3450 4097 3450 3541 
Q 3450 3153 3228 2886 
Q 3006 2619 2597 2516 
z
" transform="scale(0.015625)"/>
       </defs>
       <use xlink:href="#DejaVuSans-33"/>
       <use xlink:href="#DejaVuSans-30" transform="translate(63.623047 0)"/>
       <use xlink:href="#DejaVuSans-30" transform="translate(127.246094 0)"/>
      </g>
     </g>
    </g>
    <g id="xtick_8">
     <g id="line2d_8">
      <g>
       <use xlink:href="#m464230d68f" x="357.905455" y="307.584" style="stroke: #000000; stroke-width: 0.8"/>
      </g>
     </g>
     <g id="text_8">
      <!-- 350 -->
      <g transform="translate(348.361705 322.182437) scale(0.1 -0.1)">
       <use xlink:href="#DejaVuSans-33"/>
       <use xlink:href="#DejaVuSans-35" transform="translate(63.623047 0)"/>
       <use xlink:href="#DejaVuSans-30" transform="translate(127.246094 0)"/>
      </g>
     </g>
    </g>
    <g id="xtick_9">
     <g id="line2d_9">
      <g>
       <use xlink:href="#m464230d68f" x="398.487273" y="307.584" style="stroke: #000000; stroke-width: 0.8"/>
      </g>
     </g>
     <g id="text_9">
      <!-- 400 -->
      <g transform="translate(388.943523 322.182437) scale(0.1 -0.1)">
       <defs>
        <path id="DejaVuSans-34" d="M 2419 4116 
L 825 1625 
L 2419 1625 
L 2419 4116 
z
M 2253 4666 
L 3047 4666 
L 3047 1625 
L 3713 1625 
L 3713 1100 
L 3047 1100 
L 3047 0 
L 2419 0 
L 2419 1100 
L 313 1100 
L 313 1709 
L 2253 4666 
z
" transform="scale(0.015625)"/>
       </defs>
       <use xlink:href="#DejaVuSans-34"/>
       <use xlink:href="#DejaVuSans-30" transform="translate(63.623047 0)"/>
       <use xlink:href="#DejaVuSans-30" transform="translate(127.246094 0)"/>
      </g>
     </g>
    </g>
    <g id="text_10">
     <!-- Iteration -->
     <g transform="translate(214.951406 335.860562) scale(0.1 -0.1)">
      <defs>
       <path id="DejaVuSans-49" d="M 628 4666 
L 1259 4666 
L 1259 0 
L 628 0 
L 628 4666 
z
" transform="scale(0.015625)"/>
       <path id="DejaVuSans-74" d="M 1172 4494 
L 1172 3500 
L 2356 3500 
L 2356 3053 
L 1172 3053 
L 1172 1153 
Q 1172 725 1289 603 
Q 1406 481 1766 481 
L 2356 481 
L 2356 0 
L 1766 0 
Q 1100 0 847 248 
Q 594 497 594 1153 
L 594 3053 
L 172 3053 
L 172 3500 
L 594 3500 
L 594 4494 
L 1172 4494 
z
" transform="scale(0.015625)"/>
       <path id="DejaVuSans-65" d="M 3597 1894 
L 3597 1613 
L 953 1613 
Q 991 1019 1311 708 
Q 1631 397 2203 397 
Q 2534 397 2845 478 
Q 3156 559 3463 722 
L 3463 178 
Q 3153 47 2828 -22 
Q 2503 -91 2169 -91 
Q 1331 -91 842 396 
Q 353 884 353 1716 
Q 353 2575 817 3079 
Q 1281 3584 2069 3584 
Q 2775 3584 3186 3129 
Q 3597 2675 3597 1894 
z
M 3022 2063 
Q 3016 2534 2758 2815 
Q 2500 3097 2075 3097 
Q 1594 3097 1305 2825 
Q 1016 2553 972 2059 
L 3022 2063 
z
" transform="scale(0.015625)"/>
       <path id="DejaVuSans-72" d="M 2631 2963 
Q 2534 3019 2420 3045 
Q 2306 3072 2169 3072 
Q 1681 3072 1420 2755 
Q 1159 2438 1159 1844 
L 1159 0 
L 581 0 
L 581 3500 
L 1159 3500 
L 1159 2956 
Q 1341 3275 1631 3429 
Q 1922 3584 2338 3584 
Q 2397 3584 2469 3576 
Q 2541 3569 2628 3553 
L 2631 2963 
z
" transform="scale(0.015625)"/>
       <path id="DejaVuSans-61" d="M 2194 1759 
Q 1497 1759 1228 1600 
Q 959 1441 959 1056 
Q 959 750 1161 570 
Q 1363 391 1709 391 
Q 2188 391 2477 730 
Q 2766 1069 2766 1631 
L 2766 1759 
L 2194 1759 
z
M 3341 1997 
L 3341 0 
L 2766 0 
L 2766 531 
Q 2569 213 2275 61 
Q 1981 -91 1556 -91 
Q 1019 -91 701 211 
Q 384 513 384 1019 
Q 384 1609 779 1909 
Q 1175 2209 1959 2209 
L 2766 2209 
L 2766 2266 
Q 2766 2663 2505 2880 
Q 2244 3097 1772 3097 
Q 1472 3097 1187 3025 
Q 903 2953 641 2809 
L 641 3341 
Q 956 3463 1253 3523 
Q 1550 3584 1831 3584 
Q 2591 3584 2966 3190 
Q 3341 2797 3341 1997 
z
" transform="scale(0.015625)"/>
       <path id="DejaVuSans-69" d="M 603 3500 
L 1178 3500 
L 1178 0 
L 603 0 
L 603 3500 
z
M 603 4863 
L 1178 4863 
L 1178 4134 
L 603 4134 
L 603 4863 
z
" transform="scale(0.015625)"/>
       <path id="DejaVuSans-6f" d="M 1959 3097 
Q 1497 3097 1228 2736 
Q 959 2375 959 1747 
Q 959 1119 1226 758 
Q 1494 397 1959 397 
Q 2419 397 2687 759 
Q 2956 1122 2956 1747 
Q 2956 2369 2687 2733 
Q 2419 3097 1959 3097 
z
M 1959 3584 
Q 2709 3584 3137 3096 
Q 3566 2609 3566 1747 
Q 3566 888 3137 398 
Q 2709 -91 1959 -91 
Q 1206 -91 779 398 
Q 353 888 353 1747 
Q 353 2609 779 3096 
Q 1206 3584 1959 3584 
z
" transform="scale(0.015625)"/>
       <path id="DejaVuSans-6e" d="M 3513 2113 
L 3513 0 
L 2938 0 
L 2938 2094 
Q 2938 2591 2744 2837 
Q 2550 3084 2163 3084 
Q 1697 3084 1428 2787 
Q 1159 2491 1159 1978 
L 1159 0 
L 581 0 
L 581 3500 
L 1159 3500 
L 1159 2956 
Q 1366 3272 1645 3428 
Q 1925 3584 2291 3584 
Q 2894 3584 3203 3211 
Q 3513 2838 3513 2113 
z
" transform="scale(0.015625)"/>
      </defs>
      <use xlink:href="#DejaVuSans-49"/>
      <use xlink:href="#DejaVuSans-74" transform="translate(29.492188 0)"/>
      <use xlink:href="#DejaVuSans-65" transform="translate(68.701172 0)"/>
      <use xlink:href="#DejaVuSans-72" transform="translate(130.224609 0)"/>
      <use xlink:href="#DejaVuSans-61" transform="translate(171.337891 0)"/>
      <use xlink:href="#DejaVuSans-74" transform="translate(232.617188 0)"/>
      <use xlink:href="#DejaVuSans-69" transform="translate(271.826172 0)"/>
      <use xlink:href="#DejaVuSans-6f" transform="translate(299.609375 0)"/>
      <use xlink:href="#DejaVuSans-6e" transform="translate(360.791016 0)"/>
     </g>
    </g>
   </g>
   <g id="matplotlib.axis_2">
    <g id="ytick_1">
     <g id="line2d_10">
      <defs>
       <path id="mb0994d8f9d" d="M 0 0 
L -3.5 0 
" style="stroke: #000000; stroke-width: 0.8"/>
      </defs>
      <g>
       <use xlink:href="#mb0994d8f9d" x="57.6" y="302.742271" style="stroke: #000000; stroke-width: 0.8"/>
      </g>
     </g>
     <g id="text_11">
      <!-- 0.0 -->
      <g transform="translate(34.696875 306.54149) scale(0.1 -0.1)">
       <defs>
        <path id="DejaVuSans-2e" d="M 684 794 
L 1344 794 
L 1344 0 
L 684 0 
L 684 794 
z
" transform="scale(0.015625)"/>
       </defs>
       <use xlink:href="#DejaVuSans-30"/>
       <use xlink:href="#DejaVuSans-2e" transform="translate(63.623047 0)"/>
       <use xlink:href="#DejaVuSans-30" transform="translate(95.410156 0)"/>
      </g>
     </g>
    </g>
    <g id="ytick_2">
     <g id="line2d_11">
      <g>
       <use xlink:href="#mb0994d8f9d" x="57.6" y="265.800434" style="stroke: #000000; stroke-width: 0.8"/>
      </g>
     </g>
     <g id="text_12">
      <!-- 0.2 -->
      <g transform="translate(34.696875 269.599653) scale(0.1 -0.1)">
       <use xlink:href="#DejaVuSans-30"/>
       <use xlink:href="#DejaVuSans-2e" transform="translate(63.623047 0)"/>
       <use xlink:href="#DejaVuSans-32" transform="translate(95.410156 0)"/>
      </g>
     </g>
    </g>
    <g id="ytick_3">
     <g id="line2d_12">
      <g>
       <use xlink:href="#mb0994d8f9d" x="57.6" y="228.858597" style="stroke: #000000; stroke-width: 0.8"/>
      </g>
     </g>
     <g id="text_13">
      <!-- 0.4 -->
      <g transform="translate(34.696875 232.657816) scale(0.1 -0.1)">
       <use xlink:href="#DejaVuSans-30"/>
       <use xlink:href="#DejaVuSans-2e" transform="translate(63.623047 0)"/>
       <use xlink:href="#DejaVuSans-34" transform="translate(95.410156 0)"/>
      </g>
     </g>
    </g>
    <g id="ytick_4">
     <g id="line2d_13">
      <g>
       <use xlink:href="#mb0994d8f9d" x="57.6" y="191.91676" style="stroke: #000000; stroke-width: 0.8"/>
      </g>
     </g>
     <g id="text_14">
      <!-- 0.6 -->
      <g transform="translate(34.696875 195.715979) scale(0.1 -0.1)">
       <defs>
        <path id="DejaVuSans-36" d="M 2113 2584 
Q 1688 2584 1439 2293 
Q 1191 2003 1191 1497 
Q 1191 994 1439 701 
Q 1688 409 2113 409 
Q 2538 409 2786 701 
Q 3034 994 3034 1497 
Q 3034 2003 2786 2293 
Q 2538 2584 2113 2584 
z
M 3366 4563 
L 3366 3988 
Q 3128 4100 2886 4159 
Q 2644 4219 2406 4219 
Q 1781 4219 1451 3797 
Q 1122 3375 1075 2522 
Q 1259 2794 1537 2939 
Q 1816 3084 2150 3084 
Q 2853 3084 3261 2657 
Q 3669 2231 3669 1497 
Q 3669 778 3244 343 
Q 2819 -91 2113 -91 
Q 1303 -91 875 529 
Q 447 1150 447 2328 
Q 447 3434 972 4092 
Q 1497 4750 2381 4750 
Q 2619 4750 2861 4703 
Q 3103 4656 3366 4563 
z
" transform="scale(0.015625)"/>
       </defs>
       <use xlink:href="#DejaVuSans-30"/>
       <use xlink:href="#DejaVuSans-2e" transform="translate(63.623047 0)"/>
       <use xlink:href="#DejaVuSans-36" transform="translate(95.410156 0)"/>
      </g>
     </g>
    </g>
    <g id="ytick_5">
     <g id="line2d_14">
      <g>
       <use xlink:href="#mb0994d8f9d" x="57.6" y="154.974924" style="stroke: #000000; stroke-width: 0.8"/>
      </g>
     </g>
     <g id="text_15">
      <!-- 0.8 -->
      <g transform="translate(34.696875 158.774142) scale(0.1 -0.1)">
       <defs>
        <path id="DejaVuSans-38" d="M 2034 2216 
Q 1584 2216 1326 1975 
Q 1069 1734 1069 1313 
Q 1069 891 1326 650 
Q 1584 409 2034 409 
Q 2484 409 2743 651 
Q 3003 894 3003 1313 
Q 3003 1734 2745 1975 
Q 2488 2216 2034 2216 
z
M 1403 2484 
Q 997 2584 770 2862 
Q 544 3141 544 3541 
Q 544 4100 942 4425 
Q 1341 4750 2034 4750 
Q 2731 4750 3128 4425 
Q 3525 4100 3525 3541 
Q 3525 3141 3298 2862 
Q 3072 2584 2669 2484 
Q 3125 2378 3379 2068 
Q 3634 1759 3634 1313 
Q 3634 634 3220 271 
Q 2806 -91 2034 -91 
Q 1263 -91 848 271 
Q 434 634 434 1313 
Q 434 1759 690 2068 
Q 947 2378 1403 2484 
z
M 1172 3481 
Q 1172 3119 1398 2916 
Q 1625 2713 2034 2713 
Q 2441 2713 2670 2916 
Q 2900 3119 2900 3481 
Q 2900 3844 2670 4047 
Q 2441 4250 2034 4250 
Q 1625 4250 1398 4047 
Q 1172 3844 1172 3481 
z
" transform="scale(0.015625)"/>
       </defs>
       <use xlink:href="#DejaVuSans-30"/>
       <use xlink:href="#DejaVuSans-2e" transform="translate(63.623047 0)"/>
       <use xlink:href="#DejaVuSans-38" transform="translate(95.410156 0)"/>
      </g>
     </g>
    </g>
    <g id="ytick_6">
     <g id="line2d_15">
      <g>
       <use xlink:href="#mb0994d8f9d" x="57.6" y="118.033087" style="stroke: #000000; stroke-width: 0.8"/>
      </g>
     </g>
     <g id="text_16">
      <!-- 1.0 -->
      <g transform="translate(34.696875 121.832305) scale(0.1 -0.1)">
       <use xlink:href="#DejaVuSans-31"/>
       <use xlink:href="#DejaVuSans-2e" transform="translate(63.623047 0)"/>
       <use xlink:href="#DejaVuSans-30" transform="translate(95.410156 0)"/>
      </g>
     </g>
    </g>
    <g id="ytick_7">
     <g id="line2d_16">
      <g>
       <use xlink:href="#mb0994d8f9d" x="57.6" y="81.09125" style="stroke: #000000; stroke-width: 0.8"/>
      </g>
     </g>
     <g id="text_17">
      <!-- 1.2 -->
      <g transform="translate(34.696875 84.890468) scale(0.1 -0.1)">
       <use xlink:href="#DejaVuSans-31"/>
       <use xlink:href="#DejaVuSans-2e" transform="translate(63.623047 0)"/>
       <use xlink:href="#DejaVuSans-32" transform="translate(95.410156 0)"/>
      </g>
     </g>
    </g>
    <g id="ytick_8">
     <g id="line2d_17">
      <g>
       <use xlink:href="#mb0994d8f9d" x="57.6" y="44.149413" style="stroke: #000000; stroke-width: 0.8"/>
      </g>
     </g>
     <g id="text_18">
      <!-- 1.4 -->
      <g transform="translate(34.696875 47.948631) scale(0.1 -0.1)">
       <use xlink:href="#DejaVuSans-31"/>
       <use xlink:href="#DejaVuSans-2e" transform="translate(63.623047 0)"/>
       <use xlink:href="#DejaVuSans-34" transform="translate(95.410156 0)"/>
      </g>
     </g>
    </g>
    <g id="text_19">
     <!-- loss value -->
     <g transform="translate(28.617187 199.432687) rotate(-90) scale(0.1 -0.1)">
      <defs>
       <path id="DejaVuSans-6c" d="M 603 4863 
L 1178 4863 
L 1178 0 
L 603 0 
L 603 4863 
z
" transform="scale(0.015625)"/>
       <path id="DejaVuSans-73" d="M 2834 3397 
L 2834 2853 
Q 2591 2978 2328 3040 
Q 2066 3103 1784 3103 
Q 1356 3103 1142 2972 
Q 928 2841 928 2578 
Q 928 2378 1081 2264 
Q 1234 2150 1697 2047 
L 1894 2003 
Q 2506 1872 2764 1633 
Q 3022 1394 3022 966 
Q 3022 478 2636 193 
Q 2250 -91 1575 -91 
Q 1294 -91 989 -36 
Q 684 19 347 128 
L 347 722 
Q 666 556 975 473 
Q 1284 391 1588 391 
Q 1994 391 2212 530 
Q 2431 669 2431 922 
Q 2431 1156 2273 1281 
Q 2116 1406 1581 1522 
L 1381 1569 
Q 847 1681 609 1914 
Q 372 2147 372 2553 
Q 372 3047 722 3315 
Q 1072 3584 1716 3584 
Q 2034 3584 2315 3537 
Q 2597 3491 2834 3397 
z
" transform="scale(0.015625)"/>
       <path id="DejaVuSans-20" transform="scale(0.015625)"/>
       <path id="DejaVuSans-76" d="M 191 3500 
L 800 3500 
L 1894 563 
L 2988 3500 
L 3597 3500 
L 2284 0 
L 1503 0 
L 191 3500 
z
" transform="scale(0.015625)"/>
       <path id="DejaVuSans-75" d="M 544 1381 
L 544 3500 
L 1119 3500 
L 1119 1403 
Q 1119 906 1312 657 
Q 1506 409 1894 409 
Q 2359 409 2629 706 
Q 2900 1003 2900 1516 
L 2900 3500 
L 3475 3500 
L 3475 0 
L 2900 0 
L 2900 538 
Q 2691 219 2414 64 
Q 2138 -91 1772 -91 
Q 1169 -91 856 284 
Q 544 659 544 1381 
z
M 1991 3584 
L 1991 3584 
z
" transform="scale(0.015625)"/>
      </defs>
      <use xlink:href="#DejaVuSans-6c"/>
      <use xlink:href="#DejaVuSans-6f" transform="translate(27.783203 0)"/>
      <use xlink:href="#DejaVuSans-73" transform="translate(88.964844 0)"/>
      <use xlink:href="#DejaVuSans-73" transform="translate(141.064453 0)"/>
      <use xlink:href="#DejaVuSans-20" transform="translate(193.164062 0)"/>
      <use xlink:href="#DejaVuSans-76" transform="translate(224.951172 0)"/>
      <use xlink:href="#DejaVuSans-61" transform="translate(284.130859 0)"/>
      <use xlink:href="#DejaVuSans-6c" transform="translate(345.410156 0)"/>
      <use xlink:href="#DejaVuSans-75" transform="translate(373.193359 0)"/>
      <use xlink:href="#DejaVuSans-65" transform="translate(436.572266 0)"/>
     </g>
    </g>
   </g>
   <g id="line2d_18">
    <path d="M 73.832727 151.66144 
L 74.644364 172.224888 
L 75.456 182.066457 
L 76.267636 182.40882 
L 77.079273 188.000745 
L 77.890909 146.305614 
L 78.702545 225.84366 
L 79.514182 118.817713 
L 80.325818 182.576935 
L 81.137455 184.529453 
L 81.949091 188.133784 
L 82.760727 200.26791 
L 83.572364 189.227679 
L 84.384 190.496131 
L 85.195636 222.967966 
L 86.007273 204.698925 
L 86.818909 224.491751 
L 87.630545 116.004934 
L 88.442182 203.362787 
L 89.253818 239.396149 
L 90.065455 244.159513 
L 90.877091 180.965548 
L 91.688727 240.772114 
L 92.500364 211.979012 
L 93.312 254.051115 
L 94.123636 245.571683 
L 95.746909 236.162602 
L 96.558545 243.208648 
L 97.370182 262.335549 
L 98.181818 232.25275 
L 98.993455 165.176623 
L 99.805091 226.658541 
L 100.616727 215.392598 
L 101.428364 256.842784 
L 102.24 278.652593 
L 103.051636 258.856357 
L 103.863273 258.373047 
L 104.674909 152.969239 
L 105.486545 252.53387 
L 106.298182 220.322322 
L 107.109818 262.371985 
L 107.921455 245.841951 
L 108.733091 273.870262 
L 109.544727 220.206816 
L 110.356364 255.847936 
L 111.168 250.376625 
L 111.979636 268.066568 
L 112.791273 255.223013 
L 113.602909 231.898568 
L 114.414545 166.7807 
L 115.226182 194.055995 
L 116.037818 279.058316 
L 116.849455 241.606597 
L 117.661091 279.899709 
L 118.472727 260.864076 
L 119.284364 264.914984 
L 120.096 264.87663 
L 120.907636 261.174091 
L 121.719273 254.759705 
L 122.530909 236.948071 
L 123.342545 243.369839 
L 124.154182 242.719644 
L 124.965818 179.893969 
L 125.777455 274.021816 
L 126.589091 231.138592 
L 127.400727 243.793612 
L 128.212364 274.270274 
L 129.024 233.299701 
L 129.835636 257.67465 
L 130.647273 269.64521 
L 131.458909 233.564117 
L 133.082182 259.518649 
L 133.893818 280.10339 
L 134.705455 263.755054 
L 135.517091 254.323491 
L 136.328727 268.009814 
L 137.140364 260.592623 
L 137.952 273.553672 
L 138.763636 243.123561 
L 139.575273 286.613878 
L 140.386909 285.868784 
L 141.198545 268.831051 
L 142.010182 239.010474 
L 142.821818 274.36779 
L 143.633455 274.035484 
L 144.445091 249.725808 
L 145.256727 255.289588 
L 146.068364 274.76614 
L 146.88 281.458079 
L 147.691636 241.553867 
L 148.503273 267.451133 
L 149.314909 265.043986 
L 150.126545 269.77018 
L 150.938182 53.568 
L 151.749818 271.662257 
L 152.561455 245.891064 
L 153.373091 287.243342 
L 154.184727 195.129005 
L 154.996364 270.541523 
L 155.808 245.012075 
L 156.619636 273.295449 
L 157.431273 282.29864 
L 158.242909 232.523012 
L 159.054545 272.798636 
L 159.866182 270.385758 
L 160.677818 277.348333 
L 161.489455 263.946917 
L 162.301091 274.062389 
L 163.112727 242.338175 
L 163.924364 276.566786 
L 164.736 260.125618 
L 165.547636 266.055811 
L 166.359273 254.697 
L 167.170909 273.710434 
L 167.982545 263.973428 
L 168.794182 272.433075 
L 169.605818 290.220941 
L 170.417455 243.854093 
L 171.229091 284.635643 
L 172.040727 239.751211 
L 172.852364 264.027083 
L 173.664 262.283226 
L 174.475636 275.622378 
L 175.287273 282.797211 
L 176.098909 262.094297 
L 176.910545 290.291141 
L 177.722182 278.786017 
L 178.533818 254.904964 
L 180.157091 283.706653 
L 180.968727 247.836012 
L 181.780364 270.152747 
L 182.592 282.275941 
L 183.403636 279.19574 
L 184.215273 261.949128 
L 185.026909 290.151161 
L 185.838545 243.881187 
L 186.650182 286.879951 
L 187.461818 239.714115 
L 188.273455 280.926403 
L 189.085091 287.575036 
L 189.896727 154.396371 
L 190.708364 290.359982 
L 191.52 260.701386 
L 192.331636 282.308647 
L 193.143273 271.190073 
L 193.954909 284.715017 
L 194.766545 260.483238 
L 195.578182 281.77265 
L 196.389818 284.399129 
L 197.201455 284.908475 
L 198.013091 246.009857 
L 198.824727 281.731901 
L 199.636364 279.524269 
L 200.448 268.246604 
L 201.259636 285.922448 
L 202.071273 274.321198 
L 202.882909 291.127306 
L 203.694545 289.31236 
L 204.506182 264.390452 
L 205.317818 263.322217 
L 206.941091 287.665025 
L 207.752727 241.896291 
L 208.564364 291.143202 
L 209.376 221.010054 
L 210.187636 269.229372 
L 210.999273 265.888463 
L 211.810909 261.384709 
L 212.622545 283.531349 
L 213.434182 232.478638 
L 214.245818 283.161642 
L 215.057455 233.773837 
L 215.869091 208.092975 
L 216.680727 269.365475 
L 217.492364 260.718913 
L 218.304 272.746693 
L 219.115636 280.462654 
L 219.927273 291.939196 
L 220.738909 276.039592 
L 221.550545 263.690266 
L 222.362182 233.35623 
L 223.173818 250.109259 
L 223.985455 231.639283 
L 224.797091 278.09574 
L 225.608727 276.203615 
L 226.420364 282.449531 
L 227.232 242.499938 
L 228.043636 273.280828 
L 228.855273 93.114589 
L 229.666909 268.437127 
L 230.478545 228.442607 
L 231.290182 225.694426 
L 232.101818 286.203385 
L 232.913455 267.077665 
L 233.725091 289.269963 
L 234.536727 262.16009 
L 235.348364 293.959885 
L 236.16 264.378259 
L 236.971636 247.33787 
L 237.783273 287.096051 
L 238.594909 271.797639 
L 239.406545 266.657495 
L 240.218182 281.136229 
L 241.029818 271.346353 
L 242.653091 265.414932 
L 243.464727 286.836594 
L 244.276364 282.824311 
L 245.088 266.809446 
L 245.899636 200.882385 
L 246.711273 280.627987 
L 247.522909 283.24857 
L 248.334545 262.440877 
L 249.146182 276.412482 
L 249.957818 273.774674 
L 250.769455 259.652156 
L 251.581091 260.473918 
L 252.392727 282.618122 
L 253.204364 285.902049 
L 254.016 279.779652 
L 254.827636 289.911974 
L 255.639273 269.293643 
L 256.450909 281.85427 
L 257.262545 277.736438 
L 258.074182 269.84611 
L 258.885818 274.255923 
L 259.697455 261.322761 
L 260.509091 266.496164 
L 261.320727 278.801962 
L 262.132364 238.011811 
L 262.944 285.01536 
L 263.755636 273.00314 
L 264.567273 283.617431 
L 265.378909 257.101932 
L 266.190545 242.942521 
L 267.002182 251.122664 
L 267.813818 169.785287 
L 268.625455 273.355371 
L 269.437091 225.165809 
L 270.248727 288.325424 
L 271.060364 256.453669 
L 271.872 285.125773 
L 272.683636 268.296153 
L 273.495273 286.20978 
L 274.306909 230.855465 
L 275.118545 290.849742 
L 275.930182 284.991155 
L 276.741818 271.865562 
L 277.553455 279.971304 
L 278.365091 283.265868 
L 279.176727 275.722424 
L 279.988364 230.873488 
L 280.8 293.092618 
L 281.611636 248.405045 
L 282.423273 287.589443 
L 283.234909 290.117878 
L 284.046545 240.384342 
L 284.858182 286.877891 
L 285.669818 281.3018 
L 286.481455 282.783978 
L 288.104727 261.737178 
L 288.916364 271.231364 
L 289.728 260.679149 
L 291.351273 289.863623 
L 292.162909 243.24858 
L 292.974545 249.654659 
L 293.786182 241.156676 
L 294.597818 237.672162 
L 295.409455 255.281975 
L 296.221091 267.743312 
L 297.032727 291.984252 
L 297.844364 282.821238 
L 298.656 287.490488 
L 299.467636 270.572978 
L 300.279273 288.563889 
L 301.090909 267.895439 
L 301.902545 260.719397 
L 302.714182 292.941779 
L 303.525818 285.886052 
L 304.337455 260.644244 
L 305.149091 260.663447 
L 305.960727 263.105748 
L 306.772364 160.297014 
L 307.584 281.405178 
L 308.395636 269.926399 
L 309.207273 284.515987 
L 310.018909 293.144035 
L 310.830545 262.966821 
L 311.642182 254.383729 
L 312.453818 284.478531 
L 313.265455 208.873935 
L 314.077091 273.205848 
L 314.888727 274.470551 
L 315.700364 274.587411 
L 316.512 267.157586 
L 317.323636 267.099304 
L 318.135273 270.065557 
L 318.946909 270.174177 
L 319.758545 162.709124 
L 320.570182 250.94295 
L 321.381818 271.451271 
L 322.193455 268.834929 
L 323.005091 279.431715 
L 323.816727 282.243896 
L 324.628364 260.791782 
L 325.44 256.522842 
L 326.251636 281.993502 
L 327.063273 288.399252 
L 327.874909 277.217708 
L 328.686545 270.483261 
L 329.498182 282.141055 
L 330.309818 267.446385 
L 331.121455 214.645057 
L 331.933091 273.159836 
L 332.744727 274.989597 
L 333.556364 256.942913 
L 334.368 266.828971 
L 335.179636 269.53923 
L 335.991273 285.112733 
L 336.802909 259.700546 
L 337.614545 276.058851 
L 338.426182 287.741719 
L 339.237818 292.120873 
L 340.049455 277.345641 
L 340.861091 289.260977 
L 341.672727 268.855032 
L 342.484364 283.545188 
L 343.296 263.022849 
L 344.107636 258.880774 
L 344.919273 284.854881 
L 345.730909 110.225594 
L 346.542545 281.127691 
L 347.354182 266.737009 
L 348.165818 279.150202 
L 348.977455 249.173191 
L 349.789091 289.163384 
L 350.600727 268.710028 
L 351.412364 281.310996 
L 352.224 278.821542 
L 353.035636 268.14622 
L 353.847273 289.744423 
L 354.658909 269.192683 
L 355.470545 293.976358 
L 356.282182 272.964313 
L 357.093818 271.792274 
L 357.905455 290.202342 
L 358.717091 274.837633 
L 359.528727 242.016041 
L 360.340364 282.30137 
L 361.152 222.158981 
L 361.963636 282.976265 
L 362.775273 279.835968 
L 363.586909 278.215226 
L 364.398545 289.00322 
L 365.210182 279.820577 
L 366.021818 276.357093 
L 366.833455 288.866149 
L 367.645091 254.160935 
L 368.456727 273.488245 
L 369.268364 252.160708 
L 370.08 282.643458 
L 370.891636 278.910863 
L 371.703273 184.016387 
L 372.514909 280.438209 
L 373.326545 262.154186 
L 374.138182 271.762827 
L 374.949818 272.510159 
L 375.761455 236.290224 
L 376.573091 251.146444 
L 377.384727 251.808948 
L 378.196364 284.739161 
L 379.008 254.821578 
L 379.819636 265.310675 
L 380.631273 267.837634 
L 381.442909 276.416294 
L 382.254545 271.857753 
L 383.066182 264.934171 
L 383.877818 264.11408 
L 384.689455 295.488 
L 385.501091 235.495936 
L 386.312727 281.997484 
L 387.936 238.368679 
L 388.747636 284.57409 
L 389.559273 276.281048 
L 390.370909 295.320349 
L 391.182545 245.46265 
L 391.994182 271.323392 
L 392.805818 271.196662 
L 393.617455 266.86067 
L 394.429091 268.995907 
L 395.240727 275.979122 
L 396.052364 277.369537 
L 396.864 259.130238 
L 397.675636 99.554369 
L 397.675636 99.554369 
" clip-path="url(#pd33ad203b9)" style="fill: none; stroke: #1f77b4; stroke-width: 1.5; stroke-linecap: square"/>
   </g>
   <g id="line2d_19">
    <path d="M 86.818909 190.763232 
L 99.805091 246.693704 
L 112.791273 240.015759 
L 125.777455 260.450803 
L 138.763636 241.112197 
L 151.749818 267.038843 
L 164.736 266.85888 
L 177.722182 264.802394 
L 190.708364 267.526453 
L 203.694545 265.691977 
L 216.680727 269.054868 
L 229.666909 267.791576 
L 242.653091 267.111149 
L 255.639273 266.865619 
L 268.625455 267.774009 
L 281.611636 266.975277 
L 294.597818 266.434717 
L 307.584 268.409873 
L 320.570182 267.679915 
L 333.556364 267.67203 
L 346.542545 265.421499 
L 359.528727 265.516877 
L 372.514909 266.29556 
L 385.501091 266.7355 
L 398.487273 267.831118 
" clip-path="url(#pd33ad203b9)" style="fill: none; stroke: #ff7f0e; stroke-width: 1.5; stroke-linecap: square"/>
   </g>
   <g id="patch_3">
    <path d="M 57.6 307.584 
L 57.6 41.472 
" style="fill: none; stroke: #000000; stroke-width: 0.8; stroke-linejoin: miter; stroke-linecap: square"/>
   </g>
   <g id="patch_4">
    <path d="M 414.72 307.584 
L 414.72 41.472 
" style="fill: none; stroke: #000000; stroke-width: 0.8; stroke-linejoin: miter; stroke-linecap: square"/>
   </g>
   <g id="patch_5">
    <path d="M 57.6 307.584 
L 414.72 307.584 
" style="fill: none; stroke: #000000; stroke-width: 0.8; stroke-linejoin: miter; stroke-linecap: square"/>
   </g>
   <g id="patch_6">
    <path d="M 57.6 41.472 
L 414.72 41.472 
" style="fill: none; stroke: #000000; stroke-width: 0.8; stroke-linejoin: miter; stroke-linecap: square"/>
   </g>
   <g id="legend_1">
    <g id="patch_7">
     <path d="M 351.621563 78.82825 
L 407.72 78.82825 
Q 409.72 78.82825 409.72 76.82825 
L 409.72 48.472 
Q 409.72 46.472 407.72 46.472 
L 351.621563 46.472 
Q 349.621563 46.472 349.621563 48.472 
L 349.621563 76.82825 
Q 349.621563 78.82825 351.621563 78.82825 
z
" style="fill: #ffffff; opacity: 0.8; stroke: #cccccc; stroke-linejoin: miter"/>
    </g>
    <g id="line2d_20">
     <path d="M 353.621563 54.570437 
L 363.621563 54.570437 
L 373.621563 54.570437 
" style="fill: none; stroke: #1f77b4; stroke-width: 1.5; stroke-linecap: square"/>
    </g>
    <g id="text_20">
     <!-- Train -->
     <g transform="translate(381.621563 58.070437) scale(0.1 -0.1)">
      <defs>
       <path id="DejaVuSans-54" d="M -19 4666 
L 3928 4666 
L 3928 4134 
L 2272 4134 
L 2272 0 
L 1638 0 
L 1638 4134 
L -19 4134 
L -19 4666 
z
" transform="scale(0.015625)"/>
      </defs>
      <use xlink:href="#DejaVuSans-54"/>
      <use xlink:href="#DejaVuSans-72" transform="translate(46.333984 0)"/>
      <use xlink:href="#DejaVuSans-61" transform="translate(87.447266 0)"/>
      <use xlink:href="#DejaVuSans-69" transform="translate(148.726562 0)"/>
      <use xlink:href="#DejaVuSans-6e" transform="translate(176.509766 0)"/>
     </g>
    </g>
    <g id="line2d_21">
     <path d="M 353.621563 69.248562 
L 363.621563 69.248562 
L 373.621563 69.248562 
" style="fill: none; stroke: #ff7f0e; stroke-width: 1.5; stroke-linecap: square"/>
    </g>
    <g id="text_21">
     <!-- Valid -->
     <g transform="translate(381.621563 72.748562) scale(0.1 -0.1)">
      <defs>
       <path id="DejaVuSans-56" d="M 1831 0 
L 50 4666 
L 709 4666 
L 2188 738 
L 3669 4666 
L 4325 4666 
L 2547 0 
L 1831 0 
z
" transform="scale(0.015625)"/>
       <path id="DejaVuSans-64" d="M 2906 2969 
L 2906 4863 
L 3481 4863 
L 3481 0 
L 2906 0 
L 2906 525 
Q 2725 213 2448 61 
Q 2172 -91 1784 -91 
Q 1150 -91 751 415 
Q 353 922 353 1747 
Q 353 2572 751 3078 
Q 1150 3584 1784 3584 
Q 2172 3584 2448 3432 
Q 2725 3281 2906 2969 
z
M 947 1747 
Q 947 1113 1208 752 
Q 1469 391 1925 391 
Q 2381 391 2643 752 
Q 2906 1113 2906 1747 
Q 2906 2381 2643 2742 
Q 2381 3103 1925 3103 
Q 1469 3103 1208 2742 
Q 947 2381 947 1747 
z
" transform="scale(0.015625)"/>
      </defs>
      <use xlink:href="#DejaVuSans-56"/>
      <use xlink:href="#DejaVuSans-61" transform="translate(60.658203 0)"/>
      <use xlink:href="#DejaVuSans-6c" transform="translate(121.9375 0)"/>
      <use xlink:href="#DejaVuSans-69" transform="translate(149.720703 0)"/>
      <use xlink:href="#DejaVuSans-64" transform="translate(177.503906 0)"/>
     </g>
    </g>
   </g>
  </g>
 </g>
 <defs>
  <clipPath id="pd33ad203b9">
   <rect x="57.6" y="41.472" width="357.12" height="266.112"/>
  </clipPath>
 </defs>
</svg>
